<svg width="44" height="44" viewBox="0 0 44 44" fill="none" xmlns="http://www.w3.org/2000/svg">
<rect x="0.5" y="0.5" width="43" height="43" rx="5.5" fill="black" stroke="#B9B9B9"/>
<path d="M30.0219 22.6465C29.9792 18.9374 33.059 17.1042 33.2301 17.019C31.4763 14.461 28.7815 14.1199 27.8404 14.1199C25.5733 13.8641 23.3491 15.4842 22.1941 15.4842C20.9964 15.4842 19.2427 14.1626 17.3178 14.2052C14.8369 14.2478 12.527 15.6547 11.2438 17.8716C8.6345 22.3907 10.5594 29.0414 13.0831 32.7079C14.3236 34.4984 15.8207 36.5022 17.7456 36.4169C19.6276 36.3317 20.312 35.2232 22.5791 35.2232C24.8462 35.2232 25.4878 36.4169 27.4554 36.3743C29.4659 36.3317 30.7491 34.5837 31.9468 32.7505C33.4011 30.7041 34 28.6577 34 28.5725C33.9144 28.5725 30.0219 27.123 30.0219 22.6465Z" fill="white"/>
<path d="M26.3004 11.7323C27.327 10.4533 28.0114 8.74795 27.7975 7C26.3432 7.08527 24.5039 8.02319 23.4345 9.25955C22.4935 10.3254 21.6807 12.116 21.8946 13.7786C23.5628 13.9065 25.2311 12.9686 26.3004 11.7323Z" fill="white"/>
</svg>
