<svg width="89" height="89" viewBox="0 0 89 89" fill="none" xmlns="http://www.w3.org/2000/svg">
<rect width="89" height="89" rx="22" fill="#EEE7FA"/>
<path d="M64.9475 57.2607H62.409C62.2152 57.2688 62.032 57.3511 61.8977 57.4903C61.7634 57.6295 61.6885 57.8149 61.6885 58.0077C61.6885 58.2006 61.7634 58.386 61.8977 58.5252C62.032 58.6644 62.2152 58.7467 62.409 58.7548H64.9475C65.0489 58.7591 65.15 58.7429 65.245 58.7073C65.3399 58.6716 65.4265 58.6173 65.4998 58.5475C65.573 58.4777 65.6313 58.3939 65.6711 58.3012C65.7109 58.2084 65.7314 58.1086 65.7314 58.0077C65.7314 57.9069 65.7109 57.8071 65.6711 57.7143C65.6313 57.6216 65.573 57.5378 65.4998 57.468C65.4265 57.3982 65.3399 57.3439 65.245 57.3082C65.15 57.2726 65.0489 57.2564 64.9475 57.2607Z" fill="black"/>
<path d="M64.9475 55.2751H62.409C62.2152 55.2832 62.032 55.3655 61.8977 55.5047C61.7634 55.6439 61.6885 55.8293 61.6885 56.0221C61.6885 56.215 61.7634 56.4004 61.8977 56.5396C62.032 56.6788 62.2152 56.7611 62.409 56.7692H64.9475C65.0489 56.7735 65.15 56.7573 65.245 56.7217C65.3399 56.686 65.4265 56.6317 65.4998 56.5619C65.573 56.4921 65.6313 56.4083 65.6711 56.3156C65.7109 56.2228 65.7314 56.123 65.7314 56.0221C65.7314 55.9213 65.7109 55.8215 65.6711 55.7287C65.6313 55.636 65.573 55.5522 65.4998 55.4824C65.4265 55.4126 65.3399 55.3583 65.245 55.3226C65.15 55.287 65.0489 55.2708 64.9475 55.2751Z" fill="black"/>
<path d="M64.9475 53.2882H62.409C62.2152 53.2963 62.032 53.3786 61.8977 53.5178C61.7634 53.657 61.6885 53.8424 61.6885 54.0353C61.6885 54.2281 61.7634 54.4135 61.8977 54.5527C62.032 54.692 62.2152 54.7742 62.409 54.7823H64.9475C65.0489 54.7866 65.15 54.7704 65.245 54.7348C65.3399 54.6992 65.4265 54.6448 65.4998 54.575C65.573 54.5052 65.6313 54.4214 65.6711 54.3287C65.7109 54.2359 65.7314 54.1361 65.7314 54.0353C65.7314 53.9344 65.7109 53.8346 65.6711 53.7419C65.6313 53.6491 65.573 53.5653 65.4998 53.4955C65.4265 53.4257 65.3399 53.3714 65.245 53.3358C65.15 53.3001 65.0489 53.284 64.9475 53.2882Z" fill="black"/>
<path d="M64.9475 50.1339H62.409C62.2152 50.142 62.032 50.2243 61.8977 50.3635C61.7634 50.5027 61.6885 50.6881 61.6885 50.881C61.6885 51.0738 61.7634 51.2592 61.8977 51.3984C62.032 51.5377 62.2152 51.6199 62.409 51.628H64.9475C65.0489 51.6323 65.15 51.6161 65.245 51.5805C65.3399 51.5449 65.4265 51.4905 65.4998 51.4207C65.573 51.3509 65.6313 51.2671 65.6711 51.1744C65.7109 51.0816 65.7314 50.9818 65.7314 50.881C65.7314 50.7801 65.7109 50.6803 65.6711 50.5876C65.6313 50.4948 65.573 50.411 65.4998 50.3412C65.4265 50.2714 65.3399 50.2171 65.245 50.1815C65.15 50.1458 65.0489 50.1297 64.9475 50.1339Z" fill="black"/>
<path d="M64.9475 48.1484H62.409C62.2152 48.1566 62.032 48.2388 61.8977 48.378C61.7634 48.5172 61.6885 48.7026 61.6885 48.8955C61.6885 49.0884 61.7634 49.2738 61.8977 49.413C62.032 49.5522 62.2152 49.6344 62.409 49.6426H64.9475C65.0489 49.6468 65.15 49.6306 65.245 49.595C65.3399 49.5594 65.4265 49.505 65.4998 49.4353C65.573 49.3655 65.6313 49.2817 65.6711 49.1889C65.7109 49.0961 65.7314 48.9963 65.7314 48.8955C65.7314 48.7947 65.7109 48.6949 65.6711 48.6021C65.6313 48.5093 65.573 48.4255 65.4998 48.3557C65.4265 48.286 65.3399 48.2316 65.245 48.196C65.15 48.1604 65.0489 48.1442 64.9475 48.1484Z" fill="black"/>
<path d="M64.9475 46.1616H62.409C62.2152 46.1697 62.032 46.2519 61.8977 46.3912C61.7634 46.5304 61.6885 46.7158 61.6885 46.9086C61.6885 47.1015 61.7634 47.2869 61.8977 47.4261C62.032 47.5653 62.2152 47.6476 62.409 47.6557H64.9475C65.0489 47.6599 65.15 47.6438 65.245 47.6081C65.3399 47.5725 65.4265 47.5182 65.4998 47.4484C65.573 47.3786 65.6313 47.2948 65.6711 47.202C65.7109 47.1093 65.7314 47.0095 65.7314 46.9086C65.7314 46.8078 65.7109 46.708 65.6711 46.6152C65.6313 46.5225 65.573 46.4387 65.4998 46.3689C65.4265 46.2991 65.3399 46.2447 65.245 46.2091C65.15 46.1735 65.0489 46.1573 64.9475 46.1616Z" fill="black"/>
<path d="M64.9475 43.0072H62.4089C62.2094 43.0072 62.0181 43.086 61.877 43.2262C61.736 43.3664 61.6567 43.5566 61.6567 43.7549C61.6567 43.9532 61.736 44.1434 61.877 44.2837C62.0181 44.4239 62.2094 44.5027 62.4089 44.5027H64.9475C65.147 44.5027 65.3383 44.4239 65.4794 44.2837C65.6204 44.1434 65.6997 43.9532 65.6997 43.7549C65.6997 43.5566 65.6204 43.3664 65.4794 43.2262C65.3383 43.086 65.147 43.0072 64.9475 43.0072Z" fill="black"/>
<path d="M64.9475 41.0217H62.409C62.2152 41.0298 62.032 41.112 61.8977 41.2513C61.7634 41.3905 61.6885 41.5759 61.6885 41.7687C61.6885 41.9616 61.7634 42.147 61.8977 42.2862C62.032 42.4254 62.2152 42.5077 62.409 42.5158H64.9475C65.0489 42.52 65.15 42.5039 65.245 42.4682C65.3399 42.4326 65.4265 42.3783 65.4998 42.3085C65.573 42.2387 65.6313 42.1549 65.6711 42.0621C65.7109 41.9694 65.7314 41.8696 65.7314 41.7687C65.7314 41.6679 65.7109 41.5681 65.6711 41.4753C65.6313 41.3826 65.573 41.2988 65.4998 41.229C65.4265 41.1592 65.3399 41.1048 65.245 41.0692C65.15 41.0336 65.0489 41.0174 64.9475 41.0217Z" fill="black"/>
<path d="M64.9475 39.0348H62.409C62.2152 39.0429 62.032 39.1252 61.8977 39.2644C61.7634 39.4036 61.6885 39.589 61.6885 39.7819C61.6885 39.9747 61.7634 40.1601 61.8977 40.2993C62.032 40.4385 62.2152 40.5208 62.409 40.5289H64.9475C65.0489 40.5332 65.15 40.517 65.245 40.4814C65.3399 40.4457 65.4265 40.3914 65.4998 40.3216C65.573 40.2518 65.6313 40.168 65.6711 40.0753C65.7109 39.9825 65.7314 39.8827 65.7314 39.7819C65.7314 39.681 65.7109 39.5812 65.6711 39.4884C65.6313 39.3957 65.573 39.3119 65.4998 39.2421C65.4265 39.1723 65.3399 39.118 65.245 39.0823C65.15 39.0467 65.0489 39.0305 64.9475 39.0348Z" fill="black"/>
<path d="M69.5864 31.3476C69.5254 30.3678 69.1197 29.4406 68.4405 28.728C67.7613 28.0155 66.8517 27.5629 65.8708 27.4495C63.0648 27.1205 60.2417 26.9573 57.4162 26.9608H57.2465C57.2332 26.7337 57.2211 26.5079 57.2064 26.2808C57.106 24.5902 56.4033 22.9905 55.2242 21.7681C54.0452 20.5457 52.4669 19.7805 50.772 19.6096C42.8688 18.7968 34.9024 18.7968 26.9993 19.6096C25.3045 19.7806 23.7264 20.5458 22.5476 21.7682C21.3688 22.9906 20.6663 24.5904 20.5662 26.2808C19.8113 38.4153 19.8113 50.5847 20.5662 62.7192C20.6663 64.4096 21.3688 66.0094 22.5476 67.2318C23.7264 68.4542 25.3045 69.2194 26.9993 69.3904C30.9498 69.797 34.9187 70.0005 38.8903 70C42.8619 70.0005 46.8309 69.797 50.7813 69.3904C52.3032 69.2366 53.7351 68.6006 54.8657 67.5762C54.9387 67.5102 54.998 67.4306 55.0402 67.3419C55.0823 67.2532 55.1065 67.1571 55.1112 67.0592C55.116 66.9612 55.1013 66.8632 55.068 66.7709C55.0347 66.6785 54.9834 66.5936 54.9171 66.521C54.8508 66.4483 54.7707 66.3894 54.6815 66.3475C54.5922 66.3056 54.4956 66.2816 54.397 66.2769C54.2984 66.2721 54.1999 66.2867 54.107 66.3198C54.0141 66.3529 53.9287 66.4039 53.8556 66.4698C52.958 67.2805 51.8213 67.7817 50.6143 67.8989C42.8143 68.7024 34.9516 68.7024 27.1516 67.8989C25.8111 67.7639 24.5628 67.1586 23.6305 66.1917C22.6981 65.2248 22.1428 63.9593 22.0639 62.6223C21.3115 50.5479 21.3115 38.4388 22.0639 26.3645C22.143 25.0273 22.6984 23.7619 23.6307 22.7948C24.5629 21.8276 25.8111 21.2221 27.1516 21.0865C34.9517 20.2843 42.8142 20.2843 50.6143 21.0865C51.9551 21.2218 53.2036 21.8272 54.1361 22.7944C55.0686 23.7615 55.6242 25.0271 55.7034 26.3645C56.4545 38.4389 56.4545 50.5479 55.7034 62.6223C55.6664 63.2274 55.531 63.8226 55.3026 64.3847C55.2368 64.5665 55.2443 64.7666 55.3237 64.943C55.403 65.1194 55.548 65.2585 55.7282 65.3309C55.9084 65.4034 56.1099 65.4037 56.2903 65.3318C56.4708 65.2599 56.6162 65.1213 56.6961 64.9451C56.9852 64.2339 57.1566 63.4809 57.2038 62.7152C57.2185 62.4881 57.2305 62.2623 57.2439 62.0352H57.5111C60.3027 62.0346 63.0918 61.8714 65.8642 61.5465C66.8468 61.4342 67.7583 60.9816 68.4389 60.2681C69.1195 59.5547 69.5258 58.6258 69.5864 57.6444C70.1379 48.8874 70.1379 40.1046 69.5864 31.3476ZM68.0901 57.5555C68.0502 58.1858 67.7889 58.7821 67.3518 59.2404C66.9147 59.6987 66.3295 59.9898 65.6985 60.063C62.9524 60.386 60.1894 60.5461 57.4242 60.5424H57.3361C57.9213 49.8527 57.9213 39.1393 57.3361 28.4496H57.4229C60.1885 28.4478 62.9518 28.6079 65.6985 28.9291C66.3295 29.0022 66.9147 29.2933 67.3518 29.7516C67.7889 30.2099 68.0502 30.8063 68.0901 31.4366C68.6365 40.1344 68.6365 48.8576 68.0901 57.5555Z" fill="black"/>
<path d="M53.4533 27.8002C53.339 26.6844 52.8227 25.6473 51.9997 24.8801C51.1766 24.113 50.1023 23.6675 48.9748 23.6259C42.2838 23.3602 35.4952 23.3602 28.8002 23.6259C27.6729 23.6675 26.5988 24.1128 25.7757 24.8796C24.9527 25.6465 24.4363 26.6833 24.3217 27.7988C24.0946 29.8947 24.0946 32.0088 24.3217 34.1048C24.4107 34.9137 24.7096 35.6857 25.189 36.3453C25.6684 37.0049 26.312 37.5294 27.0566 37.8673C27.1472 37.9124 27.246 37.9389 27.347 37.9451C27.4481 37.9513 27.5494 37.9372 27.6448 37.9035C27.7403 37.8699 27.8279 37.8175 27.9025 37.7493C27.9771 37.6812 28.037 37.5989 28.0788 37.5071C28.1205 37.4154 28.1432 37.3163 28.1455 37.2157C28.1478 37.115 28.1296 37.015 28.0921 36.9215C28.0545 36.828 27.9984 36.743 27.927 36.6716C27.8556 36.6002 27.7704 36.5439 27.6766 36.506C27.1698 36.2757 26.7318 35.9185 26.4056 35.4694C26.0794 35.0203 25.876 34.4947 25.8154 33.9441C25.6003 31.9549 25.6003 29.9486 25.8154 27.9595C25.8924 27.2005 26.2431 26.4948 26.8028 25.9728C27.3625 25.4508 28.0934 25.1479 28.8603 25.12C35.5139 24.8544 42.2597 24.8544 48.912 25.12C49.6789 25.1477 50.4097 25.4506 50.9693 25.9726C51.5288 26.4946 51.8792 27.2005 51.9556 27.9595C52.172 29.949 52.172 31.9559 51.9556 33.9454C51.8787 34.7042 51.5281 35.4098 50.9687 35.9317C50.4093 36.4536 49.6787 36.7567 48.912 36.7849C42.7661 37.0333 36.5227 37.0505 30.3581 36.8407C30.2595 36.8373 30.1611 36.8532 30.0687 36.8876C29.9763 36.922 29.8916 36.9741 29.8195 37.041C29.7473 37.1079 29.6892 37.1883 29.6483 37.2775C29.6074 37.3668 29.5846 37.4632 29.5811 37.5612C29.5777 37.6592 29.5938 37.757 29.6283 37.8488C29.6629 37.9407 29.7153 38.0249 29.7826 38.0966C29.85 38.1683 29.9308 38.2261 30.0206 38.2668C30.1104 38.3074 30.2074 38.3301 30.306 38.3335C33.1571 38.4318 36.0243 38.4809 38.8915 38.4809C42.2611 38.4809 45.632 38.4132 48.9735 38.2777C50.1005 38.2358 51.1744 37.7904 51.9971 37.0235C52.8198 36.2567 53.3361 35.2201 53.4506 34.1048C53.6778 32.0093 53.6778 29.8956 53.4506 27.8002H53.4533Z" fill="black"/>
<path d="M49.0859 40.7853C42.2972 40.3018 35.4823 40.3018 28.6936 40.7853C27.6329 40.8565 26.6325 41.3009 25.8716 42.0388C25.1107 42.7767 24.639 43.7599 24.5411 44.8121C24.0267 50.296 24.0267 55.8156 24.5411 61.2995C24.6393 62.3515 25.1111 63.3343 25.872 64.072C26.6329 64.8096 27.6331 65.2538 28.6936 65.325C32.0765 65.5667 35.4821 65.6889 38.8891 65.6889C42.2961 65.6889 45.703 65.5667 49.0859 65.325C50.1464 65.2541 51.1468 64.8099 51.9078 64.0723C52.6687 63.3346 53.1405 62.3516 53.2384 61.2995C53.7515 55.8155 53.7515 50.2961 53.2384 44.8121C53.1405 43.7599 52.6688 42.7767 51.9079 42.0388C51.147 41.3009 50.1466 40.8565 49.0859 40.7853ZM51.7407 44.9503C51.8449 46.0553 51.9269 47.162 51.9865 48.2706C49.5522 48.2108 47.0965 48.1683 44.6622 48.1378C44.6315 46.0951 44.5794 44.0471 44.5072 42.0217C46.001 42.0802 47.4911 42.1625 48.9777 42.2688C49.6829 42.3148 50.3486 42.6092 50.855 43.0992C51.3614 43.5893 51.6755 44.2427 51.7407 44.9423V44.9503ZM25.7221 49.77C28.1725 49.7089 30.6456 49.6664 33.0972 49.6372C33.0732 51.9083 33.0732 54.198 33.0972 56.4678C30.6456 56.4412 28.1725 56.3987 25.7221 56.3349C25.6393 54.1475 25.6393 51.9521 25.7221 49.7647V49.77ZM34.6016 56.485C34.5763 54.206 34.5763 51.9056 34.6016 49.6253C37.4515 49.6027 40.3267 49.6027 43.1779 49.6253C43.2032 51.9056 43.2032 54.2046 43.1779 56.485C40.328 56.5089 37.4515 56.5089 34.6016 56.485ZM44.6809 49.6399C47.134 49.6664 49.6057 49.7089 52.056 49.7727C52.1389 51.9614 52.1389 54.1515 52.056 56.3429C49.6057 56.404 47.134 56.4465 44.6809 56.4757C44.7063 54.206 44.7063 51.9163 44.6809 49.6452V49.6399ZM42.9988 41.9726C43.071 44.0086 43.1244 46.0712 43.1565 48.1258C40.3187 48.1032 37.4555 48.1032 34.6177 48.1258C34.6497 46.0712 34.7018 44.0086 34.774 41.9726C36.1448 41.9328 37.5156 41.9124 38.8864 41.9115C40.2572 41.9106 41.628 41.931 42.9988 41.9726ZM26.0308 44.9449C26.0963 44.2455 26.4104 43.5922 26.9168 43.1022C27.4232 42.6122 28.0886 42.3177 28.7938 42.2714C30.2804 42.1643 31.7705 42.082 33.2642 42.0244C33.1934 44.0498 33.1413 46.0978 33.1106 48.1404C30.6749 48.1656 28.2193 48.2081 25.7849 48.2732C25.8446 47.1638 25.9266 46.057 26.0308 44.9529V44.9449ZM26.0308 61.1547C25.9266 60.0497 25.8446 58.9429 25.7849 57.8344C28.2193 57.8942 30.6749 57.9367 33.1106 57.9672C33.1413 60.0099 33.1934 62.0578 33.2642 64.0832C31.7705 64.023 30.2804 63.9407 28.7938 63.8362C28.0885 63.7896 27.423 63.4948 26.9167 63.0046C26.4103 62.5144 26.0963 61.8609 26.0308 61.1613V61.1547ZM34.77 64.1284C34.6978 62.0924 34.6457 60.0298 34.6137 57.9738C36.0326 57.9854 37.4577 57.9916 38.8891 57.9924C40.3205 57.9933 41.7456 57.9871 43.1645 57.9738C43.1324 60.0298 43.079 62.091 43.0068 64.1284C40.2679 64.2072 37.5263 64.2072 34.782 64.1284H34.77ZM51.738 61.1547C51.6726 61.8543 51.3585 62.5078 50.8521 62.998C50.3458 63.4882 49.6803 63.783 48.975 63.8296C47.4893 63.9358 45.9996 64.0181 44.5059 64.0766C44.5767 62.0512 44.6288 60.0019 44.6596 57.9606C47.0952 57.934 49.5496 57.8915 51.9839 57.8278C51.9242 58.9381 51.8422 60.0448 51.738 61.1481V61.1547Z" fill="black"/>
<path d="M47.5921 33.6997C46.6876 33.6997 46.3896 33.6652 45.6802 33.288C45.593 33.2372 45.4963 33.2044 45.396 33.1915C45.2958 33.1787 45.1939 33.186 45.0966 33.2132C44.9992 33.2403 44.9084 33.2867 44.8295 33.3496C44.7506 33.4124 44.6852 33.4904 44.6373 33.5789C44.5895 33.6674 44.56 33.7647 44.5508 33.8647C44.5415 33.9648 44.5527 34.0657 44.5835 34.1614C44.6144 34.2571 44.6644 34.3457 44.7304 34.4217C44.7965 34.4978 44.8773 34.5599 44.9681 34.6042C45.7029 35.0026 46.2186 35.1354 46.8385 35.1753V35.4741C46.8343 35.5749 46.8505 35.6755 46.8864 35.7698C46.9222 35.8641 46.9769 35.9503 47.0471 36.0231C47.1173 36.0959 47.2016 36.1538 47.2949 36.1934C47.3882 36.233 47.4886 36.2534 47.5901 36.2534C47.6915 36.2534 47.7919 36.233 47.8853 36.1934C47.9786 36.1538 48.0629 36.0959 48.1331 36.0231C48.2033 35.9503 48.2579 35.8641 48.2938 35.7698C48.3296 35.6755 48.3459 35.5749 48.3416 35.4741V35.1169C49.7191 34.8366 50.5582 33.8193 50.6998 32.8165C50.8334 31.9054 50.3925 30.6716 48.7438 30.1935C47.9274 29.9584 47.0229 29.6715 46.5059 29.3395C46.4343 29.2925 46.3791 29.2246 46.3478 29.1452C46.3165 29.0658 46.3106 28.9788 46.3308 28.8959C46.3749 28.6409 46.5887 28.3261 47.0617 28.2093C47.3655 28.1248 47.6833 28.1013 47.9964 28.1401C48.3094 28.1788 48.6117 28.2791 48.8854 28.4351C48.9685 28.4947 49.0629 28.5367 49.163 28.5587C49.263 28.5806 49.3665 28.582 49.4671 28.5627C49.5677 28.5434 49.6633 28.5038 49.7479 28.4464C49.8326 28.389 49.9045 28.315 49.9593 28.229C50.0141 28.1429 50.0506 28.0466 50.0665 27.946C50.0825 27.8454 50.0775 27.7426 50.052 27.644C50.0265 27.5454 49.981 27.453 49.9182 27.3725C49.8555 27.292 49.7768 27.2251 49.687 27.176C49.2763 26.9247 48.8194 26.7572 48.343 26.6833V26.4336C48.3348 26.2409 48.252 26.0588 48.112 25.9253C47.9719 25.7919 47.7854 25.7173 47.5914 25.7173C47.3974 25.7173 47.2109 25.7919 47.0709 25.9253C46.9308 26.0588 46.8481 26.2409 46.8399 26.4336V26.7324C46.7945 26.743 46.7477 26.7523 46.7063 26.7643C45.7336 27.0033 45.0055 27.7458 44.8532 28.6555C44.7842 29.026 44.8274 29.4086 44.9772 29.7547C45.1271 30.1008 45.3768 30.3949 45.6949 30.5999C46.2427 30.9519 47.0056 31.2507 48.3283 31.6332C48.9549 31.8151 49.2782 32.1724 49.2167 32.6147C49.1419 33.1393 48.5487 33.6997 47.5921 33.7051V33.6997Z" fill="black"/>
</svg>
