<svg width="89" height="89" viewBox="0 0 89 89" fill="none" xmlns="http://www.w3.org/2000/svg">
<rect width="89" height="89" rx="22" fill="#FFEFED"/>
<path d="M42.3385 22.4799C42.3851 22.9784 42.6087 23.4409 42.9655 23.7774C43.3224 24.1139 43.787 24.3001 44.2687 24.2997H44.3326C46.7165 24.2166 49.0915 24.6441 51.3098 25.5559C53.528 26.4676 55.5421 27.844 57.2269 29.5995C58.2337 30.6465 59.1137 31.8174 59.8474 33.0863L58.7507 33.2135C58.3302 33.2629 57.9295 33.4264 57.5889 33.6876C57.2483 33.9488 56.9797 34.2985 56.8102 34.7016C56.6406 35.1048 56.576 35.5472 56.6229 35.9845C56.6697 36.4218 56.8264 36.8386 57.0771 37.1931L57.8013 38.2154C57.9221 38.3605 58.0912 38.4527 58.2747 38.4737C58.4582 38.4946 58.6426 38.4427 58.7908 38.3283C58.939 38.2139 59.0402 38.0455 59.0741 37.8569C59.108 37.6682 59.072 37.4732 58.9735 37.3109L58.2506 36.29C58.1521 36.1513 58.0903 35.9881 58.0715 35.8167C58.0526 35.6454 58.0774 35.4719 58.1434 35.3137C58.2093 35.1555 58.3141 35.018 58.4472 34.9151C58.5803 34.8122 58.7371 34.7475 58.9018 34.7274L61.0939 34.4728C61.2121 34.4593 61.3254 34.416 61.4239 34.3466C61.5225 34.2773 61.6033 34.1841 61.6593 34.075C61.7154 33.9659 61.745 33.8443 61.7457 33.7206C61.7463 33.5969 61.7179 33.4749 61.663 33.3652C60.0212 30.0726 57.5163 27.3306 54.4381 25.4562C51.3599 23.5819 47.8342 22.6519 44.2687 22.7737C44.1487 22.7795 44.0311 22.737 43.9404 22.6551C43.8497 22.5731 43.7929 22.458 43.7816 22.3336L43.6657 21.0717C43.6598 21.0054 43.6668 20.9386 43.6866 20.8752C43.7063 20.8119 43.7382 20.7534 43.7803 20.7034C43.8221 20.654 43.873 20.614 43.9301 20.5859C43.9872 20.5577 44.0493 20.5419 44.1124 20.5395C48.3227 20.3826 52.4817 21.5409 56.0527 23.8649C59.6237 26.1889 62.443 29.572 64.1468 33.5778C64.2093 33.7266 64.316 33.8506 64.4512 33.9318C64.5865 34.0129 64.7432 34.0469 64.8983 34.0287L67.4629 33.7321C67.6281 33.7124 67.7953 33.7384 67.9478 33.8074C68.1002 33.8765 68.2324 33.9861 68.331 34.1253C68.4296 34.2645 68.4911 34.4283 68.5092 34.6001C68.5274 34.7719 68.5017 34.9457 68.4345 35.1038L64.9843 43.3067C64.918 43.4652 64.8126 43.6028 64.6788 43.7055C64.5451 43.8081 64.3876 43.8723 64.2224 43.8915C64.0571 43.9108 63.8899 43.8844 63.7376 43.815C63.5853 43.7456 63.4533 43.6356 63.3549 43.4963L60.6979 39.7496C60.5795 39.5961 60.4087 39.4961 60.221 39.4706C60.0334 39.445 59.8435 39.4959 59.6911 39.6126C59.5387 39.7292 59.4356 39.9026 59.4033 40.0964C59.371 40.2903 59.4121 40.4896 59.5179 40.6528L62.1749 44.3994C62.3965 44.7168 62.6874 44.975 63.0236 45.1527C63.3598 45.3304 63.7318 45.4226 64.1091 45.4218C64.2002 45.4218 64.2927 45.4218 64.3852 45.4055C64.8069 45.3588 65.2091 45.1963 65.5504 44.9345C65.8917 44.6727 66.1598 44.3212 66.3271 43.916L69.7773 35.7131C69.947 35.3102 70.0117 34.8679 69.9649 34.4307C69.9181 33.9935 69.7614 33.5768 69.5106 33.2225C69.2599 32.8682 68.9238 32.5887 68.5362 32.4122C68.1486 32.2357 67.7232 32.1684 67.3027 32.2169L65.2669 32.4526C63.3903 28.2967 60.3789 24.8068 56.608 22.4176C52.8371 20.0283 48.4733 18.8454 44.0603 19.0162C43.7975 19.0266 43.5395 19.0926 43.3021 19.2103C43.0646 19.328 42.8528 19.4948 42.6795 19.7005C42.5063 19.9062 42.3752 20.1466 42.2944 20.4068C42.2136 20.667 42.1847 20.9416 42.2096 21.2138L42.3385 22.4799Z" fill="black"/>
<path d="M47.6591 67.5241C47.6111 67.0142 47.3783 66.5425 47.008 66.2045C46.6376 65.8666 46.1575 65.6877 45.665 65.7042C42.5616 65.8038 39.4887 65.0422 36.7622 63.498C34.0357 61.9538 31.7539 59.6825 30.1515 56.9177L31.2468 56.7904C31.6677 56.7417 32.0688 56.5786 32.4098 56.3176C32.7509 56.0565 33.0198 55.7068 33.1895 55.3034C33.3593 54.9001 33.4239 54.4574 33.3769 54.0198C33.3299 53.5823 33.173 53.1653 32.9218 52.8109L27.807 45.6018C27.5561 45.247 27.2196 44.9673 26.8316 44.7907C26.4435 44.6141 26.0175 44.5469 25.5965 44.5959C25.1756 44.6449 24.7744 44.8084 24.4336 45.0698C24.0927 45.3313 23.8241 45.6815 23.6548 46.0852L20.2046 54.2881C20.035 54.6912 19.9704 55.1335 20.0173 55.5707C20.0641 56.0079 20.2208 56.4246 20.4715 56.779C20.7222 57.1334 21.0582 57.413 21.4458 57.5897C21.8333 57.7663 22.2587 57.8339 22.6793 57.7857L24.7124 57.5487C24.834 57.8195 24.9612 58.0876 25.094 58.353C25.1833 58.5326 25.3376 58.6679 25.5228 58.7292C25.7081 58.7906 25.9092 58.7729 26.0819 58.68C26.2547 58.5872 26.3848 58.4268 26.4438 58.2342C26.5028 58.0416 26.4858 57.8325 26.3965 57.653C26.1946 57.2468 26.0058 56.8405 25.8325 56.4262C25.7699 56.2772 25.663 56.1529 25.5275 56.0716C25.3921 55.9902 25.2352 55.956 25.0797 55.9739L22.5178 56.2718C22.3524 56.2915 22.185 56.2655 22.0325 56.1964C21.8799 56.1273 21.7476 56.0175 21.6489 55.8782C21.5501 55.7389 21.4885 55.575 21.4703 55.4031C21.452 55.2311 21.4777 55.0572 21.5448 54.8988L24.995 46.6959C25.0614 46.5374 25.1667 46.3999 25.3005 46.2972C25.4343 46.1945 25.5917 46.1303 25.757 46.1111C25.9222 46.0919 26.0894 46.1183 26.2417 46.1877C26.394 46.2571 26.526 46.367 26.6244 46.5063L31.734 53.714C31.8326 53.8526 31.8944 54.0157 31.9133 54.187C31.9321 54.3583 31.9073 54.5317 31.8414 54.6898C31.7754 54.848 31.6706 54.9854 31.5374 55.0881C31.4043 55.1909 31.2475 55.2554 31.0827 55.2752L28.8907 55.5312C28.7726 55.5449 28.6594 55.5884 28.5611 55.6578C28.4627 55.7272 28.3821 55.8204 28.3262 55.9295C28.2702 56.0385 28.2407 56.1601 28.2401 56.2837C28.2396 56.4073 28.2679 56.5292 28.3228 56.6388C29.9649 59.931 32.4699 62.6727 35.5481 64.5467C38.6263 66.4208 42.1519 67.3507 45.7171 67.2289C45.8372 67.2231 45.9547 67.2656 46.0454 67.3476C46.1361 67.4295 46.193 67.5446 46.2042 67.669L46.3202 68.931C46.3261 68.9972 46.319 69.0641 46.2993 69.1274C46.2796 69.1907 46.2477 69.2492 46.2055 69.2993C46.1638 69.3486 46.1128 69.3886 46.0557 69.4168C45.9986 69.4449 45.9366 69.4607 45.8734 69.4631C42.9808 69.5763 40.097 69.0664 37.403 67.9654C34.7091 66.8643 32.2632 65.196 30.2192 63.0652C29.3596 62.1692 28.5752 61.1984 27.8748 60.1634C27.7614 60.0015 27.5914 59.8925 27.4014 59.8598C27.2113 59.8272 27.0166 59.8736 26.8592 59.989C26.7018 60.1045 26.5944 60.2796 26.5602 60.4767C26.526 60.6738 26.5678 60.8769 26.6765 61.0422C27.4279 62.148 28.2689 63.1849 29.1903 64.1416C31.2749 66.3146 33.7513 68.0389 36.4777 69.2157C39.204 70.3925 42.1269 70.9989 45.0789 71C45.3603 71 45.6416 70.9946 45.9229 70.9837C46.1857 70.9731 46.4437 70.907 46.6811 70.7892C46.9185 70.6715 47.1304 70.5048 47.3037 70.2991C47.477 70.0934 47.6082 69.8532 47.6892 69.593C47.7703 69.3329 47.7995 69.0583 47.775 68.7861L47.6591 67.5241Z" fill="black"/>
<path d="M31.8628 43.6696C34.2091 43.6696 36.5027 42.9463 38.4535 41.5911C40.4044 40.2359 41.9248 38.3097 42.8227 36.0561C43.7205 33.8025 43.9553 31.3227 43.4975 28.9303C43.0397 26.538 41.9097 24.3405 40.2506 22.6157C38.5914 20.891 36.4775 19.7166 34.1763 19.2408C31.8751 18.7651 29.4898 19.0096 27.3222 19.9432C25.1546 20.8768 23.3019 22.4578 21.9986 24.4861C20.6953 26.5144 19.9997 28.8989 20 31.3382C20.0038 34.6077 21.2549 37.7422 23.4788 40.054C25.7027 42.3657 28.7179 43.666 31.8628 43.6696ZM31.8628 20.5274C33.9192 20.5274 35.9293 21.1613 37.6392 22.349C39.349 23.5367 40.6817 25.2248 41.4687 27.1999C42.2557 29.175 42.4617 31.3484 42.0606 33.4452C41.6595 35.542 40.6694 37.468 39.2154 38.9798C37.7614 40.4916 35.9089 41.5212 33.892 41.9384C31.8752 42.3557 29.7846 42.1418 27.8847 41.3239C25.9848 40.5059 24.3608 39.1207 23.2182 37.3432C22.0755 35.5658 21.4655 33.476 21.4653 31.3382C21.468 28.4721 22.5643 25.7242 24.5136 23.6974C26.4629 21.6707 29.1059 20.5306 31.8628 20.5274Z" fill="black"/>
<path d="M31.8627 39.9121C33.4942 39.9121 35.089 39.4091 36.4454 38.4668C37.8019 37.5245 38.8592 36.1851 39.4834 34.6181C40.1077 33.0511 40.271 31.3269 39.9526 29.6634C39.6342 27.9999 38.8485 26.4719 37.6948 25.2727C36.5411 24.0735 35.0712 23.2569 33.4711 22.9262C31.871 22.5954 30.2124 22.7654 28.7053 23.4147C27.1981 24.0639 25.9099 25.1633 25.0037 26.5736C24.0975 27.984 23.614 29.6421 23.6143 31.3382C23.617 33.6115 24.487 35.7908 26.0333 37.3982C27.5796 39.0055 29.6761 39.9096 31.8627 39.9121ZM31.8627 24.2849C33.2043 24.2849 34.5158 24.6985 35.6313 25.4733C36.7467 26.2482 37.6162 27.3496 38.1296 28.6382C38.643 29.9267 38.7773 31.3447 38.5156 32.7126C38.2538 34.0805 37.6078 35.3371 36.6592 36.3233C35.7105 37.3096 34.5019 37.9812 33.186 38.2533C31.8702 38.5254 30.5064 38.3857 29.2669 37.852C28.0274 37.3182 26.968 36.4144 26.2227 35.2547C25.4773 34.095 25.0795 32.7316 25.0795 31.3368C25.0819 29.4673 25.7974 27.6751 27.0689 26.3531C28.3405 25.0312 30.0644 24.2874 31.8627 24.2849Z" fill="black"/>
<path d="M28.8827 35.552C29.7371 36.0314 30.3258 36.1817 31.0682 36.2291V36.6976C31.064 36.8003 31.0799 36.9028 31.1148 36.999C31.1498 37.0952 31.2031 37.1831 31.2715 37.2573C31.3399 37.3315 31.4221 37.3905 31.5131 37.4309C31.6041 37.4712 31.7019 37.492 31.8008 37.492C31.8997 37.492 31.9976 37.4712 32.0886 37.4309C32.1795 37.3905 32.2617 37.3315 32.3301 37.2573C32.3986 37.1831 32.4519 37.0952 32.4868 36.999C32.5218 36.9028 32.5376 36.8003 32.5335 36.6976V36.1736C34.0964 35.8824 35.0472 34.7003 35.2035 33.5345C35.3858 32.1804 34.5523 31.0119 33.074 30.565C32.1414 30.282 31.1073 29.9395 30.5094 29.5386C30.4095 29.4696 30.3321 29.3706 30.2874 29.2548C30.2427 29.139 30.233 29.0118 30.2594 28.8901C30.3141 28.5488 30.5837 28.1304 31.1711 27.9774C31.3913 27.9211 31.6165 27.8879 31.8432 27.8786H31.8549C32.3838 27.8496 32.9084 27.9915 33.3566 28.2848C33.5121 28.4062 33.7075 28.4584 33.9 28.4299C34.0925 28.4015 34.2662 28.2947 34.3829 28.1331C34.4997 27.9715 34.5499 27.7683 34.5226 27.5682C34.4952 27.3681 34.3925 27.1875 34.2371 27.0661C33.7273 26.7051 33.1418 26.4762 32.5295 26.3986V25.9924C32.5216 25.7959 32.4409 25.6103 32.3044 25.4742C32.1679 25.3381 31.986 25.2621 31.7969 25.2621C31.6078 25.2621 31.426 25.3381 31.2894 25.4742C31.1529 25.6103 31.0723 25.7959 31.0643 25.9924V26.446C30.9835 26.4636 30.9015 26.4812 30.8181 26.5015C29.7631 26.7723 28.9751 27.6145 28.8097 28.6423C28.7353 29.0572 28.7812 29.4859 28.9414 29.8737C29.1016 30.2616 29.369 30.5913 29.7097 30.8209C30.3193 31.2272 31.1737 31.5806 32.6598 32.0301C33.4308 32.2644 33.832 32.7356 33.7486 33.326C33.6275 34.2264 32.6507 34.7179 31.795 34.722C30.8064 34.7288 30.4144 34.6909 29.5808 34.221C29.4961 34.1736 29.4033 34.144 29.3076 34.1339C29.212 34.1238 29.1153 34.1334 29.0232 34.1621C28.9311 34.1909 28.8454 34.2382 28.7709 34.3014C28.6964 34.3646 28.6345 34.4424 28.589 34.5304C28.5434 34.6184 28.5149 34.7149 28.5052 34.8144C28.4955 34.9138 28.5047 35.0143 28.5324 35.11C28.56 35.2058 28.6055 35.2949 28.6663 35.3724C28.7271 35.4499 28.8019 35.5141 28.8866 35.5615L28.8827 35.552Z" fill="black"/>
<path d="M69.1988 48.6579C69.1691 48.4815 69.0804 48.3216 68.9484 48.2064C68.8164 48.0912 68.6496 48.0282 68.4772 48.0283H50.2923C50.12 48.0282 49.9532 48.0912 49.8212 48.2064C49.6892 48.3216 49.6005 48.4815 49.5708 48.6579C48.5028 54.9991 48.5028 61.4849 49.5708 67.8261C49.6005 68.0026 49.6891 68.1627 49.8211 68.2781C49.953 68.3935 50.1199 68.4569 50.2923 68.457H68.4772C68.6497 68.4569 68.8165 68.3935 68.9485 68.2781C69.0805 68.1627 69.1691 68.0026 69.1988 67.8261C70.2668 61.4849 70.2668 54.9991 69.1988 48.6579ZM61.5899 49.5503V56.8622L59.7755 55.6733C59.6584 55.5972 59.523 55.5568 59.3848 55.5568C59.2466 55.5568 59.1112 55.5972 58.994 55.6733L57.1797 56.8622V49.5503H61.5899ZM67.8573 66.9378H50.9123C50.0098 61.1813 50.0098 55.3108 50.9123 49.5543H55.7145V58.2461C55.7146 58.3823 55.7498 58.516 55.8165 58.6333C55.8831 58.7506 55.9788 58.8472 56.0936 58.913C56.2084 58.9788 56.338 59.0115 56.469 59.0075C56.6 59.0036 56.7276 58.9632 56.8385 58.8906L59.3848 57.221L61.9311 58.8906C62.0484 58.9664 62.1837 59.0068 62.3218 59.007C62.5161 59.007 62.7024 58.9269 62.8399 58.7842C62.9774 58.6416 63.0548 58.448 63.0551 58.2461V49.5543H67.8573C68.7598 55.3108 68.7598 61.1813 67.8573 66.9378Z" fill="black"/>
</svg>
