<?xml version="1.0" encoding="UTF-8" standalone="no"?>
<svg
   width="18"
   height="16"
   viewBox="0 0 18 16"
   fill="#CDB010"
   version="1.1"
   id="svg12"
   sodipodi:docname="filled-star.svg"
   inkscape:version="1.2.2 (732a01da63, 2022-12-09)"
   xmlns:inkscape="http://www.inkscape.org/namespaces/inkscape"
   xmlns:sodipodi="http://sodipodi.sourceforge.net/DTD/sodipodi-0.dtd"
   xmlns="http://www.w3.org/2000/svg"
   xmlns:svg="http://www.w3.org/2000/svg">
  <defs
     id="defs16" />
  <sodipodi:namedview
     id="namedview14"
     pagecolor="#ffffff"
     bordercolor="#000000"
     borderopacity="0.25"
     inkscape:showpageshadow="2"
     inkscape:pageopacity="0.0"
     inkscape:pagecheckerboard="0"
     inkscape:deskcolor="#d1d1d1"
     showgrid="false"
     inkscape:zoom="26.15625"
     inkscape:cx="12.195938"
     inkscape:cy="14.222222"
     inkscape:window-width="1920"
     inkscape:window-height="1017"
     inkscape:window-x="-8"
     inkscape:window-y="-8"
     inkscape:window-maximized="1"
     inkscape:current-layer="svg12" />
  <path
     d="M9.01562 1.20312L11.1562 5.67188L16.0469 6.39062L12.5156 9.92188L12.625 10.625L13.3438 14.8438L9.01562 12.5312L4.6875 14.8438L5.40625 10.625L5.51562 9.92188L1.98438 6.39062L6.85938 5.67188L7.1875 5L9.01562 1.20312ZM9.01562 0.25C8.78646 0.25 8.57812 0.307292 8.39062 0.421875C8.20312 0.536458 8.0625 0.692708 7.96875 0.890625L6.15625 4.65625L1.98438 5.26562C1.77604 5.29688 1.58854 5.38021 1.42188 5.51562C1.25521 5.65104 1.13542 5.82292 1.0625 6.03125C0.916667 6.45833 1.01042 6.83854 1.34375 7.17188L4.39062 10.2188L3.6875 14.4531C3.64583 14.6615 3.66667 14.8646 3.75 15.0625C3.84375 15.2604 3.97917 15.4219 4.15625 15.5469C4.1875 15.5677 4.21875 15.5885 4.25 15.6094C4.29167 15.6302 4.32812 15.6458 4.35938 15.6562C4.40104 15.6771 4.4375 15.6927 4.46875 15.7031C4.51042 15.7135 4.54688 15.724 4.57812 15.7344C4.61979 15.7448 4.66146 15.75 4.70312 15.75C4.74479 15.75 4.78646 15.75 4.82812 15.75C5.02604 15.75 5.20833 15.7031 5.375 15.6094L9.01562 13.6562L12.6406 15.6094C12.7344 15.6615 12.8281 15.6979 12.9219 15.7188C13.0156 15.7396 13.1094 15.75 13.2031 15.75C13.4531 15.75 13.6771 15.6823 13.875 15.5469C14.0521 15.4219 14.1823 15.2604 14.2656 15.0625C14.3594 14.8646 14.3854 14.6615 14.3438 14.4531L13.6406 10.2188L16.6875 7.17188C17.0208 6.83854 17.1146 6.45833 16.9688 6.03125C16.8958 5.82292 16.776 5.65104 16.6094 5.51562C16.4427 5.38021 16.2552 5.29688 16.0469 5.26562L11.875 4.65625L10.0625 0.890625C10.0417 0.838542 10.0156 0.791667 9.98438 0.75C9.95312 0.708333 9.91667 0.666667 9.875 0.625C9.84375 0.583333 9.80729 0.546875 9.76562 0.515625C9.72396 0.473958 9.67708 0.442708 9.625 0.421875C9.58333 0.390625 9.53646 0.364583 9.48438 0.34375C9.44271 0.322917 9.39583 0.307292 9.34375 0.296875C9.29167 0.276042 9.23438 0.265625 9.17188 0.265625C9.11979 0.255208 9.06771 0.25 9.01562 0.25Z"
     fill="#CDB010"
     id="path10" />
  <path
     style="fill:#cdb010;fill-opacity:1;stroke-width:0.0191159"
     d="m 4.7094541,14.774402 c 0.0238,-0.118025 0.7025933,-4.128633 0.7581483,-4.47947 L 5.5264663,9.9231983 3.7646172,8.161272 2.0027681,6.3993457 2.0670949,6.3881858 C 2.1024747,6.3820481 3.1937873,6.2210948 4.4922342,6.0305122 6.209453,5.7784631 6.8589416,5.6764379 6.8746703,5.6562663 6.8865632,5.6410137 7.37251,4.6396875 7.9545518,3.4310968 l 1.0582578,-2.1974377 0.046145,0.090458 c 0.02538,0.049752 0.5054256,1.0492827 1.0667684,2.2211789 0.561344,1.1718964 1.022374,2.1320495 1.024512,2.1336736 0.0021,0.00162 1.070554,0.1593014 2.374257,0.3503937 1.303704,0.1910926 2.399318,0.3525127 2.434697,0.3587114 l 0.06433,0.011271 -1.759472,1.7609005 -1.759472,1.7609008 0.04776,0.305854 c 0.02627,0.16822 0.210927,1.263973 0.410357,2.435008 0.199431,1.171034 0.360111,2.134851 0.357067,2.141815 -0.003,0.007 -0.968976,-0.502583 -2.146515,-1.132326 -1.9100978,-1.021513 -2.1463188,-1.143017 -2.1904891,-1.126709 -0.044547,0.01645 -3.9348951,2.088338 -4.1819709,2.227202 l -0.102448,0.05758 z"
     id="path398" />
  <path
     style="fill:#cdb010;fill-opacity:1;stroke-width:0.0191159"
     d=""
     id="path400" />
  <path
     style="fill:#cdb010;fill-opacity:1;stroke-width:0.0191159"
     d=""
     id="path402" />
  <path
     style="fill:#cdb010;fill-opacity:1;stroke-width:0.0191159"
     d=""
     id="path404" />
  <path
     style="fill:#cdb010;fill-opacity:1;stroke-width:0.0191159"
     d="M 4.520908,15.707364 C 4.320532,15.647644 4.1687067,15.554051 4.0047486,15.389177 3.8225275,15.205937 3.7399759,15.055972 3.6946315,14.82581 L 3.6631383,14.665954 4.0319815,12.43948 4.4008247,10.213005 2.7965388,8.6047102 C 1.0748564,6.8787259 1.1208957,6.9298823 1.0413936,6.6544887 0.9943291,6.4914583 1.0092852,6.2201709 1.0756376,6.0333412 1.193818,5.7005779 1.4601484,5.4367128 1.7894272,5.3261588 1.8633718,5.3013322 2.6803282,5.1741802 4.0164284,4.9795456 5.1770462,4.8104744 6.1358023,4.6691041 6.1469974,4.6653897 6.1581924,4.6616753 6.574019,3.8125935 7.0710564,2.7785415 7.5680937,1.7444894 8.0019449,0.85244605 8.03517,0.79622285 8.1225302,0.64839339 8.3242319,0.46579578 8.4906617,0.3838731 8.6832512,0.2890737 8.8739374,0.25126303 9.0832759,0.26636509 9.4041661,0.28951469 9.6423276,0.4002649 9.8567346,0.62604011 9.9689298,0.74418395 10.008892,0.80694777 10.127545,1.051374 c 0.07656,0.157706 0.499313,1.0351254 0.939458,1.9498207 l 0.800265,1.6630825 2.118935,0.309103 c 1.306019,0.1905177 2.167858,0.3245941 2.246459,0.3494816 0.07014,0.022208 0.190809,0.081692 0.268158,0.1321857 0.500528,0.3267481 0.668943,0.9865011 0.373948,1.4649047 -0.03542,0.057438 -0.694904,0.7328348 -1.652611,1.6924835 l -1.593674,1.5969033 0.365198,2.188043 c 0.400639,2.400386 0.39061,2.313856 0.297807,2.569524 -0.14244,0.392419 -0.45204,0.664126 -0.853017,0.748616 -0.180385,0.03801 -0.424758,0.02561 -0.589601,-0.02993 -0.06563,-0.02211 -0.951222,-0.48872 -1.967973,-1.036909 -1.0167515,-0.54819 -1.8572411,-0.996371 -1.8677548,-0.995958 -0.010514,4.13e-4 -0.8596229,0.452149 -1.8869093,1.00386 -1.0272864,0.55171 -1.917609,1.018125 -1.9784946,1.036477 -0.1653662,0.04985 -0.4832298,0.0571 -0.6268303,0.0143 z m 2.3656273,-2.026218 c 1.1749301,-0.627604 2.1282709,-1.143753 2.1185352,-1.146999 -0.00974,-0.0032 -0.3129778,0.150585 -0.6738711,0.341845 -0.8892433,0.471266 -2.9172721,1.553319 -3.2941624,1.757599 -0.1682198,0.09118 -0.30838,0.159524 -0.3114672,0.151882 -0.00309,-0.0076 0.085869,-0.550403 0.1976805,-1.206135 0.1118115,-0.655733 0.2964209,-1.74708 0.410243,-2.425216 L 5.5404425,9.921147 3.7834388,8.1624851 2.0264351,6.4038232 3.9427276,6.1209023 C 6.1637974,5.7929839 6.7507852,5.7025973 6.7385745,5.6903866 6.7337311,5.6855432 5.6582635,5.8394489 4.3486463,6.0323991 L 1.9675242,6.383218 3.7370462,8.1528168 5.5065682,9.9224157 5.440086,10.342331 c -0.036565,0.230953 -0.2217795,1.330346 -0.4115875,2.443094 -0.1898079,1.112748 -0.3451054,2.031948 -0.3451054,2.042667 0,0.01072 0.015054,0.01379 0.033453,0.0068 0.018399,-0.007 0.9947594,-0.526161 2.1696894,-1.153765 z m 6.4563557,1.130782 c 0,-0.01736 -0.155128,-0.942016 -0.344729,-2.054794 -0.189602,-1.112779 -0.37356,-2.201802 -0.408796,-2.420052 L 12.525299,9.9402628 14.295287,8.1680413 C 15.26878,7.1933194 16.06134,6.3922844 16.056532,6.3879637 16.051724,6.3836429 14.951016,6.2191914 13.610514,6.022516 12.270012,5.8258407 11.168042,5.6591337 11.161691,5.652056 11.155341,5.6449784 10.675023,4.6456392 10.09432,3.4313023 9.5136159,2.2169654 9.0319759,1.2165811 9.0240088,1.2082262 9.0130707,1.1967558 7.301873,4.7085632 7.2665252,4.8150239 c -0.00389,0.011713 0.00599,0.00839 0.021958,-0.00738 C 7.3144291,4.7820181 7.7383274,3.9108976 8.6930906,1.921147 8.8671404,1.5584229 9.0105608,1.2600083 9.0118027,1.2580034 c 0.00124,-0.00201 0.4794709,0.9904055 1.0627303,2.2053564 0.772851,1.6098745 1.070842,2.2126951 1.098705,2.2226193 0.02103,0.00749 1.115667,0.1720346 2.432533,0.3656558 l 2.394302,0.3520382 -1.749141,1.7492177 c -1.282646,1.282703 -1.74914,1.7606859 -1.74914,1.7922183 0,0.02365 0.0953,0.6085789 0.211774,1.2998419 0.116476,0.691263 0.297121,1.763395 0.401434,2.382517 0.104313,0.619122 0.189659,1.133749 0.189659,1.143616 0,0.0099 -0.109677,-0.03989 -0.243727,-0.110576 -0.407269,-0.21475 -2.045104,-1.085419 -2.614098,-1.389649 -0.6893367,-0.368574 -1.3860329,-0.727543 -1.3948009,-0.718663 -0.00743,0.0075 4.2528629,2.289406 4.2765209,2.290581 0.0079,3.91e-4 0.01434,-0.01349 0.01434,-0.03085 z M 6.8291517,5.6743172 c -0.013142,-0.0053 -0.034647,-0.0053 -0.04779,0 -0.013142,0.0053 -0.00239,0.00964 0.023895,0.00964 0.026284,0 0.037037,-0.00434 0.023895,-0.00964 z M 7.05593,5.3118188 C 7.150228,5.1159952 7.2229721,4.9513673 7.2175836,4.9459787 c -0.00979,-0.00979 -0.3549791,0.6771221 -0.3549791,0.7063992 0,0.04864 0.038942,-0.019959 0.1933255,-0.3405591 z"
     id="path406" />
  <path
     style="fill:#cdb010;fill-opacity:1;stroke-width:0.0191159"
     d="M 4.5328315,15.713042 C 4.2431239,15.631558 3.9187573,15.368901 3.7894803,15.111111 3.7124349,14.957475 3.663075,14.733647 3.6777684,14.60454 3.6837511,14.551971 3.848727,13.542211 4.0443816,12.360629 L 4.400117,10.212296 2.7961849,8.6043561 C 1.0822806,6.8861687 1.1220805,6.930252 1.0436393,6.6631971 0.9736072,6.4247715 1.0269316,6.0653901 1.16749,5.8285022 1.300211,5.6048227 1.5428513,5.4089464 1.7900054,5.325964 1.8644537,5.3009678 2.6741443,5.1745317 4.004281,4.9801969 5.157582,4.811698 6.1138858,4.6738351 6.1294004,4.6738351 c 0.017641,0 0.087695,-0.1235347 0.1869949,-0.3297491 C 6.4037276,4.162724 6.8167769,3.3046595 7.2342824,2.437276 7.651788,1.5698925 8.0191881,0.81972368 8.0507273,0.77023423 8.0822664,0.72074477 8.1629272,0.62893813 8.2299735,0.56621945 8.5883275,0.23099695 9.1364523,0.16558788 9.5770609,0.40546824 c 0.1338818,0.0728892 0.3153709,0.23598992 0.3996609,0.35916736 0.028778,0.042055 0.1886462,0.3603345 0.3552632,0.7072879 0.166616,0.3469534 0.379845,0.7899642 0.473842,0.9844684 0.094,0.1945042 0.199437,0.413859 0.234312,0.4874552 0.03487,0.073596 0.235182,0.4905955 0.445126,0.9266653 l 0.381718,0.7928541 0.29351,0.04293 c 0.16143,0.023611 0.796735,0.1164932 1.411789,0.206404 2.869855,0.4195263 2.635848,0.3790306 2.857826,0.4945554 0.157769,0.082108 0.365172,0.2934742 0.452673,0.4613227 0.174592,0.3349105 0.185359,0.6612081 0.03235,0.9802863 -0.05717,0.119223 -0.17725,0.2443607 -1.674087,1.7446373 l -1.612497,1.6162018 0.365204,2.18786 c 0.399477,2.393187 0.390319,2.314692 0.29928,2.565237 -0.143726,0.395541 -0.453224,0.668156 -0.854557,0.752721 -0.17996,0.03792 -0.424667,0.02564 -0.588447,-0.02954 -0.065,-0.0219 -0.948828,-0.487082 -1.964062,-1.033746 -1.0152344,-0.546664 -1.8563891,-0.993935 -1.8692327,-0.993935 -0.021718,0 -0.5223155,0.265228 -2.1445668,1.136237 -1.441389,0.773902 -1.5910398,0.852297 -1.7013142,0.89124 -0.1533697,0.05416 -0.4910721,0.06859 -0.6380168,0.02726 z m 1.2401673,-1.437448 c 0.5624851,-0.300578 1.5001195,-0.801991 2.083632,-1.114251 0.5835126,-0.31226 1.0810235,-0.578346 1.10558,-0.591302 0.024556,-0.01296 0.041171,-0.02703 0.036922,-0.03128 -0.010806,-0.01081 -2.1864745,1.139253 -3.8091681,2.013526 -0.2523298,0.13595 -0.461293,0.24095 -0.4643627,0.233333 -0.00307,-0.0076 0.1031455,-0.653625 0.2360341,-1.435575 0.1328887,-0.78195 0.3174419,-1.873339 0.4101186,-2.425311 L 5.5402573,9.921147 3.7832717,8.1624474 2.0262859,6.4037477 3.6941465,6.1577673 C 5.8967518,5.8329214 6.6493157,5.7175075 6.6120044,5.7102822 6.5950824,5.7070054 6.1090609,5.7737101 5.5319566,5.8585149 4.2861194,6.0415895 3.9167167,6.096112 3.5842294,6.1459926 3.4475508,6.1664975 3.0346476,6.2274718 2.6666667,6.2814908 2.2986858,6.3355101 1.9936766,6.3833327 1.9888684,6.3877635 c -0.00481,0.00443 0.7848834,0.8017163 1.7548699,1.7717454 l 1.7636121,1.7636894 -0.058833,0.3717337 c -0.032358,0.204454 -0.2177489,1.305272 -0.4119788,2.446261 -0.1942299,1.140989 -0.3531452,2.081695 -0.3531452,2.090456 0,0.02571 0.02045,0.01527 1.0896054,-0.556055 z m 7.5698922,0.538513 c 0,-0.01616 -0.162725,-0.986053 -0.361613,-2.155317 -0.306973,-1.804708 -0.426131,-2.522973 -0.446867,-2.6936476 -0.0025,-0.020362 0.655336,-0.6931206 1.764275,-1.8043665 C 15.271207,7.1862318 16.058303,6.3861892 16.04779,6.3829033 16.037276,6.3796177 14.936201,6.2167685 13.600956,6.0210164 12.265711,5.8252641 11.167945,5.6592723 11.161476,5.6521455 11.155008,5.6450187 10.77314,4.8520908 10.312883,3.8900836 9.8526253,2.9280765 9.3993862,1.9818399 9.3056849,1.7873357 9.2119838,1.5928315 9.113106,1.3842294 9.0859569,1.3237754 9.0588079,1.2633214 9.0291676,1.213859 9.0200897,1.213859 c -0.00908,0 -0.016505,0.00382 -0.016505,0.00848 0,0.011269 1.6002383,3.3451751 1.9060063,3.9709385 0.18553,0.3796921 0.248994,0.4928048 0.280401,0.4997661 0.02233,0.00495 1.113243,0.1666515 2.424258,0.3593395 1.311014,0.1926878 2.381983,0.3520646 2.379927,0.3541706 -0.0021,0.00211 -0.788681,0.7907831 -1.74806,1.7526157 -1.150514,1.1534565 -1.744325,1.7618225 -1.744325,1.7870796 0,0.036397 0.06863,0.44831 0.583211,3.50045 0.121298,0.71946 0.218193,1.314965 0.215321,1.323344 -0.0054,0.01586 -0.298948,-0.137648 -2.289571,-1.197463 -1.2896176,-0.686598 -1.9323588,-1.021167 -1.9020309,-0.990074 0.010514,0.01078 0.3502987,0.196681 0.7550777,0.413117 0.4047782,0.216435 1.3467142,0.720305 2.0931892,1.11971 0.746476,0.399406 1.36368,0.726634 1.371565,0.727174 0.0079,5.41e-4 0.01434,-0.01224 0.01434,-0.0284 z M 6.7144564,5.6934331 c -0.013142,-0.0053 -0.034648,-0.0053 -0.04779,0 -0.013142,0.0053 -0.00239,0.00964 0.023895,0.00964 0.026284,0 0.037037,-0.00434 0.023895,-0.00964 z M 7.0551327,5.3113684 C 7.1493741,5.1152973 7.222102,4.9504971 7.2167505,4.9451456 c -0.009,-0.009 -0.354146,0.6835739 -0.354146,0.7106229 0,0.044165 0.04112,-0.029391 0.1925282,-0.3444001 z M 7.5943557,4.1985835 C 8.3717006,2.5955751 9.0059177,1.2671682 8.997778,1.2590284 8.987204,1.2484545 8.9328828,1.3589951 8.0242286,3.2401434 7.337202,4.6624656 7.2393566,4.8710203 7.2965467,4.7911761 7.3143312,4.7663467 7.4483452,4.49968 7.5943557,4.1985835 Z"
     id="path408" />
  <path
     style="fill:#cdb010;fill-opacity:1;stroke-width:0.0191159"
     d="M 4.5328315,15.713042 C 4.2422578,15.631315 3.9109802,15.363636 3.7878843,15.111111 3.7092349,14.949765 3.6632768,14.732274 3.6788213,14.594982 c 0.00655,-0.05782 0.1714376,-1.067665 0.3664233,-2.244088 L 4.3997641,10.211943 2.7960084,8.6041795 C 1.0742537,6.8781217 1.1209338,6.9300062 1.0411585,6.6536799 0.99685372,6.500217 1.0110851,6.2046671 1.0710081,6.0337772 1.19268,5.6867905 1.5088726,5.3944585 1.8570579,5.3070444 1.9343618,5.2876368 2.9339437,5.135238 4.0783509,4.9683808 L 6.159091,4.6650038 6.3027909,4.3683441 C 6.4774991,4.0076697 7.1660609,2.5802158 7.3311014,2.2365591 7.8479211,1.1604079 8.016109,0.8193501 8.0650728,0.74818365 8.096112,0.70306957 8.1756855,0.61599914 8.2419026,0.55469377 8.5986296,0.2244275 9.1555504,0.16808246 9.6009977,0.41719079 c 0.1701824,0.0951714 0.3743937,0.3142135 0.4604373,0.49387613 0.03696,0.0771689 0.458614,0.95292308 0.937015,1.94612058 l 0.86982,1.8058133 2.10937,0.3086695 c 1.160154,0.1697682 2.160761,0.3235066 2.223571,0.3416409 0.417482,0.1205333 0.731036,0.4808541 0.806161,0.9264026 0.02739,0.1624635 0.02735,0.1917643 -4.76e-4,0.3330122 -0.06453,0.3275604 0.02281,0.2276011 -1.764873,2.0198666 l -1.61116,1.6152924 0.363786,2.18877 c 0.397617,2.392319 0.388871,2.317106 0.298379,2.566146 -0.143726,0.395541 -0.453224,0.668156 -0.854557,0.752721 -0.180155,0.03796 -0.424709,0.02562 -0.588974,-0.02971 -0.06529,-0.022 -0.909612,-0.46557 -1.876272,-0.985723 C 10.006565,14.179936 9.1687052,13.731327 9.1113137,13.70318 L 9.0069656,13.652 7.1567199,14.643399 c -1.0176352,0.545269 -1.906568,1.012157 -1.9754064,1.037527 -0.1620634,0.05973 -0.492182,0.07608 -0.648482,0.03212 z m 0.9315694,-1.274077 c 2.6885696,-1.435152 3.4744823,-1.857229 3.4913936,-1.875065 0.03341,-0.03524 -1.0492192,0.535713 -3.3357228,1.759173 -0.4888889,0.261594 -0.8914604,0.469386 -0.8946034,0.461761 -0.00314,-0.0076 0.097763,-0.623354 0.2242365,-1.368286 0.126473,-0.744932 0.3110969,-1.836142 0.4102755,-2.424911 L 5.5403051,9.921147 3.7813532,8.1605049 2.0224013,6.3998627 2.1820489,6.3787523 C 2.3831451,6.352161 5.2578791,5.9268431 5.9719182,5.8180399 6.2653144,5.773333 6.4956544,5.7335176 6.4837851,5.7295612 6.4603617,5.7217533 2.0032404,6.3743623 1.9888684,6.3877041 c -0.00481,0.00446 0.7848507,0.801743 1.7547976,1.7717324 l 1.7635395,1.7636169 -0.049039,0.3144586 c -0.026971,0.172953 -0.2123292,1.274767 -0.4119062,2.448476 -0.1995771,1.173709 -0.3628675,2.1393 -0.3628675,2.145758 0,0.0065 0.00522,0.01174 0.011593,0.01174 0.00638,0 0.3526128,-0.182036 0.7694146,-0.404524 z m 7.8783881,0.380629 c -5.7e-5,-0.01314 -0.01743,-0.127121 -0.03861,-0.253286 -0.05508,-0.328092 -0.463023,-2.727952 -0.573523,-3.373954 -0.07675,-0.448673 -0.178345,-1.08437 -0.19614,-1.2272309 -0.0025,-0.020384 0.512342,-0.5509603 1.382007,-1.4241339 1.734347,-1.7413453 2.130756,-2.1440904 2.120383,-2.1542755 -0.0045,-0.00444 -0.335111,-0.055891 -0.734633,-0.1143274 -0.399522,-0.058436 -1.487006,-0.2183596 -2.41663,-0.355386 -0.929624,-0.1370265 -1.697648,-0.2491389 -1.706719,-0.2491389 -0.0091,0 -0.05391,-0.07957 -0.09963,-0.176822 C 10.99412,5.3098883 10.944726,5.2067351 10.523222,4.3297491 10.389312,4.051135 10.247169,3.7543608 10.207349,3.6702509 10.16753,3.586141 9.9053976,3.0399044 9.6248336,2.4563919 9.3442697,1.8728793 9.0971678,1.3545998 9.0757182,1.3046595 c -0.02145,-0.04994 -0.045075,-0.090801 -0.0525,-0.090801 -0.024182,0 -1.6154758,3.2850824 -1.5991852,3.3013731 0.00521,0.00521 0.03058,-0.032238 0.056372,-0.083224 0.055824,-0.110353 1.2709832,-2.6314873 1.4253673,-2.9572594 l 0.1073698,-0.2265655 0.5533645,1.153686 c 1.0469654,2.1827726 1.5584534,3.2354648 1.5849324,3.2619441 0.01609,0.016093 0.176066,0.048779 0.406486,0.083055 0.208971,0.031085 1.253067,0.1854364 2.320211,0.3430028 1.067145,0.1575665 1.981092,0.2926646 2.030993,0.3002183 l 0.09073,0.013734 -1.447958,1.451931 c -0.796377,0.7985621 -1.584543,1.591579 -1.75148,1.76226 l -0.303523,0.3103287 0.06013,0.3691624 c 0.03307,0.203039 0.210618,1.263785 0.394547,2.357214 0.183928,1.093429 0.339579,2.021539 0.345891,2.062467 l 0.01147,0.07442 -0.2841,-0.148577 C 12.868586,14.561306 12.61601,14.427717 12.46356,14.346158 10.64298,13.372167 9.1143599,12.568135 9.1469534,12.60167 c 0.010514,0.01082 0.4535245,0.251858 0.9844686,0.535645 0.530944,0.283788 1.300836,0.695277 1.710872,0.914421 0.410036,0.219144 0.90896,0.486322 1.108722,0.593729 0.199761,0.107406 0.369653,0.195901 0.377538,0.196654 0.0079,7.53e-4 0.01429,-0.0094 0.01423,-0.02252 z M 6.5806452,5.712549 c -0.013142,-0.0053 -0.034648,-0.0053 -0.04779,0 -0.013142,0.0053 -0.00239,0.00964 0.023895,0.00964 0.026284,0 0.037037,-0.00434 0.023895,-0.00964 z M 6.9927239,5.4092911 c -0.00589,-0.00589 -0.016574,0.00472 -0.023753,0.023576 -0.010374,0.027244 -0.00818,0.02944 0.010701,0.010701 0.013064,-0.012967 0.018937,-0.028392 0.013052,-0.034277 z M 7.339147,4.702509 c 0,-0.010514 -0.012294,0.00239 -0.027319,0.028674 -0.015026,0.026284 -0.027319,0.056392 -0.027319,0.066906 0,0.010514 0.012294,-0.00239 0.027319,-0.028674 C 7.326853,4.743131 7.339147,4.713023 7.339147,4.702509 Z M 7.378734,4.633347 c 0,-0.010514 -0.0086,-0.0138 -0.019116,-0.0073 -0.010514,0.0065 -0.019116,0.020416 -0.019116,0.03093 0,0.010514 0.0086,0.0138 0.019116,0.0073 0.010514,-0.0065 0.019116,-0.020416 0.019116,-0.03093 z M 7.405144,4.567705 C 7.411674,4.550693 7.408464,4.54302 7.397634,4.549717 7.387241,4.556137 7.378737,4.569491 7.378737,4.579384 c 0,0.027497 0.013702,0.021438 0.02641,-0.011679 z"
     id="path410" />
  <path
     style="fill:#cdb010;fill-opacity:1;stroke-width:0.0191159"
     d="M 4.5108095,15.706056 C 4.2177309,15.612252 3.907862,15.357239 3.7878843,15.111111 3.7093486,14.949999 3.6633051,14.732323 3.6787106,14.594982 c 0.00999,-0.08907 0.2927895,-1.809991 0.6326102,-3.849641 L 4.4001283,10.212308 2.7959947,8.6043617 C 1.318912,7.1237685 1.1864826,6.9858175 1.1239527,6.8626045 1.0298202,6.6771194 1.0062253,6.5601409 1.0184299,6.3394432 1.0310641,6.1109763 1.0812367,5.9606643 1.2082481,5.7707665 1.3494767,5.5596121 1.5845107,5.3835399 1.8156897,5.3157102 1.9060862,5.2891871 2.8098576,5.1530374 5.5244922,4.7569935 5.855675,4.7086765 6.1372729,4.6606459 6.1502654,4.6502591 6.1632579,4.6398721 6.2203099,4.5355514 6.2770476,4.4184348 6.3337852,4.3013184 6.7430618,3.4528076 7.186551,2.5328554 7.6300404,1.6129032 8.0182064,0.82066386 8.0491424,0.77232352 8.0800784,0.72398316 8.1606473,0.63137072 8.2281847,0.56651808 8.5759232,0.23260238 9.1334289,0.16567629 9.5770609,0.40459143 9.7091238,0.47571299 9.8899276,0.63835621 9.9773075,0.7646356 10.02,0.82633447 10.651481,2.1255574 11.57539,4.0525687 c 0.06553,0.1366786 0.158473,0.3299682 0.206538,0.4295323 l 0.08739,0.181026 0.951839,0.1384776 c 2.631234,0.3828026 3.198995,0.4676949 3.320465,0.49648 0.45148,0.1069882 0.786447,0.4713143 0.865748,0.9416292 0.02739,0.1624635 0.02735,0.1917643 -4.76e-4,0.3330122 -0.06453,0.3275242 0.02273,0.2276452 -1.764557,2.0198666 l -1.610845,1.6152924 0.342224,2.064516 c 0.188223,1.135484 0.352821,2.139299 0.365773,2.2307 0.03107,0.21927 0.0043,0.368831 -0.107427,0.599853 -0.200722,0.415089 -0.629282,0.66154 -1.100411,0.63281 -0.223495,-0.01363 -0.344163,-0.05884 -0.769937,-0.288489 C 11.120232,14.777664 9.1684351,13.730776 9.0949205,13.69506 l -0.086909,-0.04222 -1.8278131,0.97871 c -1.0052972,0.538291 -1.8738382,0.999065 -1.9300911,1.023942 -0.2055497,0.0909 -0.5414818,0.113882 -0.7392982,0.05057 z m 1.334939,-1.472027 c 3.1108252,-1.661475 3.1168723,-1.66473 3.0933074,-1.665081 -0.00921,-1.34e-4 -0.1339374,0.06137 -0.2771804,0.136695 -0.3801262,0.199879 -1.922552,1.01997 -2.6308122,1.398775 -1.2107077,0.647535 -1.2999627,0.694024 -1.3056952,0.680088 -0.0032,-0.0078 0.1061865,-0.675104 0.2430767,-1.482953 0.4378126,-2.583725 0.5560474,-3.295657 0.5560474,-3.3481493 0,-0.042532 -0.2989329,-0.3502414 -1.7497049,-1.8010776 L 2.0250824,6.4025436 3.6839868,6.1580578 C 5.8597832,5.8373937 6.2663788,5.7751341 6.2309549,5.7680552 6.2059716,5.7630627 4.8393239,5.9598065 3.1445639,6.2123749 2.9027479,6.2484125 2.5500597,6.3002678 2.3608124,6.3276089 2.1715651,6.35495 2.0081243,6.3801717 1.9976105,6.3836571 1.9870968,6.3871425 2.772822,7.1853456 3.7436664,8.1574417 l 1.765172,1.7674476 -0.049949,0.3135407 c -0.043081,0.270432 -0.5134616,3.052691 -0.7095195,4.196746 -0.072339,0.422121 -0.070468,0.408313 -0.055354,0.408313 0.00584,0 0.5241221,-0.274257 1.1517326,-0.60946 z m 7.4895005,0.528217 c -0.01259,-0.08166 -0.128209,-0.764204 -0.497846,-2.939068 -0.180612,-1.062678 -0.284922,-1.699956 -0.300752,-1.8374331 -0.005,-0.043582 0.221671,-0.2792598 1.743127,-1.8122435 0.961893,-0.9691804 1.751763,-1.7702926 1.755268,-1.7802491 0.0035,-0.00996 -0.0046,-0.018103 -0.018,-0.018103 -0.05249,0 -4.842572,-0.710097 -4.861688,-0.7207115 -0.01382,-0.00767 -0.01416,-0.00451 -0.0011,0.00985 0.01061,0.011631 0.100937,0.034195 0.200717,0.050142 0.345527,0.055222 4.594118,0.679839 4.624209,0.679839 0.01662,0 -0.550421,0.5827957 -1.260096,1.2951016 -0.709674,0.7123058 -1.500267,1.5072893 -1.756873,1.7666298 l -0.466557,0.4715284 0.155746,0.9334894 c 0.08566,0.51342 0.267626,1.595856 0.404366,2.405414 0.136741,0.809558 0.24867,1.483353 0.248731,1.497324 1.34e-4,0.02854 -0.12615,-0.03627 -1.624739,-0.833859 -1.9946779,-1.061626 -2.5280455,-1.341337 -2.4946238,-1.308241 0.010514,0.01041 0.5911589,0.324835 1.2903228,0.698719 0.699163,0.373885 1.623895,0.868839 2.054958,1.099898 0.431063,0.231059 0.791302,0.420808 0.800532,0.421664 0.0092,8.56e-4 0.01114,-0.035 0.0043,-0.07969 z M 6.3608124,5.7502637 c -0.018399,-0.00481 -0.048507,-0.00481 -0.066906,0 -0.018399,0.00481 -0.00335,0.00874 0.033453,0.00874 0.036798,0 0.051852,-0.00393 0.033453,-0.00874 z m 0.1051374,-0.018599 c -0.013142,-0.0053 -0.034648,-0.0053 -0.04779,0 -0.013142,0.0053 -0.00239,0.00964 0.023895,0.00964 0.026284,0 0.037037,-0.00434 0.023895,-0.00964 z M 11.041177,5.4145759 C 10.892571,5.1010881 10.558167,4.4020305 10.354853,3.9798436 10.257663,3.7780265 9.9203194,3.0733414 9.6052009,2.4138768 9.2900823,1.7544121 9.0273611,1.2146272 9.0213762,1.2143546 9.015391,1.214082 8.9171601,1.4052569 8.8030853,1.6391876 8.6890105,1.8731183 8.5923244,2.0709677 8.5882275,2.078853 c -0.0041,0.00789 -4.894e-4,0.01412 0.00802,0.013854 0.00851,-2.655e-4 0.1053037,-0.1899778 0.2151064,-0.421583 0.1837085,-0.3874938 0.2014809,-0.4175854 0.222693,-0.3770563 0.012678,0.024224 0.3369042,0.6978076 0.7205014,1.4968519 1.2361647,2.5749669 1.3643777,2.8387096 1.3799807,2.8387096 0.0047,0 -0.03728,-0.096774 -0.09335,-0.2150537 z m -4.0484531,-0.00528 c -0.00589,-0.00589 -0.016574,0.00472 -0.023753,0.023576 -0.010374,0.027244 -0.00818,0.02944 0.010701,0.010701 0.013064,-0.012967 0.018937,-0.028392 0.013052,-0.034277 z M 7.339147,4.702509 c 0,-0.010514 -0.012294,0.00239 -0.027319,0.028674 -0.015026,0.026284 -0.027319,0.056392 -0.027319,0.066906 0,0.010514 0.012294,-0.00239 0.027319,-0.028674 C 7.326853,4.743131 7.339147,4.713023 7.339147,4.702509 Z M 7.378734,4.633347 c 0,-0.010514 -0.0086,-0.0138 -0.019116,-0.0073 -0.010514,0.0065 -0.019116,0.020416 -0.019116,0.03093 0,0.010514 0.0086,0.0138 0.019116,0.0073 0.010514,-0.0065 0.019116,-0.020416 0.019116,-0.03093 z M 7.416966,4.556883 c 0,-0.010514 -0.0086,-0.013799 -0.019116,-0.0073 -0.010514,0.0065 -0.019116,0.020416 -0.019116,0.03093 0,0.010514 0.0086,0.0138 0.019116,0.0073 0.010514,-0.0065 0.019116,-0.020416 0.019116,-0.03093 z M 7.8577931,3.651135 C 8.4370267,2.4492311 8.4873109,2.3416965 8.4700978,2.3416965 c -0.00849,0 -0.050334,0.075269 -0.092995,0.1672641 -0.042661,0.091995 -0.2761447,0.5786198 -0.5188517,1.0813882 -0.242707,0.5027681 -0.4412853,0.9195423 -0.4412853,0.9261648 0,0.04066 0.077511,-0.1115005 0.4408273,-0.8653786 z"
     id="path412" />
  <path
     style="fill:#cdb010;fill-opacity:1;stroke-width:0.0191159"
     d="M 4.5108095,15.706056 C 4.3153713,15.643503 4.1642894,15.549156 4.0030796,15.38899 3.8226414,15.20972 3.743127,15.066031 3.6946634,14.831655 c -0.037854,-0.183064 -0.076118,0.08417 0.389441,-2.719798 L 4.3995875,10.211766 2.7959202,8.6040912 C 1.3991997,7.2038798 1.1840961,6.9807059 1.1290441,6.8746783 1.0441059,6.7110908 1.0136404,6.5868802 1.0133691,6.4030605 1.012791,6.0114713 1.2076886,5.6601734 1.5472929,5.4406765 1.7670001,5.298673 1.5378051,5.3396299 4.7216249,4.8734262 5.4733572,4.7633508 6.1037314,4.6684465 6.1224566,4.6625279 6.1617298,4.6501142 6.2326471,4.5115951 6.762591,3.4121864 6.9729088,2.9758662 7.2217762,2.4597372 7.3156299,2.265233 7.4094836,2.0707288 7.6104637,1.6541256 7.7622524,1.339448 8.0280962,0.7883195 8.0433984,0.7618131 8.1789102,0.61771435 8.2914483,0.49804508 8.3507173,0.45277574 8.4752065,0.39140447 8.6804766,0.29020953 8.8690361,0.25100584 9.0817529,0.26529653 c 0.452852,0.0304234 0.801497,0.27370795 1.0084901,0.70372474 0.05217,0.10837643 0.474001,0.98374783 0.937405,1.94526993 l 0.842554,1.7482218 0.311016,0.044889 c 0.577152,0.0833 2.523301,0.36832 3.243562,0.4750306 0.905447,0.1341469 1.007825,0.1686953 1.264101,0.4265854 0.261883,0.2635321 0.385811,0.6458338 0.316513,0.9764064 -0.06646,0.3170445 0.01573,0.2234713 -1.76306,2.0071685 l -1.610849,1.6152921 0.341028,2.054958 c 0.187565,1.130227 0.352165,2.134042 0.365777,2.2307 0.03244,0.230322 0.007,0.375224 -0.107267,0.611551 -0.139259,0.287963 -0.364876,0.479293 -0.696973,0.591052 -0.158774,0.05343 -0.521722,0.04903 -0.684175,-0.0083 -0.06614,-0.02334 -0.410228,-0.198287 -0.764636,-0.388774 -2.002706,-1.076412 -2.9640806,-1.59166 -3.0169809,-1.616949 l -0.059579,-0.02848 -1.6608506,0.889144 c -2.2233423,1.190277 -2.1223104,1.138292 -2.275196,1.170684 -0.1792822,0.03798 -0.430314,0.03467 -0.5618225,-0.0074 z m 0.4813782,-1.018395 c 0.2838243,-0.150764 2.3509741,-1.254583 3.227645,-1.723501 0.609103,-0.3258 0.6997538,-0.375774 0.6821945,-0.376077 -0.016769,-2.91e-4 -1.4311673,0.747708 -3.1194704,1.649718 -0.5782557,0.308945 -1.0539512,0.555278 -1.0571011,0.547406 -0.00315,-0.0079 0.081277,-0.529162 0.1876163,-1.158422 C 5.3582717,10.992321 5.5241489,9.995027 5.5243156,9.9518423 5.5244494,9.9165601 5.1236886,9.5045821 3.7751457,8.1537239 L 2.0257991,6.4013739 2.2410955,6.3696222 C 2.3595085,6.3521589 2.7230585,6.2986875 3.0489845,6.2507968 4.6019865,6.022603 5.9573708,5.8198553 5.9832736,5.8118654 6.0614517,5.7877513 5.6533316,5.8445695 3.9856631,6.0899712 2.9868578,6.2369481 2.1330944,6.3624094 2.088411,6.368774 2.043728,6.375134 2.007169,6.388935 2.007169,6.399432 c 0,0.010497 0.7879599,0.8085224 1.751022,1.7733889 L 5.509213,9.927124 5.448274,10.306453 c -0.033517,0.208631 -0.1457054,0.878254 -0.2493077,1.488051 -0.1036024,0.609797 -0.2580238,1.520079 -0.3431586,2.022848 -0.085135,0.50277 -0.159831,0.939329 -0.1659916,0.970131 -0.00616,0.0308 -0.00665,0.05601 -0.00109,0.05601 0.00556,0 0.142119,-0.07012 0.3034648,-0.155828 z m 8.1692773,-0.955607 c -0.10078,-0.592534 -0.221271,-1.300991 -0.267759,-1.574348 -0.04649,-0.273357 -0.127703,-0.750776 -0.180478,-1.060932 -0.05278,-0.310155 -0.116137,-0.697915 -0.140804,-0.861689 L 12.527574,9.9373142 13.386706,9.0690154 C 13.859229,8.5914512 14.650858,7.7945627 15.145882,7.2981519 15.640906,6.8017411 16.042044,6.3920585 16.0373,6.3877459 16.032556,6.3834332 15.81362,6.348358 15.550777,6.3098007 12.016562,5.7913569 11.176026,5.665934 11.156991,5.6541695 c -0.01008,-0.00623 -0.01291,-0.00256 -0.0063,0.00816 0.0066,0.010721 0.04451,0.025055 0.0842,0.031852 0.109769,0.018804 1.819882,0.2727855 3.360082,0.4990304 0.756989,0.1111968 1.381667,0.2040733 1.388172,0.2063924 0.0065,0.00232 -0.769808,0.7913134 -1.72514,1.7533205 -0.955332,0.9620072 -1.741438,1.7627688 -1.746903,1.7794701 -0.0055,0.016701 0.06288,0.4640131 0.151888,0.9940271 0.089,0.530013 0.269788,1.605055 0.401743,2.388982 0.131954,0.783927 0.239917,1.435648 0.239917,1.448269 0,0.02999 -0.294861,-0.121145 -1.653524,-0.847511 -1.426206,-0.762476 -2.2485645,-1.193377 -2.2174432,-1.161902 0.017439,0.01764 3.5183392,1.893135 3.7849462,2.027666 0.06308,0.03183 0.117253,0.05103 0.120379,0.04267 0.0031,-0.0084 -0.07677,-0.500009 -0.177552,-1.092542 z M 9.3667861,12.712558 c 0,-0.01159 -0.1078258,-0.06766 -0.1280829,-0.06659 -0.00841,4.41e-4 0.014821,0.01728 0.051619,0.03743 0.075345,0.04125 0.076464,0.04168 0.076464,0.02916 z M 6.1839904,5.7825568 c 0.079495,-0.020228 0.00125,-0.021126 -0.095579,-0.0011 -0.064289,0.013298 -0.067333,0.015806 -0.019116,0.015753 0.031541,-3.82e-5 0.083154,-0.00663 0.1146953,-0.014656 z m 0.1672641,-0.031776 c -0.013142,-0.0053 -0.034648,-0.0053 -0.04779,0 -0.013142,0.0053 -0.00239,0.00964 0.023895,0.00964 0.026284,0 0.037037,-0.00434 0.023895,-0.00964 z M 11.031561,5.39546 C 10.980942,5.2876941 10.735214,4.7737157 10.485498,4.2532855 10.235782,3.7328554 9.8378537,2.9027479 9.6012119,2.4086022 9.0993403,1.3606142 9.0232484,1.2069389 9.0118536,1.2183336 c -0.00785,0.00785 0.2830086,0.6177111 1.5158304,3.1783211 0.545235,1.132471 0.575862,1.1947431 0.587601,1.1947431 0.0046,0 -0.03311,-0.088172 -0.08372,-0.1959378 z M 6.9927239,5.409291 c -0.00589,-0.00589 -0.016574,0.00472 -0.023753,0.023576 -0.010374,0.027244 -0.00818,0.02944 0.010701,0.010701 0.013064,-0.012967 0.018937,-0.028392 0.013052,-0.034277 z M 7.3405018,4.7052272 c 0,-0.024288 -0.00883,-0.013443 -0.036697,0.045071 -0.02146,0.045061 -0.021062,0.045671 0.00697,0.010683 0.016351,-0.020409 0.029729,-0.045498 0.029729,-0.055755 z m 0.038232,-0.07188 c 0,-0.010514 -0.0086,-0.0138 -0.019116,-0.0073 -0.010514,0.0065 -0.019116,0.020416 -0.019116,0.03093 0,0.010514 0.0086,0.0138 0.019116,0.0073 0.010514,-0.0065 0.019116,-0.020416 0.019116,-0.03093 z m 0.038232,-0.076464 c 0,-0.010514 -0.0086,-0.013799 -0.019116,-0.0073 -0.010514,0.0065 -0.019116,0.020416 -0.019116,0.03093 0,0.010514 0.0086,0.0138 0.019116,0.0073 0.010514,-0.0065 0.019116,-0.020416 0.019116,-0.03093 z M 7.6953978,3.9856631 C 8.3510996,2.6257543 8.4817363,2.3506506 8.4753017,2.3432895 c -0.00383,-0.00438 -0.010153,-0.00438 -0.014053,0 -0.010855,0.012193 -0.9883327,2.0440307 -1.0200211,2.1202708 -0.015295,0.036798 -0.01932,0.058304 -0.00894,0.04779 0.010375,-0.010514 0.1287769,-0.2470729 0.2631151,-0.525687 z M 8.6619227,1.9737157 c 0.1183541,-0.2344113 0.3388632,-0.702509 0.3309343,-0.702509 -0.00972,0 -0.1885001,0.3546641 -0.3155781,0.6260454 -0.1008173,0.2152999 -0.110964,0.2658236 -0.015356,0.076464 z"
     id="path414" />
  <path
     style="fill:#cdb010;fill-opacity:1"
     d="m 4.7980884,6.0406213 c 0.050976,0.00637 0.1015547,0.019116 0.1529271,0.019116 0.2123018,0 0.058071,-0.020636 0.2293907,-0.057348 0.2114064,-0.045301 0.435767,-0.037877 0.6499403,-0.057348 0.02765,-0.00251 0.2776306,0.00911 0.2867383,0 0.051958,-0.051958 -0.6453286,-0.057348 -0.6690561,-0.057348 -0.3092457,0 -0.628754,-0.021048 -0.9366786,0.019116 -0.1384092,0.018053 -0.2664007,0.068573 -0.4014337,0.095579 -0.018745,0.00375 -0.04025,-0.00855 -0.057348,0 -0.037501,0.018751 0.00146,0.038232 -0.038232,0.038232"
     id="path530" />
  <path
     style="fill:#cdb010;fill-opacity:1"
     d="m 3.3835125,6.2126643 c 0.4644389,-0.021558 0.9309466,-0.045496 1.39546,-0.076464 0.1594541,-0.01063 0.3181948,-0.032424 0.4778973,-0.038232 1.1540636,-0.041966 -0.034719,0.065465 1.2425328,-0.057348 C 6.8330045,6.0085433 7.0989232,6.0250113 7.30227,5.7538819 7.326165,5.7220219 7.377937,5.6901619 7.39785,5.6583029 7.416036,5.6292049 7.417895,5.5918219 7.436082,5.5627239 7.45041,5.5397989 7.479102,5.5283009 7.49343,5.5053759 7.513046,5.4739899 7.58901,5.3019607 7.58901,5.2568694"
     id="path532" />
  <path
     style="fill:#cdb010;fill-opacity:1"
     d="M 4.9892473,7.7228196 3.4599761,5.5244922"
     id="path534" />
  <path
     style="fill:#cdb010;fill-opacity:1"
     d="M 2.1600956,6.1170848 1.8542413,6.4038232"
     id="path536" />
  <path
     style="fill:#cdb010;fill-opacity:1"
     d="m 2.0262843,6.7287933 3.2497014,3.4599757 c 0.2122137,0.01924 0.4361949,0.03855 0.6499402,0.01912 0.138242,-0.01257 0.3275415,-0.06277 0.4587814,-0.09558 0.080323,-0.02008 0.1549734,-0.08493 0.2293907,-0.1146955 0.030167,-0.012067 0.065157,-0.00771 0.095579,-0.019116 0.021512,-0.00807 0.036231,-0.029182 0.057348,-0.038232 0.1515697,-0.064958 -0.00255,0.039646 0.172043,-0.057348 0.1008625,-0.056035 0.1956824,-0.1353191 0.3058542,-0.172043"
     id="path538" />
  <path
     style="fill:#cdb010;fill-opacity:1"
     d="m 5.2568698,9.7873357 3.0011947,1.5101553 c -0.4591794,0.25368 -0.9263197,0.491834 -1.39546,0.726404 -0.1784149,0.08921 -0.3568299,0.178415 -0.5352449,0.267622 -0.2032437,0.101622 -0.667536,0.325653 -0.8793309,0.458782 -0.1003479,0.06308 -0.1950048,0.13522 -0.2867384,0.210274 -0.048821,0.03994 -0.091613,0.08692 -0.1338112,0.133812 -0.044547,0.0495 -0.057348,0.0906 -0.057348,0.152927 0,0.0085 -0.00593,0.0646 0,0.07646 0.023955,0.04791 0.2247224,0.101637 0.2676225,0.133812 0.011398,0.0085 0.00904,0.02816 0.019116,0.03823 0.00451,0.0045 0.01461,-0.0045 0.019116,0 0.00963,0.0096 0.1213999,0.147221 0.1338112,0.172043 0.00855,0.0171 0,0.03823 0,0.05735 0,0.184732 -0.054304,0.123381 -0.1338112,0.229391 -0.025647,0.0342 -0.033637,0.07913 -0.057348,0.114695 -0.037834,0.05675 -0.044452,0.02534 -0.09558,0.07646 -0.02015,0.02015 -0.022425,0.05275 -0.038232,0.07646 -0.041924,0.06289 -0.080491,0.118723 -0.1338113,0.172043"
     id="path540" />
  <path
     style="fill:#cdb010;fill-opacity:1"
     d="m 9.8637993,10.609319 -5.4097969,2.160096 c 0,0.05098 -0.00507,0.102204 0,0.152927 0.00142,0.01418 0.016322,0.02426 0.019116,0.03823 0.00884,0.04418 0.013527,0.0891 0.019116,0.133812 0.011525,0.0922 0,0.193279 0,0.286738"
     id="path542" />
  <path
     style="fill:#cdb010;fill-opacity:1"
     d="m 3.5937873,8.0286738 c 0.1035323,0.138043 0.020389,0.044858 0.2293907,0.1911589 0.308447,0.2159129 0.1405979,0.1248377 0.5352449,0.3440861 0.1445009,0.080278 0.291814,0.1554649 0.4396655,0.2293906 0.043404,0.021702 0.092199,0.032381 0.1338112,0.057348 0.023181,0.013909 0.035721,0.041127 0.057348,0.057348 0.019017,0.014263 0.071151,0.021946 0.09558,0.038232 0.059088,0.039392 0.113857,0.1092876 0.172043,0.1529271 0.083804,0.062853 0.1965451,0.1200816 0.2676224,0.1911589"
     id="path544" />
  <path
     style="fill:#cdb010;fill-opacity:1"
     id="path814"
     d="m 2.2157774,6.5673344 c 0.00305,0.00871 0.00515,0.01782 0.00914,0.02614 0.059722,0.1242709 0.196557,0.224186 0.3023505,0.3060205 0.1466729,0.1058469 0.3004214,0.2033891 0.4631367,0.2827977 0,0 -0.00281,-0.00224 -0.00281,-0.00224 v 0 C 2.8269401,7.1016312 2.6751566,7.0053468 2.5303931,6.9007416 2.4245448,6.818884 2.2881148,6.7192855 2.2282574,6.5950348 c -0.00399,-0.00828 -0.0061,-0.017335 -0.00915,-0.026003 0,0 -0.00333,-0.0017 -0.00333,-0.0017 z" />
  <path
     style="fill:#cdb010;fill-opacity:1"
     id="path816"
     d="m 2.3289969,7.2486635 c 0.016753,-0.0066 0.03374,-0.012637 0.050259,-0.019802 0.068045,-0.029514 0.1170901,-0.055201 0.1851425,-0.09018 0.1126453,-0.0579 0.2241301,-0.1177173 0.3349302,-0.1790546 0.1089913,-0.062885 0.2201088,-0.1229994 0.31737,-0.2034791 0.034622,-0.027069 0.05244,-0.064821 0.070912,-0.1033151 0.027791,-0.05427 0.046452,-0.1123945 0.069101,-0.1688395 0.021385,-0.054609 0.044827,-0.1085051 0.063472,-0.1641429 0,0 -0.00325,-0.00179 -0.00325,-0.00179 v 0 c -0.018601,0.055648 -0.042032,0.1095453 -0.063417,0.1641487 -0.022654,0.056432 -0.041325,0.1145441 -0.069132,0.1687943 -0.018452,0.038435 -0.036249,0.076145 -0.070794,0.1032005 -0.097168,0.080497 -0.208169,0.140689 -0.3170882,0.2035817 C 2.785726,7.0191545 2.6742691,7.0790091 2.561592,7.136838 2.494045,7.171505 2.4439889,7.197607 2.3762702,7.22686 2.3597312,7.234 2.3427212,7.240004 2.3259462,7.246576 c 0,0 0.00305,0.00209 0.00305,0.00209 z" />
  <path
     style="fill:#cdb010;fill-opacity:1"
     id="path824"
     d="M 2.72892,7.049526 C 2.7297949,7.043966 2.7292053,7.037964 2.73154,7.032844 2.746929,6.999163 2.770571,6.973866 2.797493,6.948427 2.857605,6.891625 2.8999928,6.861676 2.9755986,6.8206835 3.0202506,6.7964745 3.0672526,6.7768775 3.1130803,6.7549745 3.1662383,6.7343645 3.2184287,6.7110595 3.2725551,6.6931455 3.43273,6.6401355 3.6018767,6.6071865 3.768897,6.584973 3.8708048,6.571419 3.9158446,6.570432 4.014664,6.564679 c 0.069486,-0.00723 0.1395599,0.00378 0.2090559,-6.73e-4 0.015017,-9.621e-4 0.029796,-0.00424 0.044709,-0.00625 0.051537,-0.00696 0.019761,-0.00146 0.068784,-0.011099 0.03797,-0.00642 0.07646,-0.00646 0.1148212,-0.00609 0.00882,8.46e-5 0.017663,7.668e-4 0.026467,1.953e-4 0.00985,-6.395e-4 0.01958,-0.00255 0.029369,-0.00382 0.01025,-0.00223 0.020539,-0.0043 0.030751,-0.0067 0.010732,-0.00253 0.021279,-0.00584 0.032075,-0.00808 0.035964,-0.00746 0.072455,-0.00873 0.1090323,-0.00872 0.022569,-1.65e-5 0.04513,0.00125 0.067691,0.0015 0.00777,8.62e-5 0.015593,-0.00104 0.023316,-1.763e-4 0.017412,0.00196 0.034097,0.00809 0.051152,0.012104 0.1037853,0.02745 0.2076311,0.054313 0.3101638,0.086215 0.06771,0.019713 0.035307,0.00962 0.097292,0.030006 0,0 -1.4417391,-1.1060722 -1.4417391,-1.1060722 v 0 c -0.04894,-0.00923 -0.023579,-0.004 -0.076038,-0.0159 C 3.5950902,5.4934078 3.4812177,5.4541018 3.36269,5.4358078 c -0.015836,-0.00125 -0.031629,-0.00331 -0.047508,-0.00374 -0.047508,-0.00128 -0.095451,0.00442 -0.1421709,0.012328 -0.053372,0.012071 -0.1064471,0.027264 -0.161826,0.023565 -0.060878,0.00181 -0.1198666,0.016299 -0.1786079,0.03168 -0.029858,0.00649 -0.060143,0.013409 -0.089128,0.02324 -0.048685,0.016514 -0.095128,0.039311 -0.142099,0.059922 -0.063731,0.028014 -0.1108731,0.049466 -0.1773171,0.075117 -0.2079773,0.080291 -0.4209829,0.1485077 -0.6367312,0.204453 -0.057754,0.016795 -0.115503,0.033607 -0.1732617,0.050385 -0.1642949,0.047726 -0.3326731,0.09044 -0.4846626,0.1711707 0,0 1.59954,0.9656123 1.59954,0.9656123 z" />
  <path
     style="fill:#cdb010;fill-opacity:1"
     id="path826"
     d="m 1.6682369,6.3050491 c 0.00296,0.013696 0.00436,0.027822 0.00887,0.041087 0.00643,0.018902 0.01498,0.037051 0.023793,0.054966 0.020606,0.041891 0.050324,0.090945 0.077758,0.1278827 0.038312,0.051582 0.075682,0.089729 0.119065,0.136891 0.0226,0.021581 0.044565,0.043848 0.0678,0.064744 0.027664,0.02488 0.1091904,0.093723 0.1427016,0.1133423 0.9040813,0.529299 1.0756124,0.6956898 1.7053752,0.9652108 0.049275,0.020464 0.1000585,0.036306 0.1514475,0.05032 0,0 -1.4500487,-1.1178414 -1.4500487,-1.1178414 v 0 C 2.4832109,6.7312644 2.4514837,6.7205976 2.4210289,6.7066257 2.4044592,6.6991018 2.3875881,6.6922095 2.37132,6.6840541 2.3514309,6.6740835 2.293398,6.6410828 2.3126229,6.6522807 2.7829248,6.9262157 3.2544312,7.19808 3.724578,7.4722812 3.7501928,7.4872204 3.6718371,7.445095 3.6462603,7.4300909 3.621274,7.415433 3.596668,7.4000465 3.5729914,7.3833555 3.550471,7.3674796 3.5295472,7.3494517 3.5078252,7.3324998 3.4525212,7.2827314 3.4527201,7.2858086 3.4057336,7.2332163 3.3943988,7.2205293 3.38282,7.207955 3.3729584,7.1940918 c -0.01304,-0.018332 -0.019532,-0.038204 -0.030546,-0.05692 0,0 -1.674176,-0.8321225 -1.6741755,-0.8321227 z" />
  <path
     style="fill:#cdb010;fill-opacity:1"
     id="path828"
     d="m 8.0821621,5.3116082 c 0.00262,-0.012846 0.00379,-0.026073 0.00786,-0.038537 0.013122,-0.040244 0.032369,-0.072038 0.054669,-0.1081013 0.013613,-0.022015 0.027313,-0.044024 0.042428,-0.065036 0.015488,-0.02153 0.032993,-0.041535 0.049288,-0.06246 0.016661,-0.021394 0.033054,-0.042997 0.049581,-0.064496 0.054811,-0.073812 0.122036,-0.137557 0.1777381,-0.21057 0.032673,-0.042826 0.03455,-0.049873 0.06092,-0.09653 0.035891,-0.067213 0.057275,-0.140448 0.082901,-0.2117631 0.011576,-0.032215 0.024688,-0.06386 0.036713,-0.09591 0.016216,-0.044297 0.034313,-0.087908 0.050915,-0.1320472 0.00558,-0.014841 0.01017,-0.030046 0.015871,-0.044842 0.013737,-0.035652 0.025009,-0.058836 0.040987,-0.093776 0.044609,-0.095715 0.095662,-0.1882033 0.1493974,-0.2790441 0.00755,-0.019932 0.015321,-0.039785 0.022662,-0.059796 0.028015,-0.076361 0.021024,-0.067314 0.05704,-0.1411373 0.033527,-0.068721 0.073867,-0.1330079 0.1145601,-0.197589 0.065959,-0.092534 0.1281323,-0.1875873 0.1806931,-0.2883829 0.04808,-0.083999 0.07001,-0.178267 0.1007828,-0.2690431 0.0077,-0.022727 0.016123,-0.045206 0.024184,-0.067809 0.019621,-0.047416 0.03368,-0.096904 0.052452,-0.1446265 0.00954,-0.02425 0.020735,-0.047816 0.030993,-0.071771 0.030593,-0.071435 0.061571,-0.1421576 0.095209,-0.2122213 0.010878,-0.022297 0.022593,-0.044204 0.032633,-0.06689 0.011107,-0.025095 0.018985,-0.051579 0.030769,-0.076363 0.011338,-0.023847 0.025473,-0.046262 0.038464,-0.069251 0.012911,-0.022846 0.025143,-0.046114 0.039239,-0.068247 0.027123,-0.042586 0.049751,-0.068755 0.080878,-0.1075073 0.039853,-0.04759 0.025326,-0.032753 0.066039,-0.072641 0.021347,-0.020914 0.043263,-0.045886 0.071954,-0.056987 0.00541,-0.00209 0.011284,-0.00273 0.016925,-0.00409 0.00298,0.00402 0.00945,0.00709 0.00893,0.012068 -0.00181,0.017281 -2.87e-5,0.057869 -0.015414,0.049795 C 9.4110297,1.6129126 8.8847574,1.3053826 8.3566877,1.0016841 c -0.00911,-0.005237 0.021223,-0.007536 0.031219,-0.004305 0.014415,0.00466 0.040341,0.0441699 0.047042,0.0532943 0.052605,0.1005887 0.064517,0.214199 0.08887,0.3233357 0.014409,0.040215 0.019214,0.083098 0.032003,0.1237362 0.046633,0.1481822 0.0072,-0.00874 0.051114,0.1513364 0.00732,0.026692 0.012687,0.053884 0.01935,0.080748 0.00705,0.028433 0.014529,0.056758 0.021794,0.085137 0.024039,0.089303 0.037007,0.1809156 0.055061,0.2714899 0.00681,0.034183 0.015154,0.068068 0.021155,0.1024029 0.01103,0.063101 0.019562,0.14393 0.02699,0.2074939 0.012307,0.1277597 0.018217,0.2562859 0.033411,0.3837744 0.00498,0.041792 0.017959,0.1227777 0.024622,0.1655307 0.024783,0.1432188 0.074036,0.2757819 0.135256,0.4068409 0.072812,0.145758 0.1531736,0.2875022 0.2319283,0.4300766 0.065858,0.1239795 0.1349803,0.2462563 0.1989372,0.3712388 0.039675,0.06619 0.079057,0.1329308 0.1220041,0.1970958 0.016091,0.024041 0.042362,0.058696 0.05964,0.08189 0.035699,0.056446 0.079382,0.1070445 0.1174023,0.161848 0.020473,0.02951 0.035557,0.053453 0.054901,0.083471 0.042211,0.069231 0.086197,0.1372764 0.1353877,0.2017708 0.037402,0.053904 0.079552,0.1041115 0.1223989,0.1536995 0.010626,0.011652 0.03918,0.043383 0.050286,0.05379 0.01145,0.01073 0.0222,0.022701 0.03574,0.030645 1.629311,0.9564138 1.031186,0.6989883 1.715838,0.9732564 0.17271,0.070547 0.359404,0.090448 0.542633,0.1156782 0.03246,0.00396 0.06494,0.00777 0.09738,0.011867 0.08581,0.010844 0.17136,0.021752 0.257651,0.028208 0.06015,0.0045 0.08721,0.00498 0.146936,0.00722 0.125115,-0.00298 0.250031,0.00509 0.374707,0.01446 0.03743,0.00385 0.07544,0.00126 0.112874,0.00463 0.02831,0.00255 0.05689,0.0091 0.08492,0.013826 0.0075,0.00119 0.01499,0.00237 0.02249,0.00356 0,0 -1.49257,-1.1003209 -1.49257,-1.1003209 v 0 c -0.0059,2.539e-4 -0.01184,5.078e-4 -0.01776,7.617e-4 -0.05957,0.0034 -0.11906,0.00795 -0.178682,0.010636 -0.110552,0.010873 -0.221697,0.017032 -0.332675,0.00776 -0.150072,-0.00554 -0.30044,-0.012303 -0.449282,-0.033351 -0.08497,-0.014579 -0.106296,-0.016301 -0.190547,-0.038746 -0.120956,-0.032223 -0.237224,-0.079292 -0.348364,-0.1366666 -0.02503,-0.013282 -0.05044,-0.025853 -0.07508,-0.039848 -0.02367,-0.013445 -0.0933,-0.056107 -0.06977,-0.042438 0.497106,0.2886761 0.99382,0.5780262 1.490481,0.8674665 0.01,0.00582 -0.02038,-0.010899 -0.03043,-0.016591 -0.0094,-0.00533 -0.01892,-0.0105 -0.02794,-0.016456 -0.0088,-0.00579 -0.01689,-0.012486 -0.02534,-0.018728 -0.04979,-0.041185 -0.09402,-0.088778 -0.137269,-0.1366752 -0.05454,-0.065853 -0.114586,-0.1274018 -0.16262,-0.1984422 -0.01956,-0.027533 -0.04162,-0.058151 -0.06035,-0.086227 -0.037,-0.055464 -0.06712,-0.1155342 -0.112168,-0.1653996 -0.02601,-0.036781 -0.03444,-0.050016 -0.06302,-0.085128 -0.04394,-0.054 -0.03019,-0.031383 -0.07168,-0.088453 -0.01156,-0.0159 -0.02218,-0.032461 -0.03337,-0.048626 -0.01105,-0.015964 -0.02222,-0.03184 -0.03334,-0.04776 -0.08498,-0.1262748 -0.166669,-0.2548836 -0.24358,-0.3862376 -0.01403,-0.024522 -0.02854,-0.048777 -0.04209,-0.073568 C 10.661617,4.3086973 10.61074,4.1953996 10.55774,4.0831593 10.493064,3.959891 10.427959,3.835954 10.385024,3.7030531 c -0.0082,-0.025933 -0.01722,-0.051636 -0.02468,-0.077799 -0.04378,-0.1534824 -0.06408,-0.3122035 -0.08308,-0.4702591 -0.0057,-0.070049 -0.01322,-0.1399466 -0.01874,-0.2100112 -0.0026,-0.033245 -0.0029,-0.066663 -0.006,-0.099866 -0.0082,-0.087673 -0.01427,-0.097165 -0.02815,-0.1834806 -0.0048,-0.029593 -0.0085,-0.059336 -0.0128,-0.089004 -0.04501,-0.3020525 0.02,0.1228623 -0.02919,-0.1638765 -0.0043,-0.025277 -0.007,-0.05081 -0.01009,-0.076274 -0.0027,-0.022618 -0.0029,-0.045596 -0.0072,-0.067961 -0.0074,-0.038397 -0.02671,-0.07391 -0.03057,-0.113272 -0.02324,-0.1073277 -0.04808,-0.2150759 -0.05422,-0.3250455 -5.3e-4,-0.015231 -7.31e-4,-0.030477 -0.0016,-0.045693 -7.05e-4,-0.012507 -0.0033,-0.024927 -0.0031,-0.037452 2.76e-4,-0.015926 0.01825,-0.039404 0.0046,-0.047564 C 9.0191696,1.0624867 8.8434872,0.30871093 8.390909,0.85175005 8.373499,0.87444055 8.366561,0.88249685 8.350796,0.90742045 8.316907,0.96099505 8.291778,1.0196467 8.263324,1.0761096 8.240748,1.1284436 8.231822,1.1512026 8.20524,1.2035456 8.19289,1.2278646 8.179199,1.2514816 8.166542,1.2756426 8.15354,1.3004616 8.141848,1.3259706 8.128269,1.3504786 c -0.013694,0.024715 -0.030226,0.04781 -0.043502,0.072752 -0.012144,0.022816 -0.021771,0.046885 -0.032657,0.070328 -0.041465,0.09619 -0.020437,0.047882 -0.063095,0.1449166 -0.021031,0.048541 -0.040273,0.097859 -0.06205,0.1460703 -0.00224,0.00496 -0.064116,0.1328562 -0.067086,0.1389993 -0.0095,0.021049 -0.018444,0.042355 -0.028494,0.063146 -0.039541,0.0818 -0.08583,0.1603346 -0.1246902,0.2425087 -0.013541,0.029331 -0.027054,0.057938 -0.039551,0.087753 -0.00637,0.015189 -0.011861,0.030736 -0.018281,0.045902 -0.025517,0.060273 -0.020777,0.04482 -0.050328,0.1069793 -0.00967,0.020336 -0.018816,0.040916 -0.028224,0.061374 -0.066431,0.1320574 -0.1363562,0.2630781 -0.227478,0.3801141 -0.051258,0.096692 -0.103438,0.1928898 -0.1529723,0.2904968 -0.023896,0.048044 -0.051903,0.096893 -0.073058,0.1459941 -0.019576,0.045435 -0.032644,0.093762 -0.048806,0.1404147 C 7.0381315,3.5841365 7.0079515,3.6806919 6.964105,3.7712908 6.91068,3.8773806 6.8544903,3.9821256 6.7825765,4.0771885 c -0.024787,0.031468 -0.07159,0.092162 -0.098737,0.1214586 -0.017943,0.019364 -0.037278,0.037409 -0.056633,0.055361 -0.031754,0.029452 -0.065633,0.059119 -0.1027568,0.081937 -0.012285,0.00755 -0.025894,0.0127 -0.038842,0.019049 0,0 1.5965525,0.9566126 1.5965525,0.9566126 z" />
  <path
     style="fill:#cdb010;fill-opacity:1"
     id="path830"
     d="m 13.262939,6.4414198 c 0.01113,-0.0072 0.02132,-0.016107 0.03339,-0.021592 0.0938,-0.042636 0.209884,-0.050689 0.310842,-0.060272 0.16158,-0.015337 0.152406,-0.012157 0.319499,-0.016617 0.179974,-9.61e-5 0.358632,0.020656 0.53627,0.047503 0.132168,0.019975 0.23544,0.03791 0.366119,0.065677 0.05848,0.012425 0.116533,0.026754 0.174799,0.040131 0.261301,0.05937 0.517797,0.1374058 0.774422,0.2140006 0.08938,0.029884 0.183659,0.036877 0.275919,0.052968 0.07856,0.015153 0.04017,0.00812 0.115141,0.021188 0.01305,0.00275 0.07483,0.015492 0.08956,0.019621 0.04384,0.012282 0.0297,0.012281 0.07257,0.025361 0.01816,0.00554 0.05683,0.013609 0.07499,0.01759 0.06401,0.00819 0.02085,9.468e-4 0.08284,0.01564 0.01272,0.00302 0.0257,0.00497 0.0383,0.00845 0.01094,0.00302 0.02136,0.00773 0.03222,0.01102 0.04102,0.012432 0.018,-6.144e-4 0.04941,0.022394 0.0053,0.00534 0.01137,0.00998 0.01579,0.016033 0.0043,0.00584 0.01626,0.022885 0.01001,0.019256 -0.5268,-0.3055656 -1.053081,-0.6121307 -1.574527,-0.9267442 -0.0063,-0.00383 0.01189,-0.0092 0.0188,-0.011901 0.0153,-0.00599 0.0166,-0.00273 0.02849,0.00327 0.0031,10e-4 0.0079,4.59e-5 0.0092,0.00301 0.0024,0.00567 5.7e-4,0.012368 3.9e-5,0.018518 -0.0015,0.017576 -0.0099,0.030996 -0.0238,0.041015 -0.01541,0.0018 -0.02821,0.012252 -0.04366,0.013224 -0.0214,0.00135 0.0023,-0.00532 -0.02237,0.00365 -0.004,0.002 -0.0079,0.00448 -0.01212,0.006 -0.0035,0.00124 -0.0073,0.00109 -0.01077,0.00223 -0.01211,0.00395 -0.01559,0.00774 -0.02711,0.014439 -0.0093,0.0054 -0.01886,0.010289 -0.02828,0.015458 -0.0047,0.00113 -0.0098,0.00148 -0.01424,0.0034 -0.01257,0.00537 -0.02902,0.018164 -0.04008,0.025095 -0.05757,0.036071 0.01293,-0.00974 -0.04478,0.024994 -0.0082,0.00493 -0.01593,0.010586 -0.02389,0.015879 -0.0067,0.00266 -0.01381,0.00439 -0.02005,0.00797 -0.0088,0.00504 -0.01633,0.011984 -0.02469,0.017693 -0.0076,0.00518 -0.01559,0.00972 -0.02313,0.01496 -0.02337,0.016255 -0.04542,0.034598 -0.06785,0.052103 -0.02371,0.017791 -0.04554,0.038297 -0.07034,0.054639 -0.0079,0.00522 -0.01647,0.00944 -0.02459,0.014355 -0.01974,0.011966 -0.03497,0.022091 -0.05433,0.034677 -0.0091,0.00602 -0.01832,0.01176 -0.02718,0.018061 -0.05725,0.040668 0.0019,0.00154 -0.05682,0.041811 -0.0325,0.022284 -0.06447,0.043789 -0.09568,0.067978 -0.01275,0.012484 -0.025,0.025495 -0.03825,0.037452 -0.01392,0.012567 -0.029,0.023802 -0.04319,0.036063 -0.01587,0.013713 -0.03133,0.027901 -0.04699,0.041852 -0.01697,0.013929 -0.03419,0.027554 -0.0509,0.041788 -0.03477,0.029613 -0.08157,0.072534 -0.114828,0.1026612 -0.139725,0.1146739 -0.293764,0.2099701 -0.447297,0.3046716 -0.111882,0.065447 -0.221731,0.1345684 -0.324826,0.2132437 -0.05245,0.03984 -0.110671,0.072119 -0.160005,0.1159943 -0.01346,0.011974 -0.02602,0.024934 -0.03903,0.0374 -0.01416,0.012275 -0.02832,0.02455 -0.04248,0.036826 -0.0808,0.067443 -0.163915,0.132582 -0.23984,0.2055628 -0.0231,0.033435 -0.05501,0.05905 -0.08093,0.089957 -0.0895,0.1067356 -0.0043,0.021163 -0.108765,0.1326675 -0.05046,0.053884 -0.08859,0.086981 -0.143047,0.137001 -0.13475,0.1195401 -0.272858,0.2352475 -0.407338,0.3550962 -0.05849,0.054073 -0.05152,0.046149 -0.106708,0.1030251 -0.01647,0.016973 -0.03427,0.032834 -0.04884,0.051462 -0.0167,0.021354 -0.02953,0.045482 -0.04462,0.068005 -0.05162,0.077052 -0.04668,0.0686 -0.102026,0.143916 -0.01731,0.023244 -0.03471,0.046428 -0.05194,0.069732 -0.03455,0.046728 -0.06562,0.0873 -0.09538,0.1373186 -0.04803,0.080716 -0.08437,0.1681191 -0.122635,0.2536436 -0.05096,0.1189116 -0.03362,0.070833 -0.07433,0.1977458 -0.01088,0.033917 -0.02266,0.067583 -0.03196,0.101968 -0.03124,0.1365344 -0.01459,0.070923 -0.04936,0.1969836 0,0 1.52392,0.8101218 1.52392,0.8101218 v 0 c 0.0024,-0.03084 0.0027,-0.0619 0.0071,-0.09252 0.0046,-0.03195 0.01236,-0.06339 0.0199,-0.09477 0.0075,-0.0314 0.01509,-0.06288 0.02534,-0.0935 0.01646,-0.0492 0.05294,-0.127633 0.07423,-0.175184 0.01493,-0.02681 0.02881,-0.05423 0.04478,-0.08044 0.01564,-0.025676 0.03355,-0.049908 0.04998,-0.075083 0.01469,-0.022494 0.02907,-0.045186 0.04339,-0.067919 0.01881,-0.029877 0.0639,-0.1038782 0.08326,-0.1329915 0.01536,-0.023096 0.03174,-0.045494 0.04761,-0.068241 0.05107,-0.066199 0.05026,-0.069439 0.109508,-0.1289807 0.01817,-0.018259 0.03852,-0.03428 0.05643,-0.05279 0.01533,-0.015838 0.02855,-0.033586 0.04314,-0.050105 0.02756,-0.0312 0.06659,-0.073087 0.09463,-0.1034451 0.03467,-0.037932 0.06828,-0.076857 0.103966,-0.1138406 0.02012,-0.020856 0.04127,-0.040698 0.06193,-0.061021 0.06693,-0.065838 0.133426,-0.1321461 0.202324,-0.1959406 0.0744,-0.066583 0.148984,-0.1324449 0.231152,-0.1895251 0.02391,-0.016613 0.04965,-0.030505 0.07351,-0.047189 0.03507,-0.024516 0.06586,-0.054859 0.102689,-0.077023 0.07719,-0.066299 0.149695,-0.1380006 0.228753,-0.2021851 0.01413,-0.011053 0.02782,-0.022708 0.0424,-0.033159 0.06839,-0.049005 0.02217,-0.00994 0.08415,-0.05755 0.01072,-0.00823 0.06381,-0.052783 0.07418,-0.061417 0.0134,-0.011165 0.02683,-0.022301 0.04024,-0.033452 0.09359,-0.075806 0.184188,-0.1552859 0.27859,-0.2301279 0.03359,-0.026294 0.09665,-0.075984 0.130139,-0.100769 0.10138,-0.075033 0.206397,-0.1450687 0.313646,-0.2113968 0.04591,-0.027325 0.09773,-0.057523 0.142838,-0.086721 0.06782,-0.043896 0.13353,-0.09238 0.207521,-0.1257175 0.0669,-0.036108 0.13171,-0.075594 0.196184,-0.1158193 0.05395,-0.034222 0.106551,-0.070427 0.159255,-0.1065276 0.02791,-0.01765 0.05609,-0.036642 0.08578,-0.051239 0.0065,-0.00318 0.0136,-0.00496 0.02001,-0.00825 0.0086,-0.0044 0.01653,-0.00984 0.02479,-0.014764 0.02096,-0.00929 0.04148,-0.020629 0.06324,-0.027942 0.0059,-0.00199 0.03476,-0.00867 0.04103,-0.011155 0.0071,-0.00283 0.01367,-0.00697 0.0205,-0.010455 0.01141,-0.00433 0.02263,-0.00918 0.03418,-0.013125 0.01528,-0.00522 0.0087,-4.372e-4 0.02531,-0.00883 0.0049,-0.00247 0.0092,-0.00589 0.01406,-0.00846 0.0042,-0.00224 0.0087,-0.00398 0.01302,-0.00596 0.01648,-0.00985 0.02975,-0.022495 0.04409,-0.035214 0.02006,-0.017794 0.0398,-0.035861 0.05425,-0.058818 0.01725,-0.024972 0.0218,-0.029607 0.03531,-0.056974 0.02118,-0.042903 0.0343,-0.089232 0.05147,-0.1337246 0.002,-0.010865 0.02115,-0.1069945 0.01623,-0.1100364 -3.088478,-1.9085469 -0.952723,-0.9591509 -1.63856,-0.9440782 -0.04092,0.00147 -0.0083,0.00202 -0.04781,-0.00324 -0.0092,-0.00123 -0.01858,-0.00134 -0.02779,-0.00267 -0.03689,-0.00532 -0.07395,-0.012515 -0.109208,-0.024751 -0.01207,-0.00338 -0.06663,-0.018875 -0.0796,-0.021548 -0.0512,-0.010555 -0.104237,-0.01034 -0.156015,-0.016032 -0.05134,-0.00513 -0.10272,-0.00946 -0.153546,-0.018707 -0.07735,-0.014078 -0.05209,-0.012459 -0.128129,-0.027553 -0.01979,-0.00393 -0.03976,-0.00689 -0.05964,-0.010334 C 14.169515,5.6163156 13.953987,5.5816486 13.739834,5.539167 13.377605,5.477996 13.01309,5.4190663 12.644983,5.4128008 c -0.148896,-0.00209 -0.210594,-0.0024 -0.358745,-0.00666 -0.174482,-0.00502 -0.351476,-0.00758 -0.521228,-0.053036 0,0 1.497965,1.0883354 1.497965,1.0883354 z" />
  <path
     style="fill:#cdb010;fill-opacity:1"
     id="path832"
     d="m 11.605554,9.7917788 c 0.06056,0.1305741 0.122168,0.2608502 0.165848,0.3984062 0.02982,0.0939 0.0686,0.264462 0.08725,0.361228 0.01123,0.05828 0.01963,0.117081 0.02945,0.175621 0.05036,0.196687 0.06869,0.399126 0.09914,0.599275 0.01122,0.07376 0.02637,0.146925 0.03613,0.220894 0.01598,0.121066 0.02386,0.262301 0.03222,0.384719 0.0083,0.227845 0.0154,0.455722 0.04056,0.682447 0.01429,0.143959 0.03301,0.287412 0.04858,0.431248 0.01139,0.110577 0.01809,0.221317 0.01776,0.332467 -0.0011,0.06922 -0.0058,0.138238 -0.01198,0.207171 -0.0064,0.04748 -0.0012,0.09502 -7.74e-4,0.142603 -0.0011,0.04256 -0.01805,0.08257 -0.03028,0.122853 -0.01411,0.0261 -0.02315,0.0544 -0.03527,0.08133 -0.0109,0.01894 -0.02715,0.07199 -0.04587,0.0801 -0.01947,0.02126 -0.0064,-0.0068 -0.0073,-0.01687 -6.97e-4,-0.0077 -0.0023,-0.0085 -0.0064,-0.01444 -0.0057,-0.0085 -0.01609,-0.0055 -0.02287,-0.009 -0.0032,-0.0016 -0.0045,-0.0059 -0.0077,-0.0076 -0.0044,-0.0023 -0.02411,-0.0045 -0.02812,-0.0051 -0.0023,-0.0049 -0.0039,-0.01023 -0.0069,-0.01471 -0.0034,-0.005 -0.02884,-0.03183 -0.03333,-0.03578 -0.0049,-0.0043 -0.02145,-0.01464 -0.01582,-0.0114 0.521914,0.300977 1.043171,0.60309 1.564756,0.904636 -0.04108,-0.01965 -0.07788,-0.04687 -0.116205,-0.07116 -0.07147,-0.0453 -0.009,-0.0022 -0.08041,-0.05314 -0.04997,-0.03521 -0.100574,-0.06981 -0.153513,-0.100472 -1.58932,-0.920525 -1.034188,-0.659302 -1.624972,-0.935906 -0.01192,-0.0049 -0.024,-0.0095 -0.03577,-0.01474 -0.01089,-0.0049 -0.0213,-0.01076 -0.03217,-0.01568 -0.03026,-0.0137 -0.03543,-0.01405 -0.06652,-0.02681 -0.03674,-0.01508 -0.03555,-0.01534 -0.07151,-0.03333 -0.04708,-0.02635 -0.09573,-0.04965 -0.143435,-0.0748 -0.0769,-0.04054 0.01164,0.0033 -0.06608,-0.03449 -0.0104,-0.0057 -0.02051,-0.01206 -0.03121,-0.01724 -0.01061,-0.0051 -0.02191,-0.0087 -0.03263,-0.01364 -0.09378,-0.04302 0.03431,0.01323 -0.05665,-0.02881 -0.04737,-0.02189 -0.0095,5.65e-4 -0.05431,-0.02881 -0.07457,-0.0342 -0.144596,-0.07696 -0.217125,-0.115172 -0.07669,-0.04672 -0.156629,-0.08795 -0.237689,-0.126506 -0.09596,-0.04018 -0.184747,-0.09465 -0.2777,-0.140845 -0.0563,-0.02226 -0.110056,-0.05181 -0.167043,-0.07236 -0.029293,-0.01057 -0.05953,-0.01831 -0.089204,-0.02775 -0.027968,-0.01011 -0.057296,-0.01539 -0.085715,-0.02387 -0.01283,-0.0038 -0.025213,-0.0091 -0.038069,-0.01282 -0.043292,-0.01262 -0.087491,-0.02255 -0.1316982,-0.03124 -0.030569,-0.012 -0.063104,-0.01738 -0.094252,-0.02739 -0.029355,-0.0094 -0.057741,-0.02171 -0.087048,-0.03129 -0.059781,-0.01955 -0.024008,-0.0036 -0.07602,-0.0305 -0.01018,-0.0049 -0.020633,-0.0092 -0.03054,-0.01463 -0.00825,-0.0045 -0.016234,-0.0095 -0.02383,-0.01506 -0.0064,-0.0047 -0.024904,-0.01937 -0.018043,-0.01543 2.3784712,1.36695 2.1270222,1.097149 1.5381702,0.896748 -0.0052,-0.0025 -0.011,-0.004 -0.01563,-0.0074 -0.0063,-0.0047 -0.01106,-0.01099 -0.01656,-0.01651 -0.02362,-0.02373 -0.04389,-0.05066 -0.06355,-0.07773 -0.0055,-0.0069 -0.01147,-0.01349 -0.01665,-0.02066 -0.0059,-0.0082 -0.01076,-0.01717 -0.01664,-0.0254 -0.0269,-0.03766 -0.05944,-0.07193 -0.09057,-0.106074 -0.06702,-0.0684 -0.146439,-0.122165 -0.224447,-0.176933 C 9.8636836,12.740428 9.2814105,12.353895 8.6436901,12.0897 8.6084421,12.07615 8.5707571,12.06415 8.5328729,12.06054 c -0.012651,-0.0012 -0.025415,-1.98e-4 -0.038121,-4.27e-4 -0.066275,-0.0012 -0.020431,-0.0017 -0.090587,3.82e-4 -0.059841,-4.54e-4 -0.117502,0.01327 -0.1751677,0.02729 -0.05921,0.0144 -0.079615,0.01794 -0.137798,0.03954 -0.025296,0.0094 -0.049866,0.02063 -0.074799,0.03095 -0.137632,0.05954 -0.2845348,0.09175 -0.4324868,0.112251 -0.025619,0.0082 -0.052682,0.0063 -0.078801,0.01082 -0.012041,0.0021 -0.023636,0.0063 -0.035621,0.0087 -0.022525,0.0045 -0.051238,0.0066 -0.07341,0.01261 -0.014336,0.0039 -0.028083,0.0096 -0.042124,0.01447 -0.06278,0.01842 -0.1238559,0.0428 -0.1873117,0.05903 -0.039395,0.01008 -0.07955,0.01691 -0.1192832,0.02556 -0.1220425,0.02425 -0.2438526,0.04962 -0.3655004,0.0758 -0.076999,0.02044 -0.1504779,0.05176 -0.2258695,0.07697 -0.039262,0.01313 -0.096194,0.02837 -0.135649,0.03934 -0.024585,0.0065 -0.049353,0.01225 -0.073754,0.01937 -0.1091957,0.03185 -0.047581,0.01728 -0.160336,0.05527 -0.091007,0.03066 -0.1845231,0.05399 -0.2767726,0.08053 -0.028189,0.009 -0.056974,0.01621 -0.084567,0.02687 -0.028415,0.01097 -0.055341,0.02547 -0.083156,0.03788 -0.086808,0.03875 -0.0881,0.03671 -0.1733039,0.07909 -0.047638,0.0237 -0.1160295,0.06093 -0.1631271,0.08625 -0.02577,0.01406 -0.051283,0.0286 -0.077309,0.04218 -0.023094,0.01205 -0.046794,0.0229 -0.070021,0.0347 -0.070554,0.03582 -0.1402524,0.07337 -0.2104874,0.109808 -0.042326,0.01774 -0.079484,0.04501 -0.1192958,0.06725 -0.03774,0.02109 -0.077588,0.03925 -0.1162112,0.05868 -0.044005,0.02642 -0.093059,0.0417 -0.139999,0.06151 -0.025697,0.01085 -0.036714,0.01755 -0.061213,0.03076 -0.038345,0.01898 -0.07619,0.041 -0.1093793,0.06826 -0.01545,0.01269 -0.037187,0.03461 -0.051456,0.0486 -0.024313,0.02104 -0.041245,0.04862 -0.062029,0.07271 -0.00596,0.0069 -0.012884,0.01293 -0.019059,0.01965 -0.072013,0.07834 0.032015,-0.03206 -0.041396,0.04544 -0.021145,0.01789 -0.035661,0.04119 -0.051286,0.06359 -0.010521,0.01508 -0.020656,0.02892 -0.029228,0.04528 -0.027134,0.04723 -0.059698,0.09097 -0.093949,0.133193 -0.026868,0.03673 -0.043388,0.0778 -0.054165,0.121617 -7.287e-4,0.0056 -0.00277,0.01117 -0.00219,0.01678 1.385e-4,0.0013 0.00363,-8.71e-4 0.00398,4.14e-4 0.00137,0.005 -0.00363,0.01239 5.063e-4,0.01547 0.00124,9.25e-4 0.0016,-0.0031 0.00102,-0.0045 -0.00401,0.0023 -0.00803,0.0045 -0.012038,0.0068 -0.00621,0.0045 -0.011998,0.0096 -0.01864,0.01336 -0.00597,0.0034 -0.012986,0.0047 -0.018971,0.0081 -0.00823,0.0046 -0.015393,0.01098 -0.023469,0.01587 -0.00621,0.0038 -0.013393,0.0059 -0.019317,0.01006 -0.00763,0.0054 -0.014034,0.01236 -0.021051,0.01855 -0.00624,0.0067 -0.012285,0.01362 -0.018727,0.02014 -0.00372,0.0038 -0.00838,0.0066 -0.011745,0.01071 -0.018649,0.02271 -0.029547,0.04941 -0.040448,0.07624 -0.00764,0.02284 -0.01421,0.04607 -0.018918,0.0697 -0.00283,0.01419 -0.00594,0.0107 -0.0011,0.01502 -0.00396,0.01986 -0.00916,0.03942 -0.012275,0.0595 -0.00139,0.01893 -0.00709,0.03733 -0.00774,0.05635 -1.693e-4,0.005 0.00118,0.0098 0.00152,0.01479 0.00133,0.01937 7.107e-4,0.01974 -1.564e-4,0.04012 -0.035963,0.656562 0.4834259,0.343194 1.6058526,0.986554 0.0057,0.0033 0.011323,-0.0072 0.017745,-0.0086 0.00298,-6.48e-4 0.00568,0.0024 0.00871,0.0028 0.00375,5.03e-4 0.00756,-1.03e-4 0.011338,-1.55e-4 0.011452,0.0082 0.022278,0.0052 0.035242,0.0037 0.00506,-5.92e-4 0.010361,2.01e-4 0.015217,-0.0013 0.019689,-0.0062 0.030506,-0.01774 0.046798,-0.03056 0.00784,-0.0075 0.015153,-0.01556 0.023517,-0.02245 0.00546,-0.0045 0.0123,-0.0071 0.017787,-0.01159 0.021724,-0.01769 0.020088,-0.021 0.039708,-0.03862 0.00657,-0.0059 0.015132,-0.01107 0.022601,-0.01586 0.026559,-0.02935 0.052405,-0.05827 0.072622,-0.09242 0.00518,-0.0092 0.010929,-0.0182 0.015534,-0.02774 0.036945,-0.07657 -0.012178,0.012 0.03694,-0.08146 0.00829,-0.01577 0.018142,-0.03069 0.026595,-0.04637 0.06761,-0.125477 -0.01402,0.01733 0.060969,-0.111645 0.059455,-0.08329 0.1035693,-0.176688 0.1636569,-0.259548 0.042446,-0.05853 0.061743,-0.07518 0.1108807,-0.126229 0.064209,-0.06305 0.1402566,-0.1122 0.2052424,-0.174262 0.00476,-0.0039 0.00951,-0.0077 0.014267,-0.0116 0.00496,-0.005 0.00954,-0.01049 0.014889,-0.01513 0.00377,-0.0033 0.0084,-0.0054 0.012331,-0.0085 0.00839,-0.0066 0.016025,-0.01405 0.024121,-0.02098 0,0 -1.582636,-0.975181 -1.582636,-0.975181 v 0 c -0.025024,0.02616 -0.048084,0.05366 -0.067814,0.08415 -0.043307,0.07279 -0.072725,0.153287 -0.1203302,0.223767 -0.040885,0.06034 -0.052416,0.08041 -0.1002241,0.137795 -0.019846,0.02382 -0.041651,0.04595 -0.06195,0.06939 -0.049392,0.05703 -0.097443,0.115611 -0.1402362,0.177803 -0.091892,0.114062 0.00463,-0.0044 -0.082973,0.09926 -0.011125,0.01316 -0.02104,0.02735 -0.032686,0.04005 -0.024702,0.02694 -0.054388,0.04732 -0.081689,0.07125 -0.013573,0.01039 -0.026985,0.02108 -0.039346,0.03291 -0.0014,0.0013 -0.014972,0.01611 -0.019551,0.01917 -0.00154,10e-4 -0.00347,0.0013 -0.0052,0.0019 -0.00523,0.0046 -0.022678,0.02383 -0.030714,0.0239 -0.00204,1.7e-5 -0.0036,-0.0024 -0.00564,-0.0024 -0.019594,4.78e-4 -0.00859,0.0095 -0.020395,-0.0073 -2.895e-4,-0.0051 4.858e-4,-0.01044 -8.684e-4,-0.01541 -0.00354,-0.01296 -0.00703,-0.01054 -0.016402,-0.01727 -0.010818,-0.0078 -0.018218,-0.01548 -0.032709,-0.01569 -0.00239,-0.0019 -0.00448,-0.0042 -0.00716,-0.0057 -0.00287,-0.0016 -0.00782,-3.56e-4 -0.00926,-0.0033 -0.00213,-0.0043 -0.00363,-0.01688 5.495e-4,-0.01447 0.3961812,0.228252 2.1253658,0.612462 1.5623043,0.950837 -0.0079,0.0017 -0.012304,0.0051 -0.019037,-7.78e-4 -0.00217,-0.0019 -0.00203,-0.0061 -0.00466,-0.0073 -0.00817,-0.0036 -0.014508,0.0113 -0.01375,-0.0045 -0.00129,-0.01554 -0.00253,-0.03041 0.003,-0.04554 0.00151,-0.0061 0.00374,-0.01217 0.00453,-0.01845 0.00155,-0.01235 -0.00551,-0.02768 -0.00343,-0.04051 6.713e-4,-0.0042 0.00295,-0.008 0.00341,-0.01218 7.4e-5,-6.8e-4 -0.0024,8.84e-4 -0.00203,3.1e-4 0.00645,-0.0099 0.00366,-0.0067 0.00885,-0.01196 0.021392,-0.01447 -0.016122,0.01129 0.022241,-0.01778 0.030278,-0.02294 0.063792,-0.04176 0.091836,-0.06767 0.010303,-0.01066 0.021533,-0.02049 0.030908,-0.03197 0.017467,-0.02139 0.029406,-0.04575 0.038445,-0.07149 0.010076,-0.02869 0.010039,-0.01616 0.00809,-0.03453 -0.00386,-0.0179 -0.00978,-0.03418 -0.00185,-0.05221 0.019874,-0.04594 0.050144,-0.0852 0.083743,-0.122115 0.00652,-0.0071 0.013541,-0.01387 0.019566,-0.02144 0.019839,-0.02493 0.029576,-0.05636 0.049025,-0.08152 0.031776,-0.04357 0.071017,-0.08132 0.1093894,-0.119066 0.038873,-0.0324 0.085226,-0.05378 0.1287006,-0.07922 0.06403,-0.03167 0.124844,-0.06877 0.1866489,-0.10452 0.038629,-0.02183 0.075972,-0.04544 0.1141814,-0.06791 0.039955,-0.0235 0.080966,-0.04516 0.1181808,-0.07314 0.098899,-0.07099 0.1896348,-0.153337 0.29435,-0.216193 0.076423,-0.04156 0.1525181,-0.08279 0.2329278,-0.116338 0.1126591,-0.047 0.056671,-0.02105 0.1746016,-0.05937 0.026148,-0.0085 0.05176,-0.01856 0.07764,-0.02784 0.062016,-0.02178 0.1039213,-0.03753 0.167785,-0.05555 0.031478,-0.0089 0.063127,-0.01728 0.095103,-0.02416 0.033552,-0.0072 0.067662,-0.01158 0.1013534,-0.01812 0.061481,-0.01194 0.099963,-0.0217 0.160391,-0.03603 0.1294263,-0.03072 0.2589976,-0.06088 0.3878219,-0.09406 0.1160476,-0.03016 0.2332098,-0.05585 0.3507852,-0.07931 0.1139315,-0.02181 0.2276888,-0.04447 0.3414539,-0.06713 0.041478,-0.0052 0.080977,-0.01292 0.1216501,-0.02244 0.01279,-0.003 0.025864,-0.0049 0.038443,-0.0087 0.02394,-0.0072 0.046153,-0.01845 0.068708,-0.02892 0.1211668,-0.06315 0.2479844,-0.116036 0.3821732,-0.144415 0.072364,-0.0123 0.1454749,-0.02598 0.2191823,-0.02686 0.058395,-6.97e-4 0.1164745,0.0081 0.1736128,0.01912 0.032002,0.0083 0.061294,0.01466 0.092038,0.02667 0.042489,0.01659 0.081857,0.03993 0.121261,0.06255 0.520566,0.327774 0.114767,0.07174 -1.4791426,-0.854581 -0.014043,-0.0082 0.029554,0.0136 0.0436,0.02176 0.014423,0.0084 0.02766,0.01864 0.041641,0.02774 0.014012,0.0091 0.028279,0.01783 0.042331,0.02689 0.014541,0.0094 0.028964,0.01891 0.043446,0.02837 0.06896,0.0459 0.1379168,0.09194 0.2042314,0.141606 0.018157,0.0134 0.033139,0.02376 0.049919,0.03882 0.013842,0.01243 0.026506,0.02611 0.040059,0.03885 0.00612,0.0058 0.012967,0.01078 0.018465,0.01713 0.00586,0.0068 0.01028,0.01465 0.01542,0.02197 0.029659,0.0363 0.00114,2.8e-5 0.028829,0.0396 0.017409,0.02488 0.035807,0.04968 0.045708,0.07879 0.00259,0.0054 0.015939,0.03594 0.02241,0.03974 2.8121022,1.652984 0.9684382,0.782472 1.6685612,0.943501 0.01073,0.0019 0.0216,0.0031 0.0322,0.0057 0.02576,0.0061 0.05072,0.01526 0.07637,0.02185 0.04551,0.01171 0.09119,0.02277 0.136625,0.03482 0.04704,0.01601 0.09399,0.03283 0.141268,0.04808 0.03694,0.01191 0.07473,0.02138 0.110283,0.03744 0.08319,0.03481 0.163813,0.07597 0.24378,0.117589 0.09164,0.0477 0.186811,0.08857 0.276013,0.141012 0.07736,0.04262 0.154994,0.08471 0.23224,0.127533 0.07761,0.04378 0.157475,0.08303 0.235444,0.12611 0.06006,0.02596 0.117748,0.05692 0.176349,0.08592 0.0665,0.03495 0.134413,0.06734 0.203145,0.09766 0.07029,0.03118 0.139838,0.06449 0.206389,0.103027 0.527202,0.325918 0.02889,0.01745 -1.486375,-0.858959 -0.01318,-0.0076 0.02617,0.01556 0.03933,0.0232 0.04056,0.02356 0.0821,0.04537 0.12219,0.06974 0.07466,0.04762 7.45e-4,-0.0017 0.06734,0.04901 0.02895,0.02205 0.06085,0.0406 0.08723,0.06605 0.534182,0.30942 1.067919,0.619608 1.602545,0.928258 0.01991,0.01149 0.06341,0.01957 0.08632,0.01618 0.0078,-0.0012 0.01509,-0.0047 0.02263,-0.0071 0.0078,6.23e-4 0.02643,0.0025 0.03386,0.0014 0.007,-9.59e-4 0.01365,-0.004 0.02062,-0.0055 0.01535,-0.0032 0.03075,-0.0035 0.04419,-0.01307 0.03701,-0.02382 0.06787,-0.05627 0.08717,-0.09619 0.01846,-0.03572 0.03232,-0.07355 0.05364,-0.107869 0.0085,-0.01699 0.01841,-0.03354 0.02577,-0.05109 0.0076,-0.01813 0.0064,-0.01758 0.01181,-0.03543 0.0025,-0.0081 0.0051,-0.0162 0.0076,-0.02429 0.01449,-0.05173 0.02454,-0.104571 0.03741,-0.156735 0.0097,-0.05325 0.0141,-0.106526 0.0075,-0.160543 -0.0062,-0.07701 -0.01156,-0.154072 -0.01806,-0.23105 -0.01005,-0.120321 -0.02141,-0.240704 -0.04195,-0.359762 -0.01985,-0.152577 -0.04339,-0.304909 -0.07819,-0.454878 -0.0067,-0.03064 -0.01276,-0.06143 -0.02008,-0.09194 -0.01808,-0.07536 -0.03673,-0.137883 -0.05781,-0.212968 -0.04217,-0.15017 -0.08567,-0.300016 -0.122507,-0.451619 -0.02904,-0.136819 -0.05895,-0.264194 -0.07643,-0.403417 -0.0088,-0.06977 -0.01135,-0.140169 -0.01745,-0.210217 -0.01707,-0.196162 -0.03978,-0.391674 -0.05685,-0.58783 -0.0092,-0.05311 -0.05318,-0.303584 -0.06127,-0.357936 -0.0083,-0.05551 -0.01784,-0.110992 -0.02139,-0.167002 -0.0047,-0.07472 -3.62e-4,-0.161755 0.01606,-0.236327 0.0037,-0.01689 0.01165,-0.03258 0.01747,-0.04887 0,0 -1.646408,-0.8152012 -1.646408,-0.8152012 z" />
</svg>
