<svg xmlns="http://www.w3.org/2000/svg" viewBox="0 0 44 44">
    <symbol id="facebook-logo" viewBox="0 0 44 44">
        <circle cx="22" cy="22" r="22" fill="var(--fill-logo-bg, #FFFFFF)"/>
        <path d="M25.7188 23L26.1562 20.125H23.375V18.25C23.375 17.4375 23.75 16.6875 25 16.6875H26.2812V14.2188C26.2812 14.2188 25.125 14 24.0312 14C21.75 14 20.25 15.4062 20.25 17.9062V20.125H17.6875V23H20.25V30H23.375V23H25.7188Z" fill="var(--fill-logo-lg, #5F8AD4)"/>
    </symbol>

    <symbol id="insta-logo" viewBox="0 0 44 44">
        <circle cx="22" cy="22" r="22" fill="var(--fill-logo-bg, #FFFFFF)"/>
        <path d="M22 18.4062C20 18.4062 18.4062 20.0312 18.4062 22C18.4062 24 20 25.5938 22 25.5938C23.9688 25.5938 25.5938 24 25.5938 22C25.5938 20.0312 23.9688 18.4062 22 18.4062ZM22 24.3438C20.7188 24.3438 19.6562 23.3125 19.6562 22C19.6562 20.7188 20.6875 19.6875 22 19.6875C23.2812 19.6875 24.3125 20.7188 24.3125 22C24.3125 23.3125 23.2812 24.3438 22 24.3438ZM26.5625 18.2812C26.5625 17.8125 26.1875 17.4375 25.7188 17.4375C25.25 17.4375 24.875 17.8125 24.875 18.2812C24.875 18.75 25.25 19.125 25.7188 19.125C26.1875 19.125 26.5625 18.75 26.5625 18.2812ZM28.9375 19.125C28.875 18 28.625 17 27.8125 16.1875C27 15.375 26 15.125 24.875 15.0625C23.7188 15 20.25 15 19.0938 15.0625C17.9688 15.125 17 15.375 16.1562 16.1875C15.3438 17 15.0938 18 15.0312 19.125C14.9688 20.2812 14.9688 23.75 15.0312 24.9062C15.0938 26.0312 15.3438 27 16.1562 27.8438C17 28.6562 17.9688 28.9062 19.0938 28.9688C20.25 29.0312 23.7188 29.0312 24.875 28.9688C26 28.9062 27 28.6562 27.8125 27.8438C28.625 27 28.875 26.0312 28.9375 24.9062C29 23.75 29 20.2812 28.9375 19.125ZM27.4375 26.125C27.2188 26.75 26.7188 27.2188 26.125 27.4688C25.1875 27.8438 23 27.75 22 27.75C20.9688 27.75 18.7812 27.8438 17.875 27.4688C17.25 27.2188 16.7812 26.75 16.5312 26.125C16.1562 25.2188 16.25 23.0312 16.25 22C16.25 21 16.1562 18.8125 16.5312 17.875C16.7812 17.2812 17.25 16.8125 17.875 16.5625C18.7812 16.1875 20.9688 16.2812 22 16.2812C23 16.2812 25.1875 16.1875 26.125 16.5625C26.7188 16.7812 27.1875 17.2812 27.4375 17.875C27.8125 18.8125 27.7188 21 27.7188 22C27.7188 23.0312 27.8125 25.2188 27.4375 26.125Z" fill="var(--fill-logo-lg, #5F8AD4)"/>
    </symbol>

    <symbol id="pinterest-logo" viewBox="0 0 44 44">
        <circle cx="22" cy="22" r="22" fill="var(--fill-logo-bg, #FFFFFF)"/>
        <path d="M22.375 14.2188C19.1562 14.2188 16 16.3438 16 19.8125C16 22 17.2188 23.25 17.9688 23.25C18.2812 23.25 18.4688 22.4062 18.4688 22.1562C18.4688 21.875 17.7188 21.25 17.7188 20.0312C17.7188 17.5312 19.625 15.75 22.0938 15.75C24.25 15.75 25.8125 16.9688 25.8125 19.1875C25.8125 20.8438 25.1562 23.9375 23 23.9375C22.2188 23.9375 21.5312 23.375 21.5312 22.5938C21.5312 21.4062 22.375 20.25 22.375 19.0312C22.375 16.9688 19.4375 17.3438 19.4375 19.8438C19.4375 20.375 19.5 20.9375 19.75 21.4375C19.3125 23.2812 18.4375 26.0625 18.4375 27.9688C18.4375 28.5625 18.5 29.125 18.5625 29.7188C18.6562 29.8438 18.625 29.8438 18.7812 29.7812C20.3438 27.625 20.3125 27.1875 21 24.375C21.4062 25.0938 22.375 25.5 23.1875 25.5C26.5 25.5 28 22.25 28 19.3438C28 16.25 25.3125 14.2188 22.375 14.2188Z" fill="var(--fill-logo-lg, #5F8AD4)"/>
    </symbol>

    <symbol id="twitter-logo" viewBox="0 0 44 44">
        <circle cx="22" cy="22" r="22" fill="var(--fill-logo-bg, #FFFFFF)"/>
        <path d="M28.3438 18.75C28.9688 18.2812 29.5312 17.7188 29.9688 17.0625C29.4062 17.3125 28.75 17.5 28.0938 17.5625C28.7812 17.1562 29.2812 16.5312 29.5312 15.75C28.9062 16.125 28.1875 16.4062 27.4688 16.5625C26.8438 15.9062 26 15.5312 25.0625 15.5312C23.25 15.5312 21.7812 17 21.7812 18.8125C21.7812 19.0625 21.8125 19.3125 21.875 19.5625C19.1562 19.4062 16.7188 18.0938 15.0938 16.125C14.8125 16.5938 14.6562 17.1562 14.6562 17.7812C14.6562 18.9062 15.2188 19.9062 16.125 20.5C15.5938 20.4688 15.0625 20.3438 14.625 20.0938V20.125C14.625 21.7188 15.75 23.0312 17.25 23.3438C17 23.4062 16.6875 23.4688 16.4062 23.4688C16.1875 23.4688 16 23.4375 15.7812 23.4062C16.1875 24.7188 17.4062 25.6562 18.8438 25.6875C17.7188 26.5625 16.3125 27.0938 14.7812 27.0938C14.5 27.0938 14.25 27.0625 14 27.0312C15.4375 27.9688 17.1562 28.5 19.0312 28.5C25.0625 28.5 28.3438 23.5312 28.3438 19.1875C28.3438 19.0312 28.3438 18.9062 28.3438 18.75Z" fill="var(--fill-logo-lg, #5F8AD4)"/>
    </symbol>

    <symbol id="youtube-logo" viewBox="0 0 44 44">
        <circle cx="22" cy="22" r="22" fill="var(--fill-logo-bg, #FFFFFF)"/>
        <path d="M30.1562 17.9062C29.9688 17.1562 29.375 16.5625 28.6562 16.375C27.3125 16 22 16 22 16C22 16 16.6562 16 15.3125 16.375C14.5938 16.5625 14 17.1562 13.8125 17.9062C13.4375 19.2188 13.4375 22.0312 13.4375 22.0312C13.4375 22.0312 13.4375 24.8125 13.8125 26.1562C14 26.9062 14.5938 27.4688 15.3125 27.6562C16.6562 28 22 28 22 28C22 28 27.3125 28 28.6562 27.6562C29.375 27.4688 29.9688 26.9062 30.1562 26.1562C30.5312 24.8125 30.5312 22.0312 30.5312 22.0312C30.5312 22.0312 30.5312 19.2188 30.1562 17.9062ZM20.25 24.5625V19.5L24.6875 22.0312L20.25 24.5625Z" fill="var(--fill-logo-lg, #5F8AD4)"/>
    </symbol>
</svg>