<svg width="89" height="89" viewBox="0 0 89 89" fill="none" xmlns="http://www.w3.org/2000/svg">
<rect width="89" height="89" rx="22" fill="#F7F3E6"/>
<path d="M70.3286 22.6539C70.2553 21.8919 69.9254 21.1794 69.3951 20.6381C68.8648 20.0968 68.1671 19.7602 67.4209 19.6857C58.0912 18.7714 48.6973 18.7714 39.3676 19.6857C38.6196 19.7592 37.9199 20.096 37.3884 20.6386C36.8569 21.1811 36.5268 21.8955 36.4545 22.6594C35.7549 30.1146 35.6024 37.6127 35.9981 45.0911C33.261 45.1713 30.5117 45.3124 27.7367 45.5185C25.4167 45.691 23.2423 46.7383 21.6361 48.4569C20.03 50.1754 19.1068 52.4424 19.0461 54.8173C18.9865 57.0829 18.9852 59.3817 19.0393 61.6445C19.0839 63.7426 19.8051 65.7671 21.0911 67.4039C21.2186 67.5595 21.4006 67.658 21.5983 67.6785C21.796 67.6989 21.9936 67.6396 22.1491 67.5131C22.3045 67.3867 22.4053 67.2033 22.4301 67.002C22.4548 66.8006 22.4015 66.5974 22.2816 66.4357C21.204 65.0642 20.5999 63.3679 20.5629 61.6099C20.5088 59.372 20.5115 57.1009 20.5697 54.863C20.6135 52.8721 21.3836 50.9698 22.7292 49.5286C24.0747 48.0874 25.8987 47.2112 27.8437 47.0718C36.6838 46.4053 45.5599 46.4021 54.4005 47.0621C56.3395 47.1995 58.1587 48.0703 59.5026 49.5044C60.8465 50.9386 61.6185 52.8329 61.6678 54.8173C61.7273 57.0594 61.7287 59.3416 61.6759 61.5947C61.6281 63.6792 60.7882 65.663 59.3338 67.1264C57.8795 68.5898 55.9247 69.4179 53.8831 69.4357H53.141C51.4885 69.4322 49.8806 68.8882 48.553 67.8833C47.2254 66.8784 46.248 65.4656 45.764 63.852C45.5231 63.0238 45.0267 62.2972 44.3488 61.7803C43.6709 61.2634 42.8477 60.9839 42.0017 60.9833H40.2411C39.3927 60.9826 38.5669 61.2625 37.8872 61.7811C37.2076 62.2997 36.7106 63.0292 36.4707 63.8603C35.9869 65.4734 35.0099 66.8859 33.6828 67.8908C32.3558 68.8956 30.7485 69.4399 29.0965 69.444H28.3543C26.9456 69.436 25.5652 69.0394 24.3591 68.296C24.1863 68.1892 23.9791 68.1569 23.783 68.2062C23.5869 68.2555 23.4181 68.3823 23.3135 68.5588C23.209 68.7352 23.1774 68.9468 23.2257 69.1471C23.2739 69.3473 23.3981 69.5198 23.5709 69.6265C25.0116 70.5161 26.6613 70.9907 28.3448 71H29.1032C31.0783 70.9879 32.9982 70.3338 34.5846 69.1323C36.1711 67.9309 37.3417 66.2447 37.9266 64.3181C38.073 63.8094 38.3761 63.3625 38.7908 63.0436C39.2055 62.7247 39.7098 62.5508 40.2289 62.5477H41.9896C42.5084 62.5512 43.0124 62.725 43.427 63.0436C43.8416 63.3622 44.1448 63.8085 44.2919 64.3167C44.8771 66.2459 46.0496 67.9342 47.6388 69.1361C49.228 70.3381 51.1512 70.991 53.1288 71H53.8859C56.3237 70.9806 58.6585 69.9929 60.3959 68.2462C62.1332 66.4995 63.1368 64.1309 63.1941 61.6417C63.2496 59.3582 63.2469 57.0497 63.1941 54.7814C63.1941 54.7302 63.1941 54.6804 63.1859 54.6306C64.5971 54.5338 66.0192 54.4176 67.425 54.2793C68.1712 54.2029 68.8684 53.8646 69.3978 53.3221C69.9273 52.7797 70.2562 52.0665 70.3286 51.3042C71.2238 41.7759 71.2238 32.1821 70.3286 22.6539ZM68.8118 51.1562C68.7734 51.5603 68.5987 51.9383 68.3176 52.2255C68.0364 52.5126 67.6663 52.691 67.2706 52.7302C65.8512 52.8685 64.417 52.9874 62.9923 53.0829C62.6496 51.3805 61.8566 49.8067 60.6994 48.5324C62.2393 47.5157 63.5598 46.1888 64.58 44.6328C65.6001 43.0767 66.2985 41.3244 66.6324 39.483C66.9662 37.6417 66.9285 35.7501 66.5215 33.9242C66.1144 32.0983 65.3467 30.3765 64.2653 28.8642C64.2063 28.7817 64.1319 28.7119 64.0465 28.6588C63.961 28.6057 63.8661 28.5703 63.7673 28.5546C63.6684 28.539 63.5676 28.5433 63.4704 28.5675C63.3732 28.5917 63.2816 28.6351 63.2008 28.6954C63.1201 28.7557 63.0518 28.8317 62.9998 28.919C62.9478 29.0062 62.9131 29.1031 62.8978 29.2041C62.8824 29.305 62.8867 29.4081 62.9104 29.5073C62.934 29.6066 62.9766 29.7001 63.0356 29.7826C64.0145 31.1521 64.7032 32.7149 65.0578 34.3714C65.4124 36.0278 65.4252 37.7416 65.0953 39.4034C64.7654 41.0651 64.1001 42.6385 63.1418 44.0231C62.1834 45.4077 60.9531 46.5732 59.5293 47.4452C58.076 46.3126 56.3298 45.6394 54.5061 45.5088C51.1203 45.2585 47.7725 45.1022 44.4233 45.0413C42.4126 42.7318 41.3353 39.729 41.4089 36.6396C41.4825 33.5502 42.7016 30.6044 44.8199 28.3975C46.9381 26.1907 49.7976 24.8872 52.8206 24.7504C55.8436 24.6137 58.8047 25.6539 61.1057 27.6608C61.2601 27.7915 61.4587 27.8546 61.6584 27.8366C61.8581 27.8185 62.0428 27.7207 62.1723 27.5644C62.3018 27.4081 62.3657 27.2059 62.3501 27.0017C62.3345 26.7976 62.2407 26.608 62.0889 26.4741C59.5787 24.3116 56.3813 23.1603 53.0981 23.2367C49.8149 23.3131 46.6722 24.6119 44.2609 26.8889C41.8497 29.1659 40.3361 32.2641 40.0049 35.601C39.6736 38.9378 40.5475 42.2832 42.4622 45.0081C40.8172 44.9971 39.1703 45.0081 37.5217 45.0413C37.1274 37.6258 37.2772 30.1905 37.9699 22.7977C38.0088 22.3934 38.1838 22.0153 38.4651 21.728C38.7464 21.4408 39.1166 21.262 39.5125 21.2223C48.7459 20.3192 58.0426 20.3192 67.276 21.2223C67.6719 21.2616 68.0422 21.4402 68.3234 21.7276C68.6046 22.015 68.7791 22.3933 68.8172 22.7977C69.7043 32.2275 69.7043 41.7223 68.8172 51.152L68.8118 51.1562Z" fill="black"/>
<path d="M53.3996 33.8255C52.7889 33.8255 52.1919 34.0104 51.6841 34.357C51.1763 34.7035 50.7805 35.196 50.5468 35.7722C50.3131 36.3485 50.252 36.9825 50.3711 37.5943C50.4902 38.206 50.7843 38.7679 51.2162 39.2089C51.648 39.65 52.1982 39.9503 52.7972 40.072C53.3962 40.1937 54.017 40.1312 54.5813 39.8925C55.1455 39.6539 55.6278 39.2497 55.9671 38.7311C56.3063 38.2125 56.4875 37.6028 56.4875 36.979C56.4864 36.143 56.1607 35.3415 55.5819 34.7504C55.003 34.1592 54.2182 33.8266 53.3996 33.8255ZM53.3996 38.5752C53.0901 38.5763 52.7873 38.4836 52.5294 38.3088C52.2715 38.1341 52.0702 37.8851 51.9508 37.5935C51.8315 37.3018 51.7996 36.9806 51.8592 36.6704C51.9187 36.3602 52.067 36.0751 52.2852 35.851C52.5035 35.6269 52.782 35.474 53.0854 35.4116C53.3888 35.3492 53.7035 35.3801 53.9897 35.5004C54.2758 35.6208 54.5207 35.8251 54.6931 36.0875C54.8655 36.35 54.9579 36.6588 54.9584 36.9749C54.9588 37.398 54.7949 37.804 54.5027 38.104C54.2106 38.4039 53.8139 38.5734 53.3996 38.5752Z" fill="black"/>
<path d="M29.3687 50.1271H28.1499C27.5793 50.1289 27.0327 50.3615 26.6297 50.7739C26.2266 51.1863 25.9999 51.745 25.9992 52.3277V53.8021H24.5528C23.9812 53.8028 23.4332 54.0351 23.029 54.4478C22.6248 54.8606 22.3974 55.4203 22.3967 56.004V57.2489C22.3985 57.8318 22.6264 58.3902 23.0305 58.8019C23.4346 59.2136 23.982 59.4449 24.5528 59.4453H25.9965V60.9197C25.9983 61.5029 26.2264 62.0615 26.6308 62.4732C27.0352 62.8849 27.5829 63.1161 28.1539 63.1161H29.3728C29.9444 63.1154 30.4924 62.8832 30.8966 62.4704C31.3008 62.0576 31.5282 61.4979 31.5289 60.9142V59.4453H32.9726C33.5438 59.4446 34.0915 59.2125 34.4954 58.7999C34.8993 58.3874 35.1266 57.8281 35.1273 57.2447V55.9999C35.1269 55.4163 34.8998 54.8566 34.4959 54.4438C34.0919 54.0309 33.5441 53.7987 32.9726 53.7979H31.5248V52.3277C31.5241 51.744 31.2967 51.1845 30.8924 50.772C30.4882 50.3594 29.9402 50.1275 29.3687 50.1271ZM32.9685 55.3581C33.136 55.3585 33.2965 55.4267 33.4149 55.5478C33.5332 55.6689 33.5996 55.833 33.5996 56.004V57.2489C33.5996 57.4198 33.5331 57.5838 33.4148 57.7046C33.2964 57.8255 33.1359 57.8934 32.9685 57.8934H30.7623C30.5603 57.8938 30.3667 57.976 30.224 58.122C30.0813 58.268 30.0012 58.4658 30.0012 58.6721V60.9239C30.0008 61.0951 29.9341 61.2591 29.8156 61.3802C29.697 61.5012 29.5364 61.5694 29.3687 61.5698H28.1499C27.9824 61.5694 27.8218 61.5012 27.7035 61.3801C27.5852 61.259 27.5187 61.0949 27.5187 60.9239V58.668C27.5187 58.4614 27.4384 58.2634 27.2954 58.1173C27.1524 57.9713 26.9585 57.8893 26.7563 57.8893H24.5528C24.3853 57.8893 24.2246 57.8214 24.1061 57.7006C23.9875 57.5797 23.9207 57.4158 23.9203 57.2447V55.9999C23.9207 55.8287 23.9874 55.6646 24.106 55.5436C24.2245 55.4225 24.3852 55.3543 24.5528 55.354H26.7603C26.8604 55.3542 26.9595 55.3342 27.052 55.2952C27.1445 55.2562 27.2286 55.199 27.2994 55.1268C27.3702 55.0546 27.4264 54.9688 27.4647 54.8744C27.5031 54.78 27.5228 54.6788 27.5228 54.5766V52.3277C27.5228 52.1567 27.5893 51.9928 27.7077 51.8719C27.826 51.751 27.9865 51.6831 28.1539 51.6831H29.3728C29.5403 51.6831 29.701 51.751 29.8195 51.8718C29.9381 51.9927 30.0049 52.1566 30.0053 52.3277V54.5808C30.0053 54.787 30.0855 54.9847 30.2282 55.1304C30.3709 55.2762 30.5645 55.3581 30.7664 55.3581H32.9685Z" fill="black"/>
<path d="M58.6991 53.2961C58.6991 52.6699 58.5172 52.0577 58.1765 51.537C57.8358 51.0163 57.3516 50.6106 56.7851 50.371C56.2185 50.1314 55.5952 50.0688 54.9938 50.191C54.3924 50.3133 53.84 50.615 53.4065 51.0579C52.973 51.5008 52.6779 52.0651 52.5584 52.6793C52.439 53.2935 52.5005 53.9301 52.7354 54.5086C52.9702 55.0871 53.3678 55.5815 53.8778 55.9292C54.3877 56.2769 54.9872 56.4624 55.6004 56.4621C56.4222 56.4614 57.2102 56.1275 57.7912 55.5339C58.3722 54.9403 58.6987 54.1354 58.6991 53.2961ZM54.024 53.2961C54.024 52.9776 54.1165 52.6663 54.2897 52.4015C54.463 52.1367 54.7093 51.9304 54.9974 51.8086C55.2856 51.6867 55.6026 51.6549 55.9084 51.7172C56.2143 51.7794 56.4952 51.9329 56.7156 52.1582C56.936 52.3835 57.086 52.6705 57.1467 52.9829C57.2074 53.2953 57.176 53.619 57.0564 53.9132C56.9369 54.2073 56.7347 54.4587 56.4752 54.6354C56.2158 54.8121 55.9109 54.9063 55.599 54.9061C55.1813 54.9053 54.7809 54.7354 54.4856 54.4336C54.1904 54.1318 54.0243 53.7227 54.024 53.2961Z" fill="black"/>
<path d="M48.5039 59.3815C48.5036 60.0077 48.6852 60.62 49.0257 61.1408C49.3662 61.6616 49.8502 62.0676 50.4167 62.3075C50.9831 62.5473 51.6065 62.6102 52.2079 62.4882C52.8093 62.3662 53.3618 62.0648 53.7955 61.6221C54.2292 61.1794 54.5246 60.6152 54.6443 60.0011C54.764 59.3869 54.7027 58.7502 54.4681 58.1716C54.2335 57.593 53.8362 57.0985 53.3264 56.7505C52.8165 56.4026 52.2171 56.2169 51.6039 56.2169C50.7823 56.218 49.9946 56.5517 49.4135 57.1449C48.8325 57.7381 48.5053 58.5424 48.5039 59.3815ZM53.1804 59.3815C53.1806 59.7 53.0884 60.0114 52.9153 60.2763C52.7423 60.5413 52.4962 60.7478 52.2081 60.8699C51.9201 60.992 51.6031 61.0241 51.2972 60.9621C50.9913 60.9001 50.7103 60.7469 50.4897 60.5218C50.2691 60.2967 50.1188 60.0098 50.0579 59.6975C49.997 59.3851 50.0281 59.0614 50.1474 58.7671C50.2667 58.4728 50.4687 58.2213 50.728 58.0443C50.9872 57.8674 51.2921 57.7729 51.6039 57.7729C52.0217 57.7733 52.4222 57.9428 52.7178 58.2444C53.0133 58.5459 53.1796 58.9549 53.1804 59.3815Z" fill="black"/>
<path d="M42.511 58.5838C42.7738 58.5908 43.0354 58.544 43.2802 58.4461C43.5251 58.3483 43.7483 58.2013 43.9366 58.0139C44.125 57.8266 44.2747 57.6026 44.3769 57.3551C44.4791 57.1077 44.5318 56.8419 44.5318 56.5734C44.5318 56.3048 44.4791 56.039 44.3769 55.7916C44.2747 55.5442 44.125 55.3202 43.9366 55.1328C43.7483 54.9454 43.5251 54.7985 43.2802 54.7006C43.0354 54.6027 42.7738 54.5559 42.511 54.563H39.7278C39.465 54.5559 39.2034 54.6027 38.9586 54.7006C38.7137 54.7985 38.4905 54.9454 38.3022 55.1328C38.1138 55.3202 37.9641 55.5442 37.8619 55.7916C37.7597 56.039 37.707 56.3048 37.707 56.5734C37.707 56.8419 37.7597 57.1077 37.8619 57.3551C37.9641 57.6026 38.1138 57.8266 38.3022 58.0139C38.4905 58.2013 38.7137 58.3483 38.9586 58.4461C39.2034 58.544 39.465 58.5908 39.7278 58.5838H42.511ZM39.2823 56.5741C39.2823 56.4534 39.3292 56.3376 39.4128 56.2523C39.4963 56.1669 39.6097 56.119 39.7278 56.119H42.5096C42.5701 56.1156 42.6306 56.1248 42.6875 56.1461C42.7444 56.1674 42.7964 56.2003 42.8404 56.2428C42.8844 56.2854 42.9195 56.3366 42.9434 56.3934C42.9674 56.4503 42.9797 56.5115 42.9797 56.5734C42.9797 56.6352 42.9674 56.6965 42.9434 56.7533C42.9195 56.8101 42.8844 56.8614 42.8404 56.9039C42.7964 56.9464 42.7444 56.9793 42.6875 57.0006C42.6306 57.0219 42.5701 57.0311 42.5096 57.0277H39.7278C39.6694 57.0279 39.6115 57.0163 39.5574 56.9936C39.5034 56.9709 39.4543 56.9375 39.4129 56.8953C39.3715 56.8532 39.3386 56.8031 39.3162 56.748C39.2938 56.6929 39.2823 56.6338 39.2823 56.5741Z" fill="black"/>
</svg>
