<svg width="54" height="54" viewBox="0 0 54 54" fill="none" xmlns="http://www.w3.org/2000/svg">
<path fill-rule="evenodd" clip-rule="evenodd" d="M52.9226 19.5259C52.1985 22.7083 51.4825 25.8907 50.7574 29.073C49.2892 27.2108 47.9561 25.2446 46.5489 23.3394C47.169 20.8531 47.7281 18.3508 48.2961 15.8495C48.7232 13.9253 48.9542 11.864 48.3091 9.95879C47.16 6.80141 43.4826 4.86218 40.2322 5.65328C37.4149 6.25635 35.1207 8.09356 32.6714 9.49673C26.2907 13.1992 19.471 16.0395 12.8102 19.1719C13.3723 18.2058 14.3194 17.5687 15.1025 16.7996C19.95 12.3501 25.3206 8.52762 30.5952 4.61015C33.7685 2.27387 37.4489 0.245635 41.4884 0.215631C45.4118 0.0216082 49.2822 1.97584 51.6755 5.0532C53.3467 7.24446 54.0878 10.0508 53.9917 12.7901C54.0347 15.0824 53.4147 17.3077 52.9226 19.5259ZM5.84046 44.1698C6.96759 47.4482 10.841 49.4055 14.1594 48.4973C16.8077 47.9043 18.9579 46.1591 21.2682 44.8389C27.7229 41.0255 34.6776 38.1881 41.4394 34.9938C37.864 38.9052 33.5715 42.0746 29.375 45.281C25.4526 48.0733 21.8122 51.4367 17.2377 53.1439C13.9103 54.31 10.0429 54.394 6.87558 52.7108C3.51121 51.1197 0.921923 47.8763 0.371863 44.1608C-0.0611847 41.8066 0.168841 39.3883 0.703899 37.071C1.601 33.0795 2.5191 29.0971 3.4072 25.1056C4.84435 27.0048 6.25151 28.931 7.61566 30.8883C6.98559 33.3566 6.45453 35.8489 5.88047 38.3331C5.44042 40.2374 5.16139 42.2836 5.84046 44.1698Z" fill="#2B5AE1"/>
<path fill-rule="evenodd" clip-rule="evenodd" d="M52.6606 46.8613C51.1125 50.1576 48.0671 52.798 44.4307 53.476C40.2963 54.4171 36.1768 52.988 32.1584 52.1479C29.7691 51.6018 27.3739 51.0778 24.9876 50.5187C26.7858 49.0255 28.778 47.7844 30.6162 46.3422C33.3835 46.9403 36.1298 47.6363 38.9041 48.2134C41.0994 48.6365 43.5716 48.6725 45.4869 47.3663C47.7101 45.8021 49.0002 42.9048 48.4272 40.2215C48.1041 38.4393 47.239 36.8241 46.2779 35.3089C41.6934 28.157 38.4091 20.2961 34.9047 12.5932C38.7781 16.2366 42.0075 20.4861 45.2128 24.7066C47.7691 28.3321 50.8354 31.6775 52.6206 35.7779C54.1268 39.2554 54.4218 43.4168 52.6606 46.8613ZM14.9015 5.55436C12.7213 5.15031 10.255 5.0853 8.36478 6.41946C6.48657 7.74162 5.24844 10.0199 5.35645 12.3352C5.33845 14.8625 6.6986 17.1107 8.02274 19.171C12.2012 25.7468 15.1625 32.9656 18.4699 39.9884C18.6569 40.4205 18.7749 40.8805 18.8879 41.3406C14.9815 37.1571 11.3081 32.7606 7.95774 28.123C5.35945 24.5316 2.32112 21.1242 0.814953 16.8927C-0.370177 13.5593 -0.330173 9.70085 1.38201 6.55448C2.73016 3.89916 5.04242 1.6999 7.89073 0.730788C10.757 -0.293333 13.9034 -0.125313 16.8347 0.525764C20.8431 1.43587 24.8556 2.33498 28.861 3.25509C27.0408 4.74226 25.0796 6.04542 23.1954 7.44658C20.4341 6.79951 17.6748 6.14043 14.9015 5.55436Z" fill="#E63A28"/>
</svg>
