<svg
   viewBox="0 0 151 120"
   xmlns="http://www.w3.org/2000/svg"
   xmlns:svg="http://www.w3.org/2000/svg">

    <symbol id="milk" viewBox="0 0 151 120">
    <g
        id="g8">
        <g
        id="g186">
        <path
            style="fill:#e8e8e8"
            d="m 87.75,73.337719 c 0.6875,-0.277412 1.8125,-0.277412 2.5,0 0.6875,0.277413 0.125,0.504386 -1.25,0.504386 -1.375,0 -1.9375,-0.226973 -1.25,-0.504386 z M 43.078947,71.416667 c 0.04798,-1.164943 0.284941,-1.4019 0.604167,-0.604167 0.288871,0.721875 0.253344,1.584375 -0.07895,1.916667 -0.332292,0.332291 -0.568641,-0.258334 -0.52522,-1.3125 z M 72.404988,68.75 70.5,66.5 73,68.489343 c 1.375,1.094139 2.6875,2.106639 2.916667,2.25 C 76.145833,70.882704 75.878078,71 75.321654,71 74.765231,71 73.452731,69.9875 72.404988,68.75 Z m 12.467457,-3.5 C 83.628574,63.663944 83.663944,63.628574 85.25,64.872445 c 0.9625,0.754844 1.75,1.542344 1.75,1.75 0,0.823034 -0.821186,0.293303 -2.127555,-1.372445 z M 112.40499,64.75 110.5,62.5 l 2.25,1.904988 C 114.86444,66.195206 115.45524,67 114.65499,67 c -0.18976,0 -1.20226,-1.0125 -2.25,-2.25 z M 116.5,47 c 0.99549,-1.1 2.03498,-2 2.30998,-2 0.275,0 -0.31449,0.9 -1.30998,2 -0.99549,1.1 -2.03498,2 -2.30998,2 -0.275,0 0.31449,-0.9 1.30998,-2 z M 110,43.606989 c 0,-0.216156 0.69837,-0.661002 1.55194,-0.988546 0.88992,-0.341496 1.29132,-0.173849 0.94098,0.393011 C 111.90566,43.961658 110,44.416902 110,43.606989 Z M 119.87244,39.25 C 118.62857,37.663944 118.66394,37.628574 120.25,38.872445 121.91575,40.178814 122.44548,41 121.62244,41 c -0.20765,0 -0.99515,-0.7875 -1.75,-1.75 z"
            id="path200" />
        <path
            style="fill:#d8d8d8"
            d="M 27.872445,95.25 C 26.628574,93.663944 26.663944,93.628574 28.25,94.872445 c 0.9625,0.754844 1.75,1.542344 1.75,1.75 0,0.823034 -0.821186,0.293303 -2.127555,-1.372445 z M 91.75,73.337719 c 0.6875,-0.277412 1.8125,-0.277412 2.5,0 0.6875,0.277413 0.125,0.504386 -1.25,0.504386 -1.375,0 -1.9375,-0.226973 -1.25,-0.504386 z M 69,57 c 0,-0.55 0.476558,-1 1.059017,-1 0.582459,0 0.780902,0.45 0.440983,1 -0.339919,0.55 -0.816476,1 -1.059017,1 C 69.198442,58 69,57.55 69,57 Z m 50,-12.377555 c 0,-0.207656 0.7875,-0.995156 1.75,-1.75 1.58606,-1.243871 1.62143,-1.208501 0.37756,0.377555 C 119.82119,44.915748 119,45.445479 119,44.622445 Z"
            id="path198" />
        <path
            style="fill:#c7c7c7"
            d="m 98.75,75.337719 c 0.6875,-0.277412 1.8125,-0.277412 2.5,0 0.6875,0.277413 0.125,0.504386 -1.25,0.504386 -1.375,0 -1.9375,-0.226973 -1.25,-0.504386 z m -1.988341,-2.04498 c 1.243913,-0.239193 3.043913,-0.230112 4.000001,0.02018 0.95609,0.250292 -0.0617,0.445996 -2.26166,0.434897 -2.2,-0.0111 -2.982253,-0.215885 -1.738341,-0.455077 z M 45.078947,64.416667 c 0.04798,-1.164943 0.284941,-1.4019 0.604167,-0.604167 0.288871,0.721875 0.253344,1.584375 -0.07895,1.916667 -0.332292,0.332291 -0.568641,-0.258334 -0.52522,-1.3125 z M 117,65.622445 c 0,-0.207656 0.7875,-0.995156 1.75,-1.75 1.58606,-1.243871 1.62143,-1.208501 0.37756,0.377555 C 117.82119,65.915748 117,66.445479 117,65.622445 Z M 82.564293,61.293128 c -0.542685,-1.425198 -0.427821,-1.540062 0.559795,-0.559795 0.683418,0.678334 0.990671,1.485241 0.682784,1.793128 -0.307887,0.307888 -0.867048,-0.247112 -1.242579,-1.233333 z M 68,59 c 0,-0.55 0.476558,-1 1.059017,-1 0.582459,0 0.780902,0.45 0.440983,1 -0.339919,0.55 -0.816476,1 -1.059017,1 C 68.198442,60 68,59.55 68,59 Z m 46,-18.377555 c 0,-0.207656 0.7875,-0.995156 1.75,-1.75 1.58606,-1.243871 1.62143,-1.208501 0.37756,0.377555 C 114.82119,40.915748 114,41.445479 114,40.622445 Z M 96.733333,29.875912 c 0.678334,-0.683418 1.485241,-0.990671 1.793128,-0.682784 0.307888,0.307887 -0.247112,0.867048 -1.233333,1.242579 -1.425198,0.542685 -1.540062,0.427821 -0.559795,-0.559795 z"
            id="path196" />
        <path
            style="fill:#aeaeae"
            d="M 96.872445,64.25 C 95.628574,62.663944 95.663944,62.628574 97.25,63.872445 c 1.483269,1.163259 2.016731,1.163259 3.5,0 1.58606,-1.243871 1.62143,-1.208501 0.37756,0.377555 C 100.37271,65.2125 99.415311,66 99,66 98.584689,66 97.627289,65.2125 96.872445,64.25 Z m -37.32974,-2.180902 c -0.316431,-0.511996 -0.192988,-1.167201 0.274316,-1.456011 0.467305,-0.28881 0.849646,0.130095 0.849646,0.930902 0,1.686167 -0.315337,1.833491 -1.123962,0.525109 z M 113,49.5 c 1.86578,-1.925 3.61733,-3.5 3.89233,-3.5 0.275,0 -1.02655,1.575 -2.89233,3.5 -1.86578,1.925 -3.61733,3.5 -3.89233,3.5 -0.275,0 1.02655,-1.575 2.89233,-3.5 z M 64.733333,48.875912 c 0.678334,-0.683418 1.485241,-0.990671 1.793128,-0.682784 0.307888,0.307887 -0.247112,0.867048 -1.233333,1.242579 -1.425198,0.542685 -1.540062,0.427821 -0.559795,-0.559795 z"
            id="path194" />
        <path
            style="fill:#979797"
            d="m 48,88.059017 c 0,-0.517541 0.444846,-1.215913 0.988546,-1.551938 0.56686,-0.350339 0.734507,0.05106 0.393011,0.940983 C 48.716766,89.180479 48,89.497449 48,88.059017 Z M 87.8125,74.316886 c 0.721875,-0.288871 1.584375,-0.253344 1.916667,0.07895 0.332291,0.332292 -0.258334,0.568641 -1.3125,0.52522 -1.164943,-0.04798 -1.4019,-0.284941 -0.604167,-0.604167 z M 44.078947,71.416667 c 0.04798,-1.164943 0.284941,-1.4019 0.604167,-0.604167 0.288871,0.721875 0.253344,1.584375 -0.07895,1.916667 -0.332292,0.332291 -0.568641,-0.258334 -0.52522,-1.3125 z M 62,71.606989 c 0,-0.216156 0.698372,-0.661002 1.551938,-0.988546 0.889925,-0.341496 1.291322,-0.173849 0.940983,0.393011 C 63.905663,71.961658 62,72.416902 62,71.606989 Z M 112.87244,64.25 c -1.24387,-1.586056 -1.2085,-1.621426 0.37756,-0.377555 0.9625,0.754844 1.75,1.542344 1.75,1.75 0,0.823034 -0.82119,0.293303 -2.12756,-1.372445 z M 60.5,60 C 60.160081,59.45 60.358524,59 60.940983,59 61.523442,59 62,59.45 62,60 62,60.55 61.801558,61 61.559017,61 61.316476,61 60.839919,60.55 60.5,60 Z"
            id="path192" />
        <path
            style="fill:#858585"
            d="m 96.078947,61.416667 c 0.04798,-1.164943 0.284941,-1.4019 0.604167,-0.604167 0.288871,0.721875 0.253344,1.584375 -0.07895,1.916667 -0.332292,0.332291 -0.568641,-0.258334 -0.52522,-1.3125 z M 93.02896,57.03906 c -0.809071,-0.511673 -1.210697,-1.190657 -0.8925,-1.508853 0.318196,-0.318196 1.147764,0.107336 1.843484,0.945627 1.442593,1.738218 1.165987,1.90204 -0.950984,0.563226 z"
            id="path190" />
        <path
            style="fill:#7f7f7f"
            d="M 28.092366,93.59832 C 24.788037,90.081022 26.863404,85.447751 41.126292,64.5 52.081819,48.409734 52.227831,48.264035 55.34822,50.308593 l 2.614143,1.712852 -2.104122,5.239278 c -4.703464,11.71166 -3.30167,11.79105 4.002437,0.226677 5.558344,-8.800358 6.006029,-9.164288 9.182285,-7.464407 1.858608,0.994697 1.844482,1.174487 -0.510713,6.5 C 66.551237,61.002417 66.3849,62 67.619014,62 c 1.807682,0 -2.199372,7.895843 -4.446555,8.761874 -2.985797,1.150681 -4.446343,-2.170616 -2.745073,-6.242326 C 64.094484,55.742947 61.397347,57.224081 55,67.5 49.183703,76.842591 49.117675,76.892498 46.45954,73.955292 44.817694,72.141072 44.743861,71.406749 45.804553,67.440941 49.695009,52.894962 41.142965,67.273844 34.456439,86.520963 31.01581,96.424791 30.884688,96.57061 28.092366,93.59832 Z M 49.606989,90.418213 C 48.46192,87.434211 49.015279,86.862805 56.31727,83.489077 68.898687,77.676104 90.54401,73.099508 100,74.252983 c 2.8082,0.342555 2.49392,0.458575 -1.590037,0.58698 -10.757998,0.338245 -30.918523,7.285746 -40.729157,14.035639 -5.065091,3.484874 -7.173888,3.887788 -8.073817,1.542611 z M 72.488526,66.622832 c -1.27375,-1.943987 -1.339462,-2.855885 -0.360613,-5.004226 1.499076,-3.290113 0.379465,-4.618379 -1.724264,-2.045605 -1.555781,1.902655 -0.573323,-0.0075 4.999548,-9.720276 2.122899,-3.699944 3.084291,-4.538005 4.716257,-4.111236 3.243126,0.848096 3.230165,2.622953 -0.06685,9.154302 -4.189776,8.299899 -1.873276,7.957602 4.36566,-0.645091 4.00334,-5.520093 11.276163,-18.833983 12.822786,-23.473852 0.241619,-0.724858 1.083942,-0.673285 2.644534,0.161919 2.892536,1.548037 2.509376,3.313513 -3.465375,15.967365 -4.488272,9.505656 -4.880914,11.522778 -1.749236,8.986369 1.387426,-1.123705 -1.478893,3.488162 -5.941289,9.559451 C 86.867376,67.985706 83.926898,62.042043 85.51929,58.962698 86.33368,57.38784 87,55.626973 87,55.04966 c 0,-2.494235 -1.803536,-0.563608 -6.005721,6.428931 -4.844227,8.060913 -6.097882,8.819118 -8.505753,5.144241 z M 111.33801,61.5 c -4.57242,-5.470084 -5.06554,-5.496839 -8.77984,-0.476362 -4.669496,6.311593 -7.145893,4.04503 -4.281986,-3.919161 1.825866,-5.077534 1.590057,-6.039619 -0.979687,-3.996978 -0.963509,0.765876 -0.09155,-0.947149 1.937691,-3.806722 2.029242,-2.859573 5.287352,-8.372073 7.240242,-12.25 3.84932,-7.643724 3.73758,-7.542862 6.6369,-5.991196 1.89655,1.015005 1.77076,1.456735 -2.99005,10.5 -4.82122,9.158003 -4.96969,13.637734 -0.20517,6.190419 4.90839,-7.672188 7.88431,-9.900336 9.93029,-7.435074 0.83827,1.010049 -0.17671,2.567176 -4.37755,6.71584 -6.6032,6.521177 -6.61962,6.694996 -0.98866,10.469234 4.8414,3.245019 5.37589,4.501061 2.94838,6.928571 -2.07606,2.076063 -1.79373,2.21182 -6.09056,-2.928571 z M 81.326747,41.409106 c -1.07391,-2.798565 2.252793,-8.33182 4.634758,-7.708922 3.031426,0.792736 3.262934,1.761309 1.369854,5.731138 -1.801527,3.777842 -4.919741,4.804912 -6.004612,1.977784 z"
            id="path188" />
        </g>
    </g>
    </symbol>

    <symbol id="play" viewBox="0 0 151 120">
        <g
        id="g220">
            <g
            id="g1069"
            transform="translate(-0.3713203,-35.885669)">
            <path
                style="fill:#868686;stroke:none"
                d="m 90.293907,87.842294 c 2.756362,5.238693 6.787588,11.381763 10.582343,17.649536 -4.465587,5.3103 -1.289352,1.58069 -4.582343,5.35046 -0.484586,-0.87066 -0.626341,-2.37058 -1.761824,-2.96384 -2.165617,-1.13147 -5.556397,-0.53851 -5.062276,2.96304 0.573716,4.0656 5.219236,3.13711 7.68795,1.4892 2.114891,-1.41173 3.568483,-3.77078 4.977333,-6.1695 1.61213,-2.74482 2.79997,-5.38289 4.81399,-8.555185 6.82659,-0.487132 10.83483,-0.763711 15.34483,-0.763711 l -8,13.999996 c -0.804,-1.4544 -1.265,-2.8423 -3.105,-3.2731 -2.919,-0.6837 -4.949,2.5683 -3.183,4.9444 2.556,3.4385 7.35733,0.51711 8.41186,-1.82429 1.22089,-1.98977 1.20186,-2.03261 3.46415,-5.69386 3.22531,-6.269707 5.6521,-11.048371 8.41199,-17.153146 l -19.363,1.0278 -4.4495,7.8472 c 0,0 -5.705355,-8.399505 -6.183498,-8.910478 -2.893846,-0.02231 -4.576768,0.03584 -8.004005,0.03548"
                id="path548"
                 />
            <path
                style="fill:#868686;stroke:none"
                d="m 76.465782,95.123544 -3.171875,0.71875 c -4.1435,1.4904 -8.607499,7.688696 -1.8912,9.550896 2.887255,0.80054 5.42249,0.61983 8.223462,-0.64585 0.239513,-0.10823 0.416599,-1.06217 0.722207,-1.11912 0.265826,-0.0495 0.96021,-0.0213 1.543156,-0.023 0.01263,0.67902 0.01493,0.68581 0.01072,1.17341 2.032793,-0.007 5.131157,0.061 6.391651,0.0637 0,-8.714096 0.5494,-18.516596 -10.9992,-17.952196 -1.6222,0.0793 -3.3539,0.2502 -4.7678,1.1312 -3.632,2.2632 -1.779658,5.40563 -0.67028,5.633542 0.54047,0.111034 1.228165,0.17847 1.652395,-0.09758 1.542054,-1.003419 2.612746,-2.689264 1.089017,-5.41083 3.8823,1.1776 4.395268,2.743968 4.695868,6.695868 m -0.09375,1.4375 c 0,0 0.647995,7.573266 0.219373,7.917356 -0.428622,0.3441 -2.250623,-0.0424 -2.250623,-0.0424 -2.506302,-2.59698 -1.489321,-6.023405 -0.754664,-6.749516 1.024283,-1.012367 2.785914,-1.12548 2.785914,-1.12548 z"
                id="path546"
                 />
            <path
                style="fill:#868686;stroke:none"
                d="m 27.293907,77.842294 v 26.999996 h 10 v -9.999996 c 3.9321,-0.0108 8.3677,0.218 11.7863,-2.0895 4.7719,-3.221 4.918,-9.8261 0.1049,-13.0525 -5.5423,-3.7152 -15.5161,-1.858 -21.8912,-1.858 m 10,16 v -15 c 7.2711,2.2967 5.9528,11.8761 0,15"
                id="path544" />
            <path
                style="fill:#868686;stroke:none"
                d="m 55.293907,77.842294 v 25.999996 l 9,1 V 76.842294 l -9,1"
                id="path434" />
            </g>
        </g>
    </symbol>

    <symbol id="lirik" viewBox="0 0 151 120">
        <g
        id="g1086">
            <g
            id="g1937"
            transform="translate(18.415165,-22.664818)">
            <path
                id="path1252"
                style="fill:#979796;stroke:none"
                d="m 96.152344,56.869141 c -3.361433,-0.202052 -8.105072,4.146298 -8.458985,6.576171 l 4.3125,0.146485 -6.705078,18.410156 -1.001953,4.402344 c 2.739367,6.363234 5.394553,0.07979 6.707031,-3.8125 h 2 c 2.351978,7.629312 9.293101,6.283923 11.000001,-1 l -3,2 h -1 l -2.000001,-3 c 2.496601,-1.070989 9.012801,-6.204364 3.783201,-8.519531 -2.106446,-0.932589 -4.707423,-0.003 -6.783201,0.519531 1.124089,-3.388267 5.428381,-10.257626 3.833985,-13.763672 -0.5994,-1.318151 -1.567023,-1.891634 -2.6875,-1.958984 z m -51.544922,0.572265 c -0.196771,-0.01075 -0.405643,-0.0057 -0.625,0.01172 -0.584954,0.04634 -1.247935,0.18371 -1.97461,0.375 -4.228345,1.113089 -7.861249,2.995268 -11.001953,6.763672 l 6.503907,-1.003906 -10.503907,28.003906 c -6.301523,-0.4232 -12.076778,-2.012494 -17.9765621,1.351562 -5.9732861,3.405967 -6.3972197,11.30569 -0.017578,14.58398 4.3226261,2.2213 10.9439841,1.25635 14.9941401,-1.09375 2.588378,-1.50179 4.899633,-4.51787 8,-4.88867 4.321556,-0.5169 10.680455,3.16858 15,4.17188 10.77719,2.50299 28.127833,-1.82631 31,-14.125002 -4.125314,4.147832 -10.033269,7.503482 -18.164062,9.871092 -11.064171,2.82093 -20.336052,-1.90466 -26.503906,-7.541014 1.859478,-8.330712 6.775314,-14.405266 9.863281,-22.330078 1.275589,-3.273567 3.540912,-7.416086 3.570312,-10.976563 0.01883,-2.281861 -0.786684,-3.098611 -2.164062,-3.173829 z m 8.042969,8.601563 c -0.453114,-0.01829 -0.95126,0.05575 -1.490235,0.24414 -3.915956,1.368889 -2.233278,6.741486 1.767578,5.591797 3.790904,-1.089276 2.894413,-5.70793 -0.277343,-5.835937 z m 9.179687,8.363281 c -4.64546,0.573211 -7.121599,2.305513 -9.761719,4.091797 l 0.355469,0.240234 3.582031,1.853516 -3,10 c 4.856956,1.413578 8.367828,-1.953952 9.916016,-4.248047 1.548188,-2.294095 -2.332031,-1 -2.332031,-1 l 3.417968,-7.003906 c 3.019408,0.749743 7.192796,0.386772 6.800782,-1.613282 -0.219994,-1.122364 -1.866888,-1.470099 -3.75586,-1.699218 -1.781737,-0.216114 -3.844598,0.953607 -4.277343,0.966797 -0.0645,-0.721794 -0.420242,-1.652681 -0.945313,-1.587891 z m -10.824219,0.185547 c -2.876467,0.643989 -13.575009,5.764281 -4.996093,5.330078 -0.7997,2.410578 -4.100783,7.385394 -3.371094,9.951172 1.623478,5.707834 8.250698,-0.847283 9.367187,-3.28125 l -3,-1 2,-7 v -1.972656 z m 44.865235,1.699219 c 0.06776,0.01059 0.129503,0.03309 0.18164,0.07031 1.283089,0.916063 -1.847076,3.420543 -3.83789,4.175781 0.0082,-1.696023 2.639782,-4.404872 3.65625,-4.246093 z m -19.978516,11.408203 -1.886719,2.892578 1.890625,-2.886719 c -0.0012,-0.002 -0.0027,-0.0039 -0.0039,-0.0059 z m -57.113281,9.27539 c 0.346559,-0.01024 0.698204,-0.0052 1.048828,0.0098 1.682976,0.07207 3.331295,0.396672 4.177734,0.607422 -1.165978,1.462678 -8.353898,7.774089 -9.304687,2.841789 -0.503895,-2.614213 1.652228,-3.38728 4.078125,-3.458977 z" />
            <path
                id="path1254"
                style="fill:#979796;stroke:none"
                d="m 81.690751,63.800427 c -0.45311,-0.01829 -0.95321,0.0538 -1.49218,0.242188 -3.916,1.36885 -2.23137,6.7434 1.76953,5.59375 3.79044,-1.089238 2.89445,-5.707931 -0.27735,-5.835938 z m -1.64453,8.548828 c -2.876,0.644 -13.57459,5.764232 -4.99609,5.330079 -0.7997,2.41045 -4.10275,7.385615 -3.37305,9.951169 1.6235,5.7079 8.25264,-0.84725 9.36914,-3.281248 l -3,-1 2,-7 -0.002,-1.972656 z" />
            </g>
        </g>
    </symbol>

    <symbol id="ark" viewBox="0 0 151 120">
        <g
        id="g1969">
            <g
            id="g2714"
            transform="translate(36.892562,5.7123967)">
            <path
                id="path1987"
                style="fill:#888888;stroke:none"
                d="m 50,35.988281 v 18 h 5.982422 L 50.341797,59.794922 50.515625,69.998047 56,69.904297 55.9082,63.632812 59.664059,59.220703 c 3.348178,5.799213 1.40627,2.662505 5.941407,10.785156 4.249818,0 3.389714,-0.05309 6.394531,-0.01758 -7.2644,-11.007602 -1.551865,-1.766502 -9.333984,-13.902343 4.485463,-5.817449 4.443468,-5.705098 8.949218,-10.916016 -3.504849,0.0414 -4.450274,0.06055 -7.685546,0.06055 C 58.993053,50.762142 58.858103,50.660616 56,53.929688 V 35.988281 Z m -37.835938,0.277344 c 0,0 0.05238,-0.159965 -11.164062,33.722656 l 30.397233,-0.0251 c -0.0087,-0.01806 -0.203711,-0.05081 0.278548,0.0056 l -23.5839841,0.01563 c 4.9091841,-12.869088 -0.02557,-0.05912 2.5429691,-6.75 3.314247,-0.193475 7.522523,-0.275391 12.068359,-0.275391 2.919868,6.930709 -2.617954,-6.003022 2.914063,6.958985 2.256284,-0.0065 5.381336,0.0028 7.282385,0.0199 C 19.905051,36.296334 20.078125,36.265625 20.078125,36.265625 Z m 33.816407,7.701172 c -0.60752,0.02895 -1.410673,0.136648 -2.195313,0.451172 -1.818089,0.728781 -5.089844,3.570312 -5.089844,3.570312 0,0 -0.01742,-0.0092 -0.0918,-3.023437 -0.706411,0 -3.197411,0.03361 -5.603516,0.02344 l 0.65277,25.004442 c 1.688917,0.01535 3.331323,-0.0044 5.34723,-0.0044 -0.03255,-5.183655 -0.144531,-8.419223 -0.144531,-16.292969 0,-3.287961 4.090857,-3.862385 8.144531,-2.707031 v -7 c 0,0 -0.412014,-0.05043 -1.019531,-0.02148 z M 16.285156,46.476562 20,56.988281 12.951172,57.107422 Z M 46.3125,57.683594 c -0.01173,0.01053 -0.0236,0.02061 -0.03516,0.03125 0.01336,-0.0049 0.02587,-0.01051 0.03906,-0.01563 -0.0014,-0.0055 -0.0026,-0.0098 -0.0039,-0.01563 z M 33.347656,70 c -0.01708,-1.54e-4 -0.02479,0.0038 -0.04102,0.0039 -0.0031,0.0053 -0.0072,0.0086 -0.0098,0.01367 z"
                />
            <circle
                style="fill:#888888;stroke-width:1.07037"
                id="path1989"
                cx="46.204456"
                cy="56.102787"
                r="1.5199873" />
            </g>
        </g>
    </symbol>

    <symbol id="eight" viewBox="0 0 151 120">
        <g
        id="g4544">
            <g
            id="g4641"
            transform="translate(0.40550927,-44.20051)">
            <path
                id="path4548"
                style="fill:#888888;stroke:none"
                d="m 36.71614,80.296875 c 0,0 1.872588,0.672619 3.23967,1.995596 1.085917,1.050882 2.469971,4.004404 2.469971,4.004404 l -1,-6 z m 55.709641,1.146953 0.433692,35.853052 h 6.996416 L 99.425781,81.296875 Z M 52.160156,82.5625 c -0.768888,-0.0053 -1.589983,0.223155 -2.40039,0.765625 -4.02978,2.697485 0.536682,8.176574 4.351562,5.896484 3.732443,-2.230704 1.380682,-6.639213 -1.951172,-6.662109 z m 31.138672,2.574219 c -6.18e-4,0.002 -0.0013,0.0039 -0.002,0.0059 0.0065,1.5e-4 0.01304,-1.55e-4 0.01953,0 -0.0058,-0.0027 -0.01182,-0.0032 -0.01758,-0.0059 z m 42.126952,3.160156 c -0.89238,1.78539 -2.4395,4.243503 -6.64738,5.814719 0.0175,0.330722 0.8648,0.763748 0.87611,1.084854 0.67955,19.291532 0.48676,16.812172 0.5628,19.387472 0.0726,2.45839 4.50605,2.92019 7.72818,2.73088 l -0.87886,-0.38081 -0.64085,-23.637115 h 5 v -1 h -5 z m -98.615233,0.875 c -0.341197,0.01831 -0.700248,0.113681 -1.066406,0.300781 -3.010485,1.538195 -0.645051,6.036142 2.365234,4.498047 2.629623,-1.343645 1.089541,-4.926977 -1.298828,-4.798828 z m 81.056373,3.007813 c -3.22903,0.0554 -1.53405,0.0362 -3.22609,0.0455 l 0.98302,1.748765 0.51157,23.322927 h 7.29036 c -0.60827,-20.564481 0.68429,-25.117233 -5.25473,-25.117194 z m -30.437232,0.757812 -0.0039,14.35938 c 9.415555,-3.2305 9.077669,-11.98269 0.0039,-14.35938 z m -7.078126,0.144531 c -9.38955,2.45809 -9.858936,11.237549 0.07422,14.214849 z m -21.925781,0.214844 v 24.000005 h 8 V 93.296875 Z m -8,3 -3.847934,2.064462 -0.152066,0.935538 4.11515,1.152075 z m -13.441406,5.439455 c -0.727137,-0.0369 -1.494283,0.14117 -2.236328,0.60742 -4.24418,2.66661 0.399842,8.39295 4.357422,5.90625 3.448393,-2.16661 1.029838,-6.35381 -2.121094,-6.51367 z m 37.441406,6.56055 c -11.67264,13.49 18.3806,7.57175 18,19 5.514975,-2.6581 8.253972,-9.13145 1.941407,-13.0625 -6.65507,-4.1444 -14.197832,0.33185 -19.941407,-5.9375 z m -22,3 c 0,0 -0.923492,2.64805 -1.937227,3.52594 -1.55039,1.34263 -4.062773,1.87957 -4.062773,1.87957 v 0.59449 h 7 z m 19,9 c -1.25399,2.84375 -1.598185,4.1007 1,6 z"
                />
            <ellipse
                style="fill:#888888;stroke-width:1.17604"
                id="path4602"
                cx="83.548386"
                cy="88.709679"
                rx="3.0107527"
                ry="2.9749105" />
            </g>
        </g>
    </symbol>
</svg>
