<svg width="106" height="139" viewBox="0 0 106 139" fill="none" xmlns="http://www.w3.org/2000/svg">
<rect y="50" width="89" height="89" rx="22" fill="#EAF8F9"/>
<path d="M68 25.7473C70.5542 25.7473 73.051 24.9923 75.1747 23.5777C77.2984 22.1632 78.9536 20.1526 79.931 17.8002C80.9085 15.4479 81.1642 12.8594 80.6659 10.3621C80.1676 7.8649 78.9377 5.57103 77.1316 3.77062C75.3256 1.9702 73.0245 0.744103 70.5194 0.247369C68.0143 -0.249364 65.4177 0.00557858 63.058 0.979956C60.6983 1.95433 58.6814 3.60439 57.2623 5.72145C55.8433 7.83851 55.0859 10.3275 55.0859 12.8737C55.0896 16.2869 56.4514 19.5592 58.8724 21.9727C61.2935 24.3862 64.5761 25.7437 68 25.7473ZM68 4.4392C69.6734 4.4392 71.3092 4.93388 72.7006 5.86067C74.092 6.78746 75.1765 8.10474 75.8169 9.64594C76.4573 11.1871 76.6248 12.883 76.2984 14.5192C75.9719 16.1553 75.1661 17.6582 73.9828 18.8377C72.7995 20.0173 71.2919 20.8206 69.6506 21.1461C68.0094 21.4715 66.3082 21.3045 64.7621 20.6661C63.2161 20.0277 61.8947 18.9467 60.965 17.5596C60.0353 16.1726 59.5391 14.5419 59.5391 12.8737C59.5417 10.6375 60.4339 8.49369 62.0201 6.91249C63.6063 5.33128 65.7568 4.44181 68 4.4392Z" fill="url(#paint0_linear_148_7)"/>
<path d="M94.125 25.7473C95.7397 25.7473 97.3181 25.27 98.6607 24.3758C100.003 23.4815 101.05 22.2104 101.668 20.7233C102.286 19.2362 102.447 17.5998 102.132 16.0211C101.817 14.4423 101.04 12.9922 99.8979 11.854C98.7561 10.7158 97.3014 9.94069 95.7177 9.62667C94.1341 9.31264 92.4925 9.47381 91.0008 10.0898C89.509 10.7058 88.2339 11.7489 87.3368 13.0873C86.4398 14.4257 85.9609 15.9992 85.9609 17.6088C85.963 19.7666 86.8238 21.8355 88.3544 23.3613C89.885 24.8871 91.9604 25.7453 94.125 25.7473ZM94.125 13.9095C94.859 13.9095 95.5764 14.1264 96.1867 14.5329C96.797 14.9394 97.2726 15.5172 97.5535 16.1931C97.8343 16.8691 97.9078 17.6129 97.7646 18.3305C97.6215 19.0481 97.268 19.7073 96.749 20.2246C96.2301 20.742 95.5688 21.0943 94.849 21.2371C94.1291 21.3798 93.383 21.3065 92.7049 21.0266C92.0268 20.7466 91.4472 20.2724 91.0395 19.6641C90.6317 19.0557 90.4141 18.3405 90.4141 17.6088C90.4151 16.628 90.8064 15.6877 91.5021 14.9941C92.1978 14.3006 93.1411 13.9105 94.125 13.9095Z" fill="url(#paint1_linear_148_7)"/>
<path d="M95.9201 30.7784H92.4783C90.5537 30.7779 88.6691 31.3259 87.0466 32.3578C85.4241 33.3897 84.1313 34.8625 83.3207 36.6026C81.6405 34.7669 79.5945 33.3008 77.3136 32.2979C75.0327 31.295 72.5671 30.7775 70.0742 30.7784H65.9179C63.425 30.7775 60.9594 31.295 58.6785 32.2979C56.3976 33.3008 54.3516 34.7669 52.6714 36.6026C51.8613 34.8638 50.5698 33.3917 48.9488 32.3599C47.3279 31.3281 45.4449 30.7794 43.5217 30.7784H40.0799C37.4155 30.7732 34.8579 31.8218 32.9682 33.6941C31.0785 35.5665 30.011 38.1096 30 40.7656V56.9243C30 57.4953 30.113 58.0607 30.3326 58.5881C30.5521 59.1155 30.8739 59.5945 31.2795 59.9977C31.6851 60.4009 32.1665 60.7204 32.6961 60.9379C33.2258 61.1553 33.7932 61.2664 34.366 61.2649H47.9807C48.0949 62.5564 48.6898 63.7585 49.6483 64.6348C50.6068 65.5111 51.8596 65.9981 53.1602 66H82.8477C84.1483 65.9981 85.4011 65.5111 86.3596 64.6348C87.3181 63.7585 87.913 62.5564 88.0272 61.2649H101.486C102.681 61.2638 103.828 60.7904 104.674 59.9484C105.52 59.1063 105.997 57.9643 106 56.7724V40.7656C105.989 38.1096 104.922 35.5665 103.032 33.6941C101.142 31.8218 98.5844 30.7732 95.9201 30.7784ZM34.4531 40.7656C34.4625 39.2865 35.0603 37.8715 36.1153 36.8314C37.1702 35.7912 38.5961 35.2108 40.0799 35.2176H43.5217C45.0055 35.2108 46.4313 35.7912 47.4863 36.8314C48.5412 37.8715 49.139 39.2865 49.1484 40.7656V42.2848C47.6502 46.1716 47.9609 48.4997 47.9609 56.8217H34.4531V40.7656ZM83.5859 60.813C83.5859 61.0096 83.5079 61.1982 83.3688 61.3376C83.2297 61.477 83.041 61.5558 82.8438 61.5569H53.1562C52.9584 61.5569 52.7686 61.4785 52.6287 61.339C52.4887 61.1995 52.4101 61.0103 52.4101 60.813V48.6871C52.4138 45.1159 53.8385 41.692 56.3717 39.1668C58.9048 36.6416 62.3395 35.2213 65.9219 35.2176H70.0781C73.6604 35.2218 77.0947 36.6422 79.6278 39.1674C82.1608 41.6925 83.5857 45.1161 83.5899 48.6871L83.5859 60.813ZM101.547 56.7724C101.547 56.8474 102.378 56.8217 88.0391 56.8217C88.0391 48.4385 88.3458 46.1676 86.8516 42.2848V40.7656C86.861 39.2865 87.4588 37.8715 88.5137 36.8314C89.5687 35.7912 90.9946 35.2108 92.4783 35.2176H95.9201C97.4039 35.2108 98.8298 35.7912 99.8847 36.8314C100.94 37.8715 101.537 39.2865 101.547 40.7656V56.7724Z" fill="url(#paint2_linear_148_7)"/>
<path d="M41.875 25.7473C43.4897 25.7473 45.0681 25.27 46.4107 24.3758C47.7533 23.4815 48.7997 22.2104 49.4176 20.7233C50.0355 19.2362 50.1972 17.5998 49.8822 16.0211C49.5672 14.4423 48.7896 12.9922 47.6479 11.854C46.5061 10.7158 45.0514 9.94069 43.4677 9.62667C41.8841 9.31264 40.2425 9.47381 38.7507 10.0898C37.259 10.7058 35.9839 11.7489 35.0868 13.0873C34.1898 14.4257 33.7109 15.9992 33.7109 17.6088C33.713 19.7666 34.5739 21.8355 36.1045 23.3613C37.6351 24.8871 39.7104 25.7453 41.875 25.7473ZM41.875 13.9095C42.609 13.9095 43.3264 14.1264 43.9367 14.5329C44.5469 14.9394 45.0226 15.5172 45.3035 16.1931C45.5843 16.8691 45.6578 17.6129 45.5146 18.3305C45.3714 19.0481 45.018 19.7073 44.499 20.2246C43.98 20.742 43.3188 21.0943 42.599 21.2371C41.8791 21.3798 41.133 21.3065 40.4549 21.0266C39.7768 20.7466 39.1972 20.2724 38.7895 19.6641C38.3817 19.0557 38.1641 18.3405 38.1641 17.6088C38.1651 16.628 38.5564 15.6877 39.2521 14.9941C39.9478 14.3006 40.8911 13.9105 41.875 13.9095Z" fill="url(#paint3_linear_148_7)"/>
<defs>
<linearGradient id="paint0_linear_148_7" x1="47.7045" y1="11.5" x2="107.686" y2="55.7824" gradientUnits="userSpaceOnUse">
<stop stop-color="#1C468A"/>
<stop offset="1" stop-color="#5E89D0"/>
</linearGradient>
<linearGradient id="paint1_linear_148_7" x1="47.7045" y1="11.5" x2="107.686" y2="55.7824" gradientUnits="userSpaceOnUse">
<stop stop-color="#1C468A"/>
<stop offset="1" stop-color="#5E89D0"/>
</linearGradient>
<linearGradient id="paint2_linear_148_7" x1="47.7045" y1="11.5" x2="107.686" y2="55.7824" gradientUnits="userSpaceOnUse">
<stop stop-color="#1C468A"/>
<stop offset="1" stop-color="#5E89D0"/>
</linearGradient>
<linearGradient id="paint3_linear_148_7" x1="47.7045" y1="11.5" x2="107.686" y2="55.7824" gradientUnits="userSpaceOnUse">
<stop stop-color="#1C468A"/>
<stop offset="1" stop-color="#5E89D0"/>
</linearGradient>
</defs>
</svg>
