<svg width="94" height="139" viewBox="0 0 94 139" fill="none" xmlns="http://www.w3.org/2000/svg">
<rect y="50" width="89" height="89" rx="22" fill="#E5F7E5"/>
<path d="M49.5632 34.1602H39.7168C39.2014 34.1602 38.7071 34.3639 38.3426 34.7265C37.9782 35.0891 37.7734 35.5809 37.7734 36.0938C37.7734 36.6066 37.9782 37.0984 38.3426 37.461C38.7071 37.8236 39.2014 38.0273 39.7168 38.0273H49.5632C50.0786 38.0273 50.5729 37.8236 50.9374 37.461C51.3019 37.0984 51.5066 36.6066 51.5066 36.0938C51.5066 35.5809 51.3019 35.0891 50.9374 34.7265C50.5729 34.3639 50.0786 34.1602 49.5632 34.1602Z" fill="url(#paint0_linear_148_6)"/>
<path d="M49.5632 25.9102H39.7168C39.2014 25.9102 38.7071 26.1139 38.3426 26.4765C37.9782 26.8391 37.7734 27.3309 37.7734 27.8438C37.7734 28.3566 37.9782 28.8484 38.3426 29.211C38.7071 29.5736 39.2014 29.7773 39.7168 29.7773H49.5632C50.0786 29.7773 50.5729 29.5736 50.9374 29.211C51.3019 28.8484 51.5066 28.3566 51.5066 27.8438C51.5066 27.3309 51.3019 26.8391 50.9374 26.4765C50.5729 26.1139 50.0786 25.9102 49.5632 25.9102Z" fill="url(#paint1_linear_148_6)"/>
<path d="M68.7378 17.6602H39.7168C39.2014 17.6602 38.7071 17.8639 38.3426 18.2265C37.9782 18.5891 37.7734 19.0809 37.7734 19.5938C37.7734 20.1066 37.9782 20.5984 38.3426 20.961C38.7071 21.3236 39.2014 21.5273 39.7168 21.5273H68.7378C69.2533 21.5273 69.7476 21.3236 70.112 20.961C70.4765 20.5984 70.6812 20.1066 70.6812 19.5938C70.6812 19.0809 70.4765 18.5891 70.112 18.2265C69.7476 17.8639 69.2533 17.6602 68.7378 17.6602Z" fill="url(#paint2_linear_148_6)"/>
<path d="M68.7378 10.4414H39.7168C39.2014 10.4414 38.7071 10.6451 38.3426 11.0077C37.9782 11.3704 37.7734 11.8622 37.7734 12.375C37.7734 12.8878 37.9782 13.3796 38.3426 13.7423C38.7071 14.1049 39.2014 14.3086 39.7168 14.3086H68.7378C69.2533 14.3086 69.7476 14.1049 70.112 13.7423C70.4765 13.3796 70.6812 12.8878 70.6812 12.375C70.6812 11.8622 70.4765 11.3704 70.112 11.0077C69.7476 10.6451 69.2533 10.4414 68.7378 10.4414Z" fill="url(#paint3_linear_148_6)"/>
<path d="M89.7436 31.0664H78.4548V8.16063C78.4525 5.9964 77.5871 3.92151 76.0487 2.39149C74.5103 0.86147 72.4246 0.00136482 70.2494 0H38.2019C36.0273 0.00227488 33.9425 0.862786 32.4048 2.39271C30.8671 3.92263 30.0023 5.99699 30 8.16063V52.5938C30.0046 56.1479 31.4256 59.5552 33.9515 62.0684C36.4774 64.5816 39.9019 65.9955 43.474 66H84.2831C86.8594 65.9973 89.3293 64.9778 91.151 63.1653C92.9726 61.3528 93.9973 58.8953 94 56.332V35.3048C93.9991 34.1813 93.5502 33.104 92.7519 32.3094C91.9536 31.5148 90.8711 31.0678 89.7419 31.0664H89.7436ZM43.474 62.1328C40.9323 62.1296 38.4956 61.1236 36.6983 59.3354C34.9011 57.5471 33.8899 55.1227 33.8867 52.5938V8.16063C33.8867 7.02103 34.3417 5.9281 35.1516 5.12228C35.9615 4.31646 37.06 3.86375 38.2053 3.86375H70.2494C71.3948 3.86375 72.4932 4.31646 73.3031 5.12228C74.113 5.9281 74.568 7.02103 74.568 8.16063V56.332C74.5664 58.425 75.2504 60.4614 76.5166 62.1328H43.474ZM90.115 56.332C90.115 57.8705 89.5007 59.3459 88.4074 60.4338C87.314 61.5217 85.8311 62.1328 84.2849 62.1328C82.7386 62.1328 81.2557 61.5217 80.1623 60.4338C79.069 59.3459 78.4548 57.8705 78.4548 56.332V34.9336H89.7436C89.7925 34.9336 89.8409 34.9432 89.8861 34.9619C89.9313 34.9806 89.9723 35.0079 90.0068 35.0424C90.0413 35.0769 90.0687 35.1179 90.0872 35.1629C90.1058 35.2079 90.1152 35.2562 90.115 35.3048V56.332Z" fill="url(#paint4_linear_148_6)"/>
<path d="M65.5162 39.1514C65.1897 39.0362 64.8563 38.9176 64.5246 38.7956V32.8126C65.6941 33.2647 65.7753 33.8439 66.8066 33.8439C67.1906 33.8421 67.5656 33.7271 67.8841 33.5136C68.2026 33.3001 68.4505 32.9975 68.5964 32.644C68.7424 32.2906 68.7799 31.902 68.7042 31.5273C68.6286 31.1527 68.4431 30.8087 68.1712 30.5387C68.2092 30.4975 66.6805 29.2377 64.5246 28.8045V27.7733C64.5246 27.2605 64.3199 26.7686 63.9554 26.406C63.591 26.0434 63.0966 25.8397 62.5812 25.8397C62.0658 25.8397 61.5715 26.0434 61.2071 26.406C60.8426 26.7686 60.6379 27.2605 60.6379 27.7733V28.9369C55.3709 30.3119 54.2688 36.9841 57.7669 39.7134C58.6537 40.3828 59.6175 40.9448 60.6379 41.3875V49.3659C59.7949 49.2439 59.1557 48.9517 58.1417 48.2917C57.7104 48.0109 57.1846 47.9121 56.68 48.017C56.1754 48.1219 55.7334 48.422 55.4512 48.8512C55.169 49.2803 55.0697 49.8035 55.1751 50.3055C55.2806 50.8075 55.5822 51.2473 56.0135 51.5281C57.7634 52.6676 59.0382 53.1059 60.6379 53.2469V54.4053C60.6379 54.9181 60.8426 55.4099 61.2071 55.7726C61.5715 56.1352 62.0658 56.3389 62.5812 56.3389C63.0966 56.3389 63.591 56.1352 63.9554 55.7726C64.3199 55.4099 64.5246 54.9181 64.5246 54.4053V53.075C71.3204 51.3562 72.6557 41.6625 65.5162 39.1531V39.1514ZM60.6379 37.0064C60.4651 36.8981 60.3097 36.7864 60.1645 36.673C59.3371 36.0267 59.4597 34.0948 60.6379 33.1478V37.0064ZM64.5246 48.9328V42.9172C67.3611 44.1427 66.6822 47.6609 64.5246 48.9328Z" fill="url(#paint5_linear_148_6)"/>
<defs>
<linearGradient id="paint0_linear_148_6" x1="44.9091" y1="11.5" x2="101.195" y2="46.493" gradientUnits="userSpaceOnUse">
<stop stop-color="#289328"/>
<stop offset="1" stop-color="#66D05E"/>
</linearGradient>
<linearGradient id="paint1_linear_148_6" x1="44.9091" y1="11.5" x2="101.195" y2="46.493" gradientUnits="userSpaceOnUse">
<stop stop-color="#289328"/>
<stop offset="1" stop-color="#66D05E"/>
</linearGradient>
<linearGradient id="paint2_linear_148_6" x1="44.9091" y1="11.5" x2="101.195" y2="46.493" gradientUnits="userSpaceOnUse">
<stop stop-color="#289328"/>
<stop offset="1" stop-color="#66D05E"/>
</linearGradient>
<linearGradient id="paint3_linear_148_6" x1="44.9091" y1="11.5" x2="101.195" y2="46.493" gradientUnits="userSpaceOnUse">
<stop stop-color="#289328"/>
<stop offset="1" stop-color="#66D05E"/>
</linearGradient>
<linearGradient id="paint4_linear_148_6" x1="44.9091" y1="11.5" x2="101.195" y2="46.493" gradientUnits="userSpaceOnUse">
<stop stop-color="#289328"/>
<stop offset="1" stop-color="#66D05E"/>
</linearGradient>
<linearGradient id="paint5_linear_148_6" x1="44.9091" y1="11.5" x2="101.195" y2="46.493" gradientUnits="userSpaceOnUse">
<stop stop-color="#289328"/>
<stop offset="1" stop-color="#66D05E"/>
</linearGradient>
</defs>
</svg>
