<svg width="90" height="118" viewBox="0 0 90 118" fill="none" xmlns="http://www.w3.org/2000/svg">
<rect y="42" width="76" height="76" rx="22" fill="#EAF8F9"/>
<path d="M57.5 21.8462C59.6845 21.8462 61.8199 21.2056 63.6362 20.0054C65.4526 18.8051 66.8682 17.0992 67.7042 15.1032C68.5401 13.1073 68.7589 10.911 68.3327 8.79213C67.9065 6.67325 66.8546 4.72694 65.3099 3.19931C63.7653 1.67169 61.7973 0.63136 59.6548 0.209889C57.5122 -0.211581 55.2915 0.00473334 53.2733 0.831478C51.2551 1.65822 49.5301 3.05827 48.3165 4.85456C47.1028 6.65086 46.4551 8.76273 46.4551 10.9231C46.4582 13.8192 47.6229 16.5957 49.6935 18.6435C51.7642 20.6913 54.5717 21.8431 57.5 21.8462ZM57.5 3.7666C58.9312 3.7666 60.3303 4.18632 61.5203 4.97269C62.7103 5.75906 63.6378 6.87675 64.1855 8.18444C64.7332 9.49212 64.8765 10.9311 64.5973 12.3193C64.3181 13.7075 63.6289 14.9827 62.6169 15.9835C61.6048 16.9844 60.3154 17.666 58.9117 17.9421C57.508 18.2183 56.053 18.0765 54.7308 17.5349C53.4085 16.9932 52.2783 16.076 51.4832 14.8991C50.6881 13.7222 50.2637 12.3385 50.2637 10.9231C50.2659 9.02577 51.029 7.20677 52.3856 5.86514C53.7422 4.52351 55.5815 3.76881 57.5 3.7666Z" fill="url(#paint0_linear_50_4)"/>
<path d="M79.8438 21.8462C81.2247 21.8462 82.5747 21.4412 83.723 20.6825C84.8712 19.9237 85.7662 18.8452 86.2947 17.5834C86.8231 16.3216 86.9614 14.9332 86.692 13.5936C86.4226 12.2541 85.7576 11.0237 84.7811 10.0579C83.8046 9.09221 82.5604 8.43453 81.206 8.16808C79.8515 7.90164 78.4476 8.03839 77.1717 8.56104C75.8958 9.0837 74.8053 9.96878 74.0381 11.1044C73.2708 12.24 72.8613 13.5751 72.8613 14.9408C72.8631 16.7717 73.5993 18.5271 74.9084 19.8217C76.2175 21.1164 77.9924 21.8445 79.8438 21.8462ZM79.8438 11.802C80.4715 11.802 81.0851 11.9861 81.607 12.331C82.129 12.6759 82.5358 13.1661 82.776 13.7396C83.0162 14.3132 83.0791 14.9443 82.9566 15.5532C82.8341 16.162 82.5319 16.7213 82.088 17.1603C81.6441 17.5993 81.0786 17.8982 80.4629 18.0193C79.8473 18.1404 79.2091 18.0783 78.6292 17.8407C78.0492 17.6031 77.5535 17.2008 77.2048 16.6846C76.8561 16.1685 76.6699 15.5616 76.6699 14.9408C76.6708 14.1086 77.0055 13.3108 77.6005 12.7223C78.1955 12.1339 79.0023 11.8029 79.8438 11.802Z" fill="url(#paint1_linear_50_4)"/>
<path d="M81.379 26.115H78.4354C76.7894 26.1146 75.1775 26.5795 73.7898 27.4551C72.4022 28.3307 71.2965 29.5803 70.6033 31.0568C69.1662 29.4992 67.4163 28.2552 65.4656 27.4043C63.5148 26.5534 61.406 26.1143 59.274 26.115H55.7193C53.5872 26.1143 51.4784 26.5534 49.5276 27.4043C47.5769 28.2552 45.8271 29.4992 44.39 31.0568C43.6972 29.5814 42.5926 28.3324 41.2062 27.4569C39.8199 26.5814 38.2095 26.1159 36.5646 26.115H33.621C31.3422 26.1106 29.1548 27.0003 27.5386 28.5889C25.9224 30.1776 25.0094 32.3354 25 34.589V48.2994C25 48.7839 25.0967 49.2636 25.2844 49.7111C25.4722 50.1586 25.7474 50.565 26.0943 50.9072C26.4412 51.2493 26.8529 51.5204 27.3059 51.7048C27.7589 51.8893 28.2442 51.9836 28.7341 51.9823H40.3783C40.4759 53.0781 40.9847 54.0981 41.8045 54.8416C42.6243 55.5852 43.6957 55.9984 44.8081 56H70.1987C71.311 55.9984 72.3825 55.5852 73.2023 54.8416C74.0221 54.0981 74.5308 53.0781 74.6285 51.9823H86.1389C87.1615 51.9814 88.142 51.5797 88.8657 50.8653C89.5895 50.1508 89.9973 49.1818 90 48.1705V34.589C89.9906 32.3354 89.0776 30.1776 87.4614 28.5889C85.8452 27.0003 83.6577 26.1106 81.379 26.115ZM28.8086 34.589C28.8167 33.334 29.3279 32.1334 30.2302 31.2508C31.1324 30.3683 32.3519 29.8758 33.621 29.8816H36.5646C37.8336 29.8758 39.0531 30.3683 39.9554 31.2508C40.8576 32.1334 41.3689 33.334 41.377 34.589V35.878C40.0956 39.1759 40.3613 41.1513 40.3613 48.2124H28.8086V34.589ZM70.8301 51.5989C70.8301 51.7657 70.7633 51.9258 70.6444 52.044C70.5254 52.1623 70.364 52.2292 70.1953 52.2301H44.8047C44.6354 52.2301 44.4731 52.1636 44.3535 52.0452C44.2338 51.9269 44.1665 51.7663 44.1665 51.5989V41.3103C44.1697 38.2802 45.3882 35.375 47.5547 33.2324C49.7212 31.0898 52.6587 29.8847 55.7227 29.8816H59.2773C62.3411 29.8852 65.2784 31.0904 67.4448 33.2329C69.6112 35.3754 70.8299 38.2803 70.8335 41.3103L70.8301 51.5989ZM86.1914 48.1705C86.1914 48.2341 86.9023 48.2124 74.6387 48.2124C74.6387 41.0994 74.901 39.1725 73.623 35.878V34.589C73.6311 33.334 74.1424 32.1334 75.0446 31.2508C75.9469 30.3683 77.1664 29.8758 78.4354 29.8816H81.379C82.6481 29.8758 83.8676 30.3683 84.7698 31.2508C85.6721 32.1334 86.1833 33.334 86.1914 34.589V48.1705Z" fill="url(#paint2_linear_50_4)"/>
<path d="M35.1563 21.8462C36.5372 21.8462 37.8872 21.4412 39.0355 20.6825C40.1837 19.9237 41.0787 18.8452 41.6072 17.5834C42.1357 16.3216 42.2739 14.9332 42.0045 13.5936C41.7351 12.2541 41.0701 11.0237 40.0936 10.0579C39.1171 9.09221 37.8729 8.43453 36.5185 8.16808C35.164 7.90164 33.7601 8.03839 32.4842 8.56104C31.2083 9.0837 30.1178 9.96878 29.3506 11.1044C28.5833 12.24 28.1738 13.5751 28.1738 14.9408C28.1756 16.7717 28.9118 18.5271 30.2209 19.8217C31.53 21.1164 33.3049 21.8445 35.1563 21.8462ZM35.1563 11.802C35.784 11.802 36.3976 11.9861 36.9195 12.331C37.4415 12.6759 37.8483 13.1661 38.0885 13.7396C38.3287 14.3132 38.3916 14.9443 38.2691 15.5532C38.1466 16.162 37.8444 16.7213 37.4005 17.1603C36.9566 17.5993 36.3911 17.8982 35.7754 18.0193C35.1598 18.1404 34.5216 18.0783 33.9417 17.8407C33.3617 17.6031 32.8661 17.2008 32.5173 16.6846C32.1686 16.1685 31.9824 15.5616 31.9824 14.9408C31.9833 14.1086 32.318 13.3108 32.913 12.7223C33.508 12.1339 34.3148 11.8029 35.1563 11.802Z" fill="url(#paint3_linear_50_4)"/>
<defs>
<linearGradient id="paint0_linear_50_4" x1="40.142" y1="9.75758" x2="91.1532" y2="47.7185" gradientUnits="userSpaceOnUse">
<stop stop-color="#1C468A"/>
<stop offset="1" stop-color="#5E89D0"/>
</linearGradient>
<linearGradient id="paint1_linear_50_4" x1="40.142" y1="9.75758" x2="91.1532" y2="47.7185" gradientUnits="userSpaceOnUse">
<stop stop-color="#1C468A"/>
<stop offset="1" stop-color="#5E89D0"/>
</linearGradient>
<linearGradient id="paint2_linear_50_4" x1="40.142" y1="9.75758" x2="91.1532" y2="47.7185" gradientUnits="userSpaceOnUse">
<stop stop-color="#1C468A"/>
<stop offset="1" stop-color="#5E89D0"/>
</linearGradient>
<linearGradient id="paint3_linear_50_4" x1="40.142" y1="9.75758" x2="91.1532" y2="47.7185" gradientUnits="userSpaceOnUse">
<stop stop-color="#1C468A"/>
<stop offset="1" stop-color="#5E89D0"/>
</linearGradient>
</defs>
</svg>
