<svg width="105" height="122" viewBox="0 0 105 122" fill="none" xmlns="http://www.w3.org/2000/svg">
<rect y="44" width="78" height="78" rx="22" fill="#FAEEEE"/>
<path d="M102.961 45.821L85.7342 28.3841C87.6207 24.052 87.9459 19.1877 86.653 14.6382C85.3602 10.0886 82.5313 6.14189 78.6589 3.48533C74.7865 0.82877 70.116 -0.369382 65.4604 0.0994984C60.8049 0.568379 56.4594 2.67459 53.1806 6.05139C49.9017 9.42819 47.8971 13.8617 47.516 18.5799C47.1349 23.298 48.4012 28.002 51.0947 31.8728C53.7881 35.7435 57.7379 38.5358 62.2563 39.7635C66.7748 40.9911 71.5757 40.5763 75.823 38.5913L92.9615 55.9369C94.2905 57.2644 96.0844 58.006 97.9519 58C99.8193 57.9939 101.609 57.2406 102.929 55.9045C104.249 54.5684 104.994 52.7579 105 50.8684C105.006 48.9788 104.273 47.1636 102.961 45.8189V45.821ZM56.484 31.2885C54.3164 29.0959 52.84 26.3022 52.2417 23.2606C51.6434 20.219 51.95 17.0661 53.1226 14.2008C54.2953 11.3355 56.2815 8.88647 58.8298 7.16339C61.3782 5.4403 64.3743 4.5206 67.4393 4.5206C70.5043 4.5206 73.5004 5.4403 76.0488 7.16339C78.5971 8.88647 80.5832 11.3355 81.7559 14.2008C82.9286 17.0661 83.2352 20.219 82.6368 23.2606C82.0385 26.3022 80.5622 29.0959 78.3946 31.2885C75.4856 34.2219 71.5462 35.869 67.4393 35.869C63.3324 35.869 59.393 34.2219 56.484 31.2885ZM99.7716 52.7097C99.2928 53.194 98.6434 53.4662 97.9663 53.4662C97.2892 53.4662 96.6398 53.194 96.161 52.7097L79.7867 36.1374C81.1289 35.0646 82.3307 33.8233 83.3632 32.4434L99.7656 49.0441C100.242 49.5297 100.51 50.1863 100.51 50.8708C100.51 51.5552 100.242 52.2119 99.7656 52.6975L99.7716 52.7097Z" fill="url(#paint0_linear_48_2)"/>
<path d="M30.2567 27.3124H39.885C40.4835 27.3124 41.0575 27.0718 41.4807 26.6436C41.9039 26.2154 42.1417 25.6346 42.1417 25.029C42.1417 24.4234 41.9039 23.8426 41.4807 23.4144C41.0575 22.9862 40.4835 22.7456 39.885 22.7456H30.2567C29.6582 22.7456 29.0842 22.9862 28.661 23.4144C28.2378 23.8426 28 24.4234 28 25.029C28 25.6346 28.2378 26.2154 28.661 26.6436C29.0842 27.0718 29.6582 27.3124 30.2567 27.3124Z" fill="url(#paint1_linear_48_2)"/>
<path d="M30.2567 37.0548H43.4957C44.0942 37.0548 44.6682 36.8142 45.0914 36.386C45.5146 35.9578 45.7523 35.377 45.7523 34.7714C45.7523 34.1658 45.5146 33.585 45.0914 33.1568C44.6682 32.7286 44.0942 32.488 43.4957 32.488H30.2567C29.6582 32.488 29.0842 32.7286 28.661 33.1568C28.2378 33.585 28 34.1658 28 34.7714C28 35.377 28.2378 35.9578 28.661 36.386C29.0842 36.8142 29.6582 37.0548 30.2567 37.0548Z" fill="url(#paint2_linear_48_2)"/>
<path d="M30.2567 46.7972H53.112C53.7105 46.7972 54.2845 46.5566 54.7077 46.1284C55.1309 45.7002 55.3687 45.1194 55.3687 44.5138C55.3687 43.9082 55.1309 43.3275 54.7077 42.8993C54.2845 42.471 53.7105 42.2305 53.112 42.2305H30.2567C29.6582 42.2305 29.0842 42.471 28.661 42.8993C28.2378 43.3275 28 43.9082 28 44.5138C28 45.1194 28.2378 45.7002 28.661 46.1284C29.0842 46.5566 29.6582 46.7972 30.2567 46.7972Z" fill="url(#paint3_linear_48_2)"/>
<path d="M79.5761 51.9729H30.2567C29.6696 51.9906 29.1124 52.239 28.7033 52.6655C28.2942 53.092 28.0654 53.6629 28.0654 54.2573C28.0654 54.8516 28.2942 55.4226 28.7033 55.8491C29.1124 56.2755 29.6696 56.524 30.2567 56.5417H79.5761C80.1633 56.524 80.7205 56.2755 81.1296 55.8491C81.5387 55.4226 81.7675 54.8516 81.7675 54.2573C81.7675 53.6629 81.5387 53.092 81.1296 52.6655C80.7205 52.239 80.1633 51.9906 79.5761 51.9729Z" fill="url(#paint4_linear_48_2)"/>
<defs>
<linearGradient id="paint0_linear_48_2" x1="45.9375" y1="10.1061" x2="100.385" y2="56.4495" gradientUnits="userSpaceOnUse">
<stop stop-color="#E63A28"/>
<stop offset="1" stop-color="#E4766A"/>
</linearGradient>
<linearGradient id="paint1_linear_48_2" x1="45.9375" y1="10.1061" x2="100.385" y2="56.4495" gradientUnits="userSpaceOnUse">
<stop stop-color="#E63A28"/>
<stop offset="1" stop-color="#E4766A"/>
</linearGradient>
<linearGradient id="paint2_linear_48_2" x1="45.9375" y1="10.1061" x2="100.385" y2="56.4495" gradientUnits="userSpaceOnUse">
<stop stop-color="#E63A28"/>
<stop offset="1" stop-color="#E4766A"/>
</linearGradient>
<linearGradient id="paint3_linear_48_2" x1="45.9375" y1="10.1061" x2="100.385" y2="56.4495" gradientUnits="userSpaceOnUse">
<stop stop-color="#E63A28"/>
<stop offset="1" stop-color="#E4766A"/>
</linearGradient>
<linearGradient id="paint4_linear_48_2" x1="45.9375" y1="10.1061" x2="100.385" y2="56.4495" gradientUnits="userSpaceOnUse">
<stop stop-color="#E63A28"/>
<stop offset="1" stop-color="#E4766A"/>
</linearGradient>
</defs>
</svg>
