<svg width="80" height="119" viewBox="0 0 80 119" fill="none" xmlns="http://www.w3.org/2000/svg">
<rect y="43" width="76" height="76" rx="22" fill="#E5F7E5"/>
<path d="M42.5065 29.502H34.1986C33.7637 29.502 33.3466 29.6779 33.0391 29.9911C32.7316 30.3042 32.5588 30.729 32.5588 31.1719C32.5588 31.6148 32.7316 32.0395 33.0391 32.3527C33.3466 32.6659 33.7637 32.8418 34.1986 32.8418H42.5065C42.9414 32.8418 43.3584 32.6659 43.6659 32.3527C43.9734 32.0395 44.1462 31.6148 44.1462 31.1719C44.1462 30.729 43.9734 30.3042 43.6659 29.9911C43.3584 29.6779 42.9414 29.502 42.5065 29.502Z" fill="url(#paint0_linear_50_3)"/>
<path d="M42.5065 22.377H34.1986C33.7637 22.377 33.3466 22.5529 33.0391 22.8661C32.7316 23.1792 32.5588 23.604 32.5588 24.0469C32.5588 24.4898 32.7316 24.9145 33.0391 25.2277C33.3466 25.5409 33.7637 25.7168 34.1986 25.7168H42.5065C42.9414 25.7168 43.3584 25.5409 43.6659 25.2277C43.9734 24.9145 44.1462 24.4898 44.1462 24.0469C44.1462 23.604 43.9734 23.1792 43.6659 22.8661C43.3584 22.5529 42.9414 22.377 42.5065 22.377Z" fill="url(#paint1_linear_50_3)"/>
<path d="M58.6851 15.252H34.1986C33.7637 15.252 33.3466 15.4279 33.0391 15.7411C32.7316 16.0542 32.5588 16.479 32.5588 16.9219C32.5588 17.3648 32.7316 17.7895 33.0391 18.1027C33.3466 18.4159 33.7637 18.5918 34.1986 18.5918H58.6851C59.1199 18.5918 59.537 18.4159 59.8445 18.1027C60.152 17.7895 60.3248 17.3648 60.3248 16.9219C60.3248 16.479 60.152 16.0542 59.8445 15.7411C59.537 15.4279 59.1199 15.252 58.6851 15.252Z" fill="url(#paint2_linear_50_3)"/>
<path d="M58.6851 9.01758H34.1986C33.7637 9.01758 33.3466 9.19352 33.0391 9.50669C32.7316 9.81986 32.5588 10.2446 32.5588 10.6875C32.5588 11.1304 32.7316 11.5551 33.0391 11.8683C33.3466 12.1815 33.7637 12.3574 34.1986 12.3574H58.6851C59.1199 12.3574 59.537 12.1815 59.8445 11.8683C60.152 11.5551 60.3248 11.1304 60.3248 10.6875C60.3248 10.2446 60.152 9.81986 59.8445 9.50669C59.537 9.19352 59.1199 9.01758 58.6851 9.01758Z" fill="url(#paint3_linear_50_3)"/>
<path d="M76.4086 26.8301H66.8837V7.04781C66.8818 5.17871 66.1516 3.38676 64.8536 2.06538C63.5556 0.743997 61.7957 0.00117871 59.9604 0H32.9203C31.0855 0.00196467 29.3265 0.745133 28.0291 2.06643C26.7317 3.38772 26.0019 5.17922 26 7.04781V45.4219C26.0039 48.4914 27.2029 51.434 29.3341 53.6045C31.4653 55.775 34.3547 56.9961 37.3687 57H71.8014C73.9751 56.9976 76.0591 56.1172 77.5961 54.5518C79.1332 52.9865 79.9977 50.8641 80 48.6504V30.4905C79.9992 29.5202 79.6205 28.5899 78.9469 27.9036C78.2733 27.2173 77.36 26.8313 76.4072 26.8301H76.4086ZM37.3687 53.6602C35.2241 53.6574 33.1682 52.7886 31.6517 51.2442C30.1353 49.6998 29.2821 47.606 29.2794 45.4219V7.04781C29.2794 6.06361 29.6633 5.11972 30.3467 4.42378C31.03 3.72785 31.9569 3.33688 32.9233 3.33688H59.9604C60.9268 3.33688 61.8536 3.72785 62.537 4.42378C63.2203 5.11972 63.6043 6.06361 63.6043 7.04781V48.6504C63.6029 50.4579 64.1801 52.2167 65.2484 53.6602H37.3687ZM76.722 48.6504C76.722 49.9791 76.2038 51.2533 75.2812 52.1928C74.3587 53.1323 73.1075 53.6602 71.8029 53.6602C70.4982 53.6602 69.247 53.1323 68.3245 52.1928C67.402 51.2533 66.8837 49.9791 66.8837 48.6504V30.1699H76.4086C76.4499 30.1699 76.4908 30.1782 76.5289 30.1944C76.567 30.2105 76.6016 30.2341 76.6307 30.2639C76.6599 30.2937 76.6829 30.3291 76.6986 30.368C76.7143 30.4069 76.7222 30.4485 76.722 30.4905V48.6504Z" fill="url(#paint4_linear_50_3)"/>
<path d="M55.9668 33.8126C55.6913 33.7131 55.41 33.6107 55.1301 33.5053V28.3382C56.1169 28.7286 56.1854 29.2288 57.0555 29.2288C57.3796 29.2272 57.6959 29.128 57.9647 28.9436C58.2335 28.7592 58.4426 28.4979 58.5657 28.1926C58.6889 27.8873 58.7205 27.5517 58.6567 27.2281C58.5928 26.9046 58.4364 26.6075 58.207 26.3744C58.239 26.3387 56.9491 25.2507 55.1301 24.8766V23.986C55.1301 23.5431 54.9574 23.1184 54.6499 22.8052C54.3424 22.492 53.9253 22.3161 53.4904 22.3161C53.0555 22.3161 52.6385 22.492 52.331 22.8052C52.0235 23.1184 51.8507 23.5431 51.8507 23.986V24.9909C47.4067 26.1784 46.4768 31.9408 49.4283 34.298C50.1766 34.8761 50.9898 35.3614 51.8507 35.7437V42.6342C51.1394 42.5288 50.6001 42.2765 49.7446 41.7065C49.3806 41.464 48.937 41.3786 48.5113 41.4693C48.0855 41.5599 47.7126 41.819 47.4745 42.1896C47.2363 42.5603 47.1526 43.0121 47.2415 43.4457C47.3305 43.8792 47.5849 44.259 47.9489 44.5016C49.4254 45.4857 50.501 45.8642 51.8507 45.9859V46.9864C51.8507 47.4293 52.0235 47.854 52.331 48.1672C52.6385 48.4804 53.0555 48.6563 53.4904 48.6563C53.9253 48.6563 54.3424 48.4804 54.6499 48.1672C54.9574 47.854 55.1301 47.4293 55.1301 46.9864V45.8375C60.8641 44.3531 61.9907 35.9812 55.9668 33.8141V33.8126ZM51.8507 31.9601C51.7049 31.8666 51.5738 31.7701 51.4513 31.6721C50.7532 31.114 50.8567 29.4455 51.8507 28.6276V31.9601ZM55.1301 42.2602V37.0648C57.5234 38.1232 56.9506 41.1617 55.1301 42.2602Z" fill="url(#paint5_linear_50_3)"/>
<defs>
<linearGradient id="paint0_linear_50_3" x1="38.5795" y1="9.93183" x2="86.6812" y2="39.1481" gradientUnits="userSpaceOnUse">
<stop stop-color="#289328"/>
<stop offset="1" stop-color="#66D05E"/>
</linearGradient>
<linearGradient id="paint1_linear_50_3" x1="38.5795" y1="9.93183" x2="86.6812" y2="39.1481" gradientUnits="userSpaceOnUse">
<stop stop-color="#289328"/>
<stop offset="1" stop-color="#66D05E"/>
</linearGradient>
<linearGradient id="paint2_linear_50_3" x1="38.5795" y1="9.93183" x2="86.6812" y2="39.1481" gradientUnits="userSpaceOnUse">
<stop stop-color="#289328"/>
<stop offset="1" stop-color="#66D05E"/>
</linearGradient>
<linearGradient id="paint3_linear_50_3" x1="38.5795" y1="9.93183" x2="86.6812" y2="39.1481" gradientUnits="userSpaceOnUse">
<stop stop-color="#289328"/>
<stop offset="1" stop-color="#66D05E"/>
</linearGradient>
<linearGradient id="paint4_linear_50_3" x1="38.5795" y1="9.93183" x2="86.6812" y2="39.1481" gradientUnits="userSpaceOnUse">
<stop stop-color="#289328"/>
<stop offset="1" stop-color="#66D05E"/>
</linearGradient>
<linearGradient id="paint5_linear_50_3" x1="38.5795" y1="9.93183" x2="86.6812" y2="39.1481" gradientUnits="userSpaceOnUse">
<stop stop-color="#289328"/>
<stop offset="1" stop-color="#66D05E"/>
</linearGradient>
</defs>
</svg>
