<svg width="120" height="139" viewBox="0 0 120 139" fill="none" xmlns="http://www.w3.org/2000/svg">
<rect y="50" width="89" height="89" rx="22" fill="#FAEEEE"/>
<path d="M117.67 52.1411L97.9819 32.2991C100.138 27.3696 100.51 21.8343 99.032 16.6572C97.5545 11.4801 94.3215 6.98905 89.8959 3.96607C85.4703 0.943083 80.1325 -0.420331 74.8119 0.113222C69.4914 0.646776 64.5251 3.0435 60.7778 6.88606C57.0305 10.7286 54.7396 15.7736 54.304 21.1426C53.8684 26.5116 55.3157 31.8644 58.3939 36.269C61.4721 40.6737 65.9861 43.8511 71.1501 45.2481C76.314 46.645 81.8007 46.173 86.6548 43.9142L106.242 63.6523C107.761 65.1629 109.811 66.0069 111.945 66C114.079 65.993 116.124 65.1358 117.633 63.6154C119.142 62.095 119.993 60.0349 120 57.8847C120.007 55.7345 119.169 53.6689 117.67 52.1388V52.1411ZM64.5531 35.6042C62.0758 33.1092 60.3886 29.9301 59.7048 26.4689C59.021 23.0078 59.3714 19.4201 60.7116 16.1596C62.0518 12.899 64.3217 10.1122 67.2341 8.15144C70.1465 6.19069 73.5706 5.14413 77.0735 5.14413C80.5763 5.14413 84.0004 6.19069 86.9129 8.15144C89.8253 10.1122 92.0951 12.899 93.4353 16.1596C94.7755 19.4201 95.1259 23.0078 94.4421 26.4689C93.7583 29.9301 92.0711 33.1092 89.5938 35.6042C86.2693 38.9421 81.767 40.8164 77.0735 40.8164C72.3799 40.8164 67.8777 38.9421 64.5531 35.6042ZM114.025 59.98C113.477 60.5311 112.735 60.8408 111.961 60.8408C111.188 60.8408 110.446 60.5311 109.898 59.98L91.1848 41.1219C92.7187 39.901 94.0923 38.4885 95.2723 36.9184L114.018 55.8088C114.563 56.3613 114.868 57.1086 114.868 57.8875C114.868 58.6663 114.563 59.4136 114.018 59.9661L114.025 59.98Z" fill="url(#paint0_linear_148_5)"/>
<path d="M34.579 31.0796H45.5829C46.2669 31.0796 46.9229 30.8059 47.4066 30.3186C47.8902 29.8313 48.1619 29.1704 48.1619 28.4813C48.1619 27.7922 47.8902 27.1313 47.4066 26.644C46.9229 26.1567 46.2669 25.883 45.5829 25.883H34.579C33.895 25.883 33.239 26.1567 32.7554 26.644C32.2717 27.1313 32 27.7922 32 28.4813C32 29.1704 32.2717 29.8313 32.7554 30.3186C33.239 30.8059 33.895 31.0796 34.579 31.0796Z" fill="url(#paint1_linear_148_5)"/>
<path d="M34.579 42.1658H49.7094C50.3934 42.1658 51.0493 41.892 51.533 41.4048C52.0167 40.9175 52.2884 40.2566 52.2884 39.5675C52.2884 38.8783 52.0167 38.2175 51.533 37.7302C51.0493 37.2429 50.3934 36.9691 49.7094 36.9691H34.579C33.895 36.9691 33.239 37.2429 32.7554 37.7302C32.2717 38.2175 32 38.8783 32 39.5675C32 40.2566 32.2717 40.9175 32.7554 41.4048C33.239 41.892 33.895 42.1658 34.579 42.1658Z" fill="url(#paint2_linear_148_5)"/>
<path d="M34.579 53.252H60.6995C61.3835 53.252 62.0395 52.9783 62.5231 52.491C63.0068 52.0037 63.2785 51.3428 63.2785 50.6537C63.2785 49.9646 63.0068 49.3037 62.5231 48.8164C62.0395 48.3291 61.3835 48.0553 60.6995 48.0553H34.579C33.895 48.0553 33.239 48.3291 32.7554 48.8164C32.2717 49.3037 32 49.9646 32 50.6537C32 51.3428 32.2717 52.0037 32.7554 52.491C33.239 52.9783 33.895 53.252 34.579 53.252Z" fill="url(#paint3_linear_148_5)"/>
<path d="M90.9441 59.1416H34.5791C33.9081 59.1617 33.2713 59.4444 32.8038 59.9297C32.3362 60.415 32.0747 61.0647 32.0747 61.741C32.0747 62.4174 32.3362 63.0671 32.8038 63.5524C33.2713 64.0377 33.9081 64.3204 34.5791 64.3405H90.9441C91.6151 64.3204 92.2519 64.0377 92.7195 63.5524C93.187 63.0671 93.4485 62.4174 93.4485 61.741C93.4485 61.0647 93.187 60.415 92.7195 59.9297C92.2519 59.4444 91.6151 59.1617 90.9441 59.1416Z" fill="url(#paint4_linear_148_5)"/>
<defs>
<linearGradient id="paint0_linear_148_5" x1="52.5" y1="11.5" x2="114.5" y2="64.5" gradientUnits="userSpaceOnUse">
<stop stop-color="#E63A28"/>
<stop offset="1" stop-color="#E4766A"/>
</linearGradient>
<linearGradient id="paint1_linear_148_5" x1="52.5" y1="11.5" x2="114.5" y2="64.5" gradientUnits="userSpaceOnUse">
<stop stop-color="#E63A28"/>
<stop offset="1" stop-color="#E4766A"/>
</linearGradient>
<linearGradient id="paint2_linear_148_5" x1="52.5" y1="11.5" x2="114.5" y2="64.5" gradientUnits="userSpaceOnUse">
<stop stop-color="#E63A28"/>
<stop offset="1" stop-color="#E4766A"/>
</linearGradient>
<linearGradient id="paint3_linear_148_5" x1="52.5" y1="11.5" x2="114.5" y2="64.5" gradientUnits="userSpaceOnUse">
<stop stop-color="#E63A28"/>
<stop offset="1" stop-color="#E4766A"/>
</linearGradient>
<linearGradient id="paint4_linear_148_5" x1="52.5" y1="11.5" x2="114.5" y2="64.5" gradientUnits="userSpaceOnUse">
<stop stop-color="#E63A28"/>
<stop offset="1" stop-color="#E4766A"/>
</linearGradient>
</defs>
</svg>
