<svg viewBox="0 0 1920 831" fill="none" xmlns="http://www.w3.org/2000/svg">
<path fill-rule="evenodd" clip-rule="evenodd" d="M-30.3136 -157.153C47.6612 -206.894 169.326 -241.019 382.546 -210.357C545.446 -186.931 633.226 -124.028 796.468 -115.131C990.102 -104.577 1107.64 -97.8856 1309.41 -150.249C1661.25 -241.563 1884.59 -202.193 1965.91 -121.49C2113.14 24.6217 2079.7 238.576 1964.05 425.215C1615.63 987.526 225.534 949.478 -69.628 409.833C-164.355 236.642 -188.778 -56.0693 -30.3136 -157.153Z" fill="#EEF3FA"/>
<path fill-rule="evenodd" clip-rule="evenodd" d="M-30.3136 -157.153C47.6612 -206.894 169.326 -241.019 382.546 -210.357C545.446 -186.931 633.226 -124.028 796.468 -115.131C990.102 -104.577 1107.64 -97.8856 1309.41 -150.249C1661.25 -241.563 1884.59 -202.193 1965.91 -121.49C2113.14 24.6217 2079.7 238.576 1964.05 425.215C1615.63 987.526 225.534 949.478 -69.628 409.833C-164.355 236.642 -188.778 -56.0693 -30.3136 -157.153Z" fill="#EEF3FA"/>
<path opacity="0.2" fill-rule="evenodd" clip-rule="evenodd" d="M1336.78 249.503L1333.22 250.136L1335.26 261.574C1335.38 262.209 1334.97 262.812 1334.36 262.921L1317.15 265.983C1316.54 266.092 1315.95 265.664 1315.84 265.029L1313.8 253.59L1310.24 254.222C1308.1 254.602 1306.04 253.102 1305.65 250.878L1301.07 225.22C1300.67 222.995 1302.08 220.877 1304.22 220.496L1307.78 219.864L1305.74 208.426C1305.62 207.791 1306.03 207.187 1306.64 207.079L1323.85 204.017C1324.46 203.908 1325.05 204.335 1325.16 204.97L1327.2 216.409L1330.76 215.776C1332.9 215.397 1334.96 216.897 1335.35 219.121L1336.46 225.32L1337.45 225.143C1338.06 225.036 1338.65 225.461 1338.76 226.098C1338.87 226.733 1338.47 227.336 1337.86 227.445L1336.87 227.621L1337.44 230.8L1338.43 230.624C1339.04 230.515 1339.63 230.942 1339.74 231.577C1339.85 232.213 1339.45 232.817 1338.84 232.925L1337.85 233.101L1339.93 244.779C1340.33 247.004 1338.92 249.123 1336.78 249.503ZM1317.84 263.486L1332.85 260.816L1331.01 250.529L1316.01 253.197L1317.84 263.486ZM1323.16 206.515L1308.15 209.183L1309.99 219.471L1324.99 216.802L1323.16 206.515ZM1337.72 245.173L1333.15 219.514C1332.97 218.559 1332.09 217.914 1331.17 218.077L1304.63 222.798C1303.71 222.96 1303.11 223.872 1303.28 224.827L1307.85 250.485C1308.03 251.44 1308.91 252.086 1309.83 251.923L1336.37 247.202C1337.29 247.039 1337.89 246.128 1337.72 245.173ZM1322.29 240.893C1322.12 241.107 1321.88 241.242 1321.63 241.287C1321.38 241.331 1321.11 241.288 1320.87 241.145C1320.02 240.636 1315.73 238.035 1314.63 236.836C1314.13 236.292 1313.45 235.407 1313.28 234.015C1312.98 231.702 1314.45 229.59 1316.6 229.206C1317.79 228.994 1318.86 229.458 1319.61 229.951C1320.16 229.23 1321 228.423 1322.15 228.22C1324.31 227.836 1326.41 229.314 1326.94 231.585C1327.26 232.949 1326.92 234.015 1326.64 234.698C1326.03 236.213 1322.91 240.124 1322.29 240.893ZM1324.75 232.101C1324.51 231.057 1323.53 230.349 1322.56 230.52C1321.77 230.661 1321.1 231.789 1320.92 232.172C1320.77 232.518 1320.46 232.76 1320.09 232.818C1319.73 232.876 1319.36 232.746 1319.1 232.467C1318.8 232.153 1317.84 231.359 1317.01 231.507C1316.05 231.679 1315.37 232.683 1315.5 233.745C1315.57 234.306 1315.79 234.74 1316.25 235.242C1316.83 235.876 1319.29 237.486 1321.15 238.628C1322.5 236.92 1324.24 234.565 1324.57 233.762C1324.83 233.132 1324.88 232.65 1324.75 232.101ZM1333.78 244.813L1311.43 248.789C1310.82 248.897 1310.23 248.471 1310.12 247.835L1306.32 226.534C1306.2 225.898 1306.61 225.296 1307.22 225.187L1329.57 221.21C1330.18 221.103 1330.77 221.53 1330.88 222.165L1331.85 227.614C1331.97 228.25 1331.57 228.852 1330.95 228.961C1330.34 229.07 1329.76 228.643 1329.64 228.007L1328.88 223.708L1308.73 227.291L1312.12 246.291L1332.27 242.708L1331.5 238.41C1331.39 237.774 1331.79 237.171 1332.4 237.062C1333.01 236.953 1333.6 237.381 1333.71 238.016L1334.68 243.466C1334.8 244.101 1334.39 244.704 1333.78 244.813ZM1331.89 234.183C1331.42 234.265 1330.95 234.03 1330.71 233.604C1330.48 233.187 1330.52 232.651 1330.81 232.283C1331.11 231.899 1331.64 231.765 1332.09 231.952C1332.52 232.133 1332.81 232.584 1332.8 233.065C1332.8 233.615 1332.41 234.09 1331.89 234.183Z" fill="#5F8AD4"/>
<path opacity="0.2" fill-rule="evenodd" clip-rule="evenodd" d="M1235.2 255.4L1225.03 257.329L1228.96 278.107C1229.07 278.638 1228.72 279.15 1228.19 279.25L1223.39 280.161C1222.86 280.262 1222.35 279.912 1222.25 279.381C1222.15 278.85 1222.49 278.337 1223.02 278.237L1226.86 277.51L1223.11 257.692L1219.23 258.43C1218.73 261.515 1216.52 264.056 1213.56 264.993L1214 267.327L1215.82 266.981C1217.67 266.629 1219.47 267.853 1219.82 269.71L1220.4 272.788C1220.75 274.645 1219.53 276.441 1217.68 276.793L1212.11 277.848C1210.26 278.2 1208.47 276.975 1208.12 275.118L1207.53 272.04C1207.18 270.184 1208.4 268.387 1210.25 268.036L1212.08 267.69L1211.64 265.356C1208.53 265.572 1205.55 264.012 1203.96 261.324L1200.08 262.061L1203.83 281.878L1207.67 281.149C1208.2 281.048 1208.71 281.398 1208.81 281.929C1208.91 282.459 1208.56 282.972 1208.03 283.073L1203.23 283.983C1202.7 284.083 1202.19 283.734 1202.09 283.204L1198.16 262.425L1187.98 264.354C1187.45 264.454 1186.94 264.105 1186.84 263.574L1186.11 259.726C1186.01 259.195 1186.36 258.683 1186.89 258.583L1192.31 257.554L1191.49 253.193L1186.16 254.203C1185.63 254.304 1185.12 253.954 1185.02 253.424C1184.92 252.892 1185.27 252.38 1185.79 252.28L1198.37 249.895C1198.9 249.795 1199.41 250.143 1199.51 250.675C1199.61 251.206 1199.26 251.718 1198.73 251.819L1193.41 252.829L1194.23 257.19L1202.95 255.537C1203.23 254.061 1203.92 252.662 1204.93 251.541C1206.15 250.189 1207.74 249.295 1209.53 248.956C1211.31 248.616 1213.12 248.866 1214.75 249.68C1216.1 250.355 1217.25 251.402 1218.05 252.672L1226.89 250.998L1226.06 246.637L1220.74 247.647C1220.21 247.748 1219.69 247.398 1219.59 246.866C1219.49 246.335 1219.84 245.824 1220.37 245.722L1232.95 243.339C1233.48 243.238 1233.99 243.587 1234.09 244.119C1234.19 244.65 1233.84 245.162 1233.31 245.263L1227.98 246.272L1228.81 250.633L1234.11 249.628C1234.64 249.527 1235.15 249.876 1235.25 250.408L1235.98 254.256C1236.08 254.787 1235.74 255.299 1235.2 255.4ZM1210.62 269.96C1209.83 270.11 1209.3 270.88 1209.45 271.675L1210.04 274.753C1210.19 275.55 1210.95 276.074 1211.75 275.924L1217.32 274.868C1218.11 274.718 1218.63 273.948 1218.48 273.153L1217.9 270.074C1217.75 269.279 1216.98 268.754 1216.19 268.904L1210.62 269.96ZM1233.52 251.734L1217.73 254.727C1217.31 254.808 1216.88 254.597 1216.68 254.211C1215.41 251.731 1212.62 250.362 1209.89 250.88C1207.16 251.397 1205.06 253.695 1204.79 256.465C1204.74 256.898 1204.42 257.251 1204 257.331L1188.21 260.325L1188.58 262.249L1204.3 259.267C1204.74 259.184 1205.18 259.406 1205.37 259.809C1206.6 262.404 1209.42 263.842 1212.24 263.307C1215.06 262.773 1217.17 260.399 1217.36 257.534C1217.39 257.09 1217.72 256.722 1218.16 256.639L1233.88 253.657L1233.52 251.734ZM1214.16 273.374C1213.63 273.474 1213.12 273.125 1213.02 272.594C1212.92 272.062 1213.27 271.55 1213.8 271.45C1214.33 271.35 1214.84 271.698 1214.94 272.23C1215.04 272.761 1214.69 273.274 1214.16 273.374ZM1208.27 242.32C1211.17 241.77 1214.09 242.194 1216.71 243.545C1217.19 243.791 1217.38 244.382 1217.13 244.863C1216.99 245.143 1216.73 245.323 1216.44 245.377C1216.24 245.417 1216.02 245.39 1215.82 245.286C1213.59 244.136 1211.1 243.776 1208.63 244.244C1206.17 244.712 1203.99 245.957 1202.33 247.843C1201.97 248.248 1201.36 248.289 1200.95 247.931C1200.55 247.574 1200.51 246.955 1200.86 246.55C1202.81 244.332 1205.37 242.87 1208.27 242.32ZM1198.65 244.598C1198.3 245.003 1197.68 245.043 1197.27 244.686C1196.87 244.329 1196.83 243.71 1197.19 243.305C1199.86 240.26 1203.37 238.252 1207.36 237.497C1211.34 236.741 1215.35 237.322 1218.94 239.178C1219.43 239.426 1219.61 240.016 1219.37 240.496C1219.22 240.776 1218.97 240.957 1218.68 241.011C1218.47 241.05 1218.25 241.023 1218.05 240.919C1214.84 239.265 1211.27 238.747 1207.72 239.42C1204.17 240.094 1201.03 241.884 1198.65 244.598ZM1221.04 236.41C1220.83 236.449 1220.61 236.421 1220.41 236.318C1216.17 234.132 1211.45 233.447 1206.76 234.338C1202.07 235.227 1197.92 237.593 1194.78 241.177C1194.42 241.584 1193.8 241.624 1193.4 241.266C1192.99 240.909 1192.95 240.291 1193.31 239.884C1196.75 235.969 1201.27 233.385 1206.39 232.413C1211.52 231.442 1216.67 232.19 1221.3 234.577C1221.78 234.824 1221.97 235.415 1221.72 235.895C1221.58 236.174 1221.32 236.356 1221.04 236.41Z" fill="#65D45F"/>
<path opacity="0.2" fill-rule="evenodd" clip-rule="evenodd" d="M1311.79 328.149L1267.55 349.443C1264.73 350.794 1261.36 349.602 1260.01 346.779L1258.54 343.699C1258.29 343.196 1258.51 342.592 1259.01 342.351L1260.82 341.478L1246.5 311.492C1245.28 308.938 1246.36 305.875 1248.9 304.648L1288.68 285.504C1291.22 284.282 1294.27 285.36 1295.5 287.912L1309.82 317.897L1311.63 317.024C1312.13 316.783 1312.73 316.995 1312.97 317.497L1314.44 320.578C1315.79 323.405 1314.6 326.791 1311.79 328.149ZM1293.68 288.785C1292.94 287.237 1291.09 286.584 1289.55 287.325L1249.77 306.469C1248.23 307.214 1247.58 309.07 1248.32 310.62L1262.64 340.605L1308 318.77L1293.68 288.785ZM1281.81 333.618C1282.72 334.523 1284.09 334.758 1285.24 334.205L1288.87 332.457C1290.03 331.901 1290.71 330.677 1290.57 329.401L1281.81 333.618ZM1312.63 321.451L1311.6 319.282L1292.45 328.497C1293.03 330.824 1291.9 333.24 1289.74 334.279L1286.12 336.026C1283.96 337.06 1281.38 336.432 1279.93 334.522L1260.78 343.736L1261.82 345.905C1262.69 347.724 1264.86 348.492 1266.68 347.621L1310.92 326.327C1312.73 325.453 1313.5 323.272 1312.63 321.451ZM1250.57 308.326L1290.49 289.112C1290.99 288.871 1291.59 289.083 1291.83 289.586L1304.88 316.912C1305.12 317.414 1304.91 318.018 1304.41 318.259L1264.49 337.472C1263.99 337.714 1263.39 337.501 1263.15 336.998L1250.1 309.674C1249.86 309.171 1250.07 308.567 1250.57 308.326ZM1264.53 335.215L1302.63 316.874L1290.45 291.371L1252.35 309.712L1264.53 335.215Z" fill="#E63A28"/>
<path opacity="0.2" fill-rule="evenodd" clip-rule="evenodd" d="M1274.77 189.208L1267.82 210.772C1267.03 213.218 1264.41 214.564 1261.97 213.774L1226.21 202.159C1223.78 201.367 1222.44 198.734 1223.23 196.289L1230.18 174.724C1230.97 172.279 1233.59 170.933 1236.03 171.724L1238.23 172.439L1238.57 171.389C1239.13 169.653 1240.99 168.697 1242.72 169.26C1244.45 169.82 1245.4 171.69 1244.84 173.426L1244.5 174.475L1249.48 176.092L1254.19 171.913C1254.43 171.697 1254.77 171.626 1255.08 171.726L1267.15 175.649C1267.46 175.749 1267.69 176.005 1267.76 176.322L1269.14 182.477L1271.79 183.338C1274.22 184.129 1275.56 186.762 1274.77 189.208ZM1242.16 171.008C1241.39 170.759 1240.56 171.184 1240.31 171.955L1239.97 173.005L1242.76 173.909L1243.1 172.861C1243.35 172.089 1242.92 171.258 1242.16 171.008ZM1266.09 177.237L1255.01 173.637L1251.5 176.75L1267.11 181.82L1266.09 177.237ZM1271.22 185.087L1235.46 173.472C1233.99 172.994 1232.4 173.809 1231.92 175.29L1224.97 196.855C1224.49 198.336 1225.3 199.93 1226.78 200.409L1262.54 212.024C1264.01 212.503 1265.6 211.688 1266.08 210.206L1273.03 188.643C1273.51 187.161 1272.7 185.566 1271.22 185.087ZM1250.85 205.522C1244.8 203.557 1241.47 197.014 1243.43 190.938C1243.9 189.47 1244.64 188.135 1245.64 186.972C1245.96 186.587 1246.54 186.542 1246.93 186.871C1247.31 187.202 1247.35 187.782 1247.03 188.168C1246.19 189.145 1245.57 190.269 1245.17 191.504C1243.52 196.616 1246.32 202.119 1251.41 203.773C1256.5 205.426 1261.98 202.612 1263.63 197.501C1265.28 192.389 1262.48 186.885 1257.39 185.232C1256.16 184.832 1254.88 184.683 1253.6 184.789C1253.1 184.832 1252.66 184.455 1252.62 183.95C1252.58 183.444 1252.95 182.999 1253.45 182.957C1254.98 182.83 1256.49 183.007 1257.95 183.483C1264.01 185.448 1267.33 191.99 1265.37 198.067C1263.42 204.143 1256.9 207.487 1250.85 205.522ZM1256.71 187.331C1260.65 188.61 1262.82 192.868 1261.54 196.822C1260.27 200.777 1256.03 202.953 1252.09 201.673C1248.15 200.394 1245.98 196.137 1247.26 192.182C1248.53 188.228 1252.78 186.052 1256.71 187.331ZM1252.65 199.925C1255.63 200.892 1258.84 199.246 1259.8 196.255C1260.76 193.267 1259.13 190.047 1256.15 189.08C1253.17 188.113 1249.96 189.759 1249 192.748C1248.04 195.738 1249.67 198.957 1252.65 199.925ZM1255.51 191.047C1257.41 191.664 1258.45 193.715 1257.84 195.62C1257.68 196.103 1257.17 196.367 1256.69 196.211C1256.21 196.055 1255.94 195.537 1256.1 195.053C1256.4 194.114 1255.89 193.101 1254.95 192.797C1254.47 192.641 1254.21 192.123 1254.36 191.64C1254.52 191.156 1255.03 190.891 1255.51 191.047ZM1249.98 185.828C1249.77 185.939 1249.51 185.959 1249.29 185.884C1249.06 185.809 1248.86 185.643 1248.75 185.428C1248.64 185.213 1248.62 184.957 1248.7 184.727C1248.77 184.497 1248.94 184.301 1249.15 184.192C1249.37 184.082 1249.62 184.06 1249.85 184.135C1250.08 184.209 1250.27 184.376 1250.38 184.591C1250.49 184.808 1250.51 185.063 1250.44 185.293C1250.36 185.523 1250.2 185.718 1249.98 185.828ZM1240.75 183.113L1236.22 181.642C1235.74 181.486 1235.48 180.968 1235.64 180.484C1235.79 180.002 1236.31 179.737 1236.79 179.893L1241.32 181.364C1241.8 181.52 1242.06 182.039 1241.91 182.522C1241.75 183.005 1241.23 183.269 1240.75 183.113ZM1270.93 170.506L1266.7 172.676C1266.47 172.793 1266.22 172.805 1266 172.733C1265.78 172.66 1265.58 172.502 1265.47 172.277C1265.24 171.825 1265.42 171.27 1265.87 171.04L1270.1 168.869C1270.55 168.637 1271.1 168.817 1271.33 169.269C1271.56 169.721 1271.38 170.275 1270.93 170.506ZM1263.01 170.795C1262.85 171.277 1262.34 171.543 1261.86 171.387C1261.37 171.23 1261.11 170.712 1261.27 170.229L1262.77 165.561C1262.93 165.078 1263.44 164.814 1263.92 164.97C1264.41 165.126 1264.67 165.644 1264.51 166.128L1263.01 170.795ZM1258.41 169.984C1258.18 170.1 1257.93 170.113 1257.71 170.041C1257.49 169.968 1257.29 169.81 1257.18 169.584L1255.02 165.338C1254.79 164.886 1254.97 164.332 1255.42 164.101C1255.87 163.87 1256.42 164.049 1256.65 164.5L1258.81 168.749C1259.04 169.2 1258.86 169.753 1258.41 169.984Z" fill="#D2B92F"/>
<path opacity="0.05" fill-rule="evenodd" clip-rule="evenodd" d="M131.118 588.837C127.739 588.837 125 591.56 125 594.919C125 598.277 127.739 600.999 131.118 600.999C134.496 600.999 137.236 598.277 137.236 594.919C137.236 591.56 134.496 588.837 131.118 588.837ZM171.321 588.837C167.942 588.837 165.203 591.56 165.203 594.919C165.203 598.277 167.942 600.999 171.321 600.999C174.7 600.999 177.439 598.277 177.439 594.919C177.439 591.56 174.7 588.837 171.321 588.837ZM211.524 588.837C208.146 588.837 205.406 591.56 205.406 594.919C205.406 598.277 208.146 600.999 211.524 600.999C214.903 600.999 217.642 598.277 217.642 594.919C217.642 591.56 214.903 588.837 211.524 588.837ZM253.476 588.837C250.096 588.837 247.357 591.56 247.357 594.919C247.357 598.277 250.096 600.999 253.476 600.999C256.854 600.999 259.593 598.277 259.593 594.919C259.593 591.56 256.854 588.837 253.476 588.837ZM293.679 588.837C290.3 588.837 287.561 591.56 287.561 594.919C287.561 598.277 290.3 600.999 293.679 600.999C297.057 600.999 299.796 598.277 299.796 594.919C299.796 591.56 297.057 588.837 293.679 588.837ZM333.882 588.837C330.503 588.837 327.763 591.56 327.763 594.919C327.763 598.277 330.503 600.999 333.882 600.999C337.26 600.999 340 598.277 340 594.919C340 591.56 337.26 588.837 333.882 588.837ZM131.118 546.269C127.739 546.269 125 548.993 125 552.351C125 555.709 127.739 558.432 131.118 558.432C134.496 558.432 137.236 555.709 137.236 552.351C137.236 548.993 134.496 546.269 131.118 546.269ZM171.321 546.269C167.942 546.269 165.203 548.993 165.203 552.351C165.203 555.709 167.942 558.432 171.321 558.432C174.7 558.432 177.439 555.709 177.439 552.351C177.439 548.993 174.7 546.269 171.321 546.269ZM211.524 546.269C208.146 546.269 205.406 548.993 205.406 552.351C205.406 555.709 208.146 558.432 211.524 558.432C214.903 558.432 217.642 555.709 217.642 552.351C217.642 548.993 214.903 546.269 211.524 546.269ZM253.476 546.269C250.096 546.269 247.357 548.993 247.357 552.351C247.357 555.709 250.096 558.432 253.476 558.432C256.854 558.432 259.593 555.709 259.593 552.351C259.593 548.993 256.854 546.269 253.476 546.269ZM293.679 546.269C290.3 546.269 287.561 548.993 287.561 552.351C287.561 555.709 290.3 558.432 293.679 558.432C297.057 558.432 299.796 555.709 299.796 552.351C299.796 548.993 297.057 546.269 293.679 546.269ZM333.882 546.269C330.503 546.269 327.763 548.993 327.763 552.351C327.763 555.709 330.503 558.432 333.882 558.432C337.26 558.432 340 555.709 340 552.351C340 548.993 337.26 546.269 333.882 546.269ZM131.118 503.702C127.739 503.702 125 506.425 125 509.784C125 513.142 127.739 515.864 131.118 515.864C134.496 515.864 137.236 513.142 137.236 509.784C137.236 506.425 134.496 503.702 131.118 503.702ZM171.321 503.702C167.942 503.702 165.203 506.425 165.203 509.784C165.203 513.142 167.942 515.864 171.321 515.864C174.7 515.864 177.439 513.142 177.439 509.784C177.439 506.425 174.7 503.702 171.321 503.702ZM211.524 503.702C208.146 503.702 205.406 506.425 205.406 509.784C205.406 513.142 208.146 515.864 211.524 515.864C214.903 515.864 217.642 513.142 217.642 509.784C217.642 506.425 214.903 503.702 211.524 503.702ZM253.476 503.702C250.096 503.702 247.357 506.425 247.357 509.784C247.357 513.142 250.096 515.864 253.476 515.864C256.854 515.864 259.593 513.142 259.593 509.784C259.593 506.425 256.854 503.702 253.476 503.702ZM293.679 503.702C290.3 503.702 287.561 506.425 287.561 509.784C287.561 513.142 290.3 515.864 293.679 515.864C297.057 515.864 299.796 513.142 299.796 509.784C299.796 506.425 297.057 503.702 293.679 503.702ZM333.882 503.702C330.503 503.702 327.763 506.425 327.763 509.784C327.763 513.142 330.503 515.864 333.882 515.864C337.26 515.864 340 513.142 340 509.784C340 506.425 337.26 503.702 333.882 503.702ZM131.118 461.134C127.739 461.134 125 463.857 125 467.216C125 470.575 127.739 473.297 131.118 473.297C134.496 473.297 137.236 470.575 137.236 467.216C137.236 463.857 134.496 461.134 131.118 461.134ZM171.321 461.134C167.942 461.134 165.203 463.857 165.203 467.216C165.203 470.575 167.942 473.297 171.321 473.297C174.7 473.297 177.439 470.575 177.439 467.216C177.439 463.857 174.7 461.134 171.321 461.134ZM211.524 461.134C208.146 461.134 205.406 463.857 205.406 467.216C205.406 470.575 208.146 473.297 211.524 473.297C214.903 473.297 217.642 470.575 217.642 467.216C217.642 463.857 214.903 461.134 211.524 461.134ZM253.476 461.134C250.096 461.134 247.357 463.857 247.357 467.216C247.357 470.575 250.096 473.297 253.476 473.297C256.854 473.297 259.593 470.575 259.593 467.216C259.593 463.857 256.854 461.134 253.476 461.134ZM293.679 461.134C290.3 461.134 287.561 463.857 287.561 467.216C287.561 470.575 290.3 473.297 293.679 473.297C297.057 473.297 299.796 470.575 299.796 467.216C299.796 463.857 297.057 461.134 293.679 461.134ZM333.882 461.134C330.503 461.134 327.763 463.857 327.763 467.216C327.763 470.575 330.503 473.297 333.882 473.297C337.26 473.297 340 470.575 340 467.216C340 463.857 337.26 461.134 333.882 461.134ZM131.118 418.568C127.739 418.568 125 421.29 125 424.648C125 428.007 127.739 430.729 131.118 430.729C134.496 430.729 137.236 428.007 137.236 424.648C137.236 421.29 134.496 418.568 131.118 418.568ZM171.321 418.568C167.942 418.568 165.203 421.29 165.203 424.648C165.203 428.007 167.942 430.729 171.321 430.729C174.7 430.729 177.439 428.007 177.439 424.648C177.439 421.29 174.7 418.568 171.321 418.568ZM211.524 418.568C208.146 418.568 205.406 421.29 205.406 424.648C205.406 428.007 208.146 430.729 211.524 430.729C214.903 430.729 217.642 428.007 217.642 424.648C217.642 421.29 214.903 418.568 211.524 418.568ZM253.476 418.568C250.096 418.568 247.357 421.29 247.357 424.648C247.357 428.007 250.096 430.729 253.476 430.729C256.854 430.729 259.593 428.007 259.593 424.648C259.593 421.29 256.854 418.568 253.476 418.568ZM293.679 418.568C290.3 418.568 287.561 421.29 287.561 424.648C287.561 428.007 290.3 430.729 293.679 430.729C297.057 430.729 299.796 428.007 299.796 424.648C299.796 421.29 297.057 418.568 293.679 418.568ZM333.882 418.568C330.503 418.568 327.763 421.29 327.763 424.648C327.763 428.007 330.503 430.729 333.882 430.729C337.26 430.729 340 428.007 340 424.648C340 421.29 337.26 418.568 333.882 418.568ZM131.118 375.999C127.739 375.999 125 378.722 125 382.081C125 385.439 127.739 388.162 131.118 388.162C134.496 388.162 137.236 385.439 137.236 382.081C137.236 378.722 134.496 375.999 131.118 375.999ZM171.321 375.999C167.942 375.999 165.203 378.722 165.203 382.081C165.203 385.439 167.942 388.162 171.321 388.162C174.7 388.162 177.439 385.439 177.439 382.081C177.439 378.722 174.7 375.999 171.321 375.999ZM211.524 375.999C208.146 375.999 205.406 378.722 205.406 382.081C205.406 385.439 208.146 388.162 211.524 388.162C214.903 388.162 217.642 385.439 217.642 382.081C217.642 378.722 214.903 375.999 211.524 375.999ZM253.476 375.999C250.096 375.999 247.357 378.722 247.357 382.081C247.357 385.439 250.096 388.162 253.476 388.162C256.854 388.162 259.593 385.439 259.593 382.081C259.593 378.722 256.854 375.999 253.476 375.999ZM293.679 375.999C290.3 375.999 287.561 378.722 287.561 382.081C287.561 385.439 290.3 388.162 293.679 388.162C297.057 388.162 299.796 385.439 299.796 382.081C299.796 378.722 297.057 375.999 293.679 375.999ZM333.882 375.999C330.503 375.999 327.763 378.722 327.763 382.081C327.763 385.439 330.503 388.162 333.882 388.162C337.26 388.162 340 385.439 340 382.081C340 378.722 337.26 375.999 333.882 375.999Z" fill="#2B5AE1"/>
</svg>
