<svg
   viewBox="0 0 1920 831"
   xmlns="http://www.w3.org/2000/svg"
   xmlns:svg="http://www.w3.org/2000/svg">
  <rect
     y="30"
     width="1920"
     height="805"
     fill="#fffdf5"
     id="rect14"
     x="0" />
  <path
     fill-rule="evenodd"
     clip-rule="evenodd"
     d="m -17.7023,631.926 c 77.988,49.78 199.6733,83.93 412.9293,53.245 162.928,-23.443 250.723,-86.396 413.992,-95.3 193.671,-10.562 311.221,-17.259 513.021,35.146 351.9,91.385 575.28,51.984 656.62,-28.782 147.25,-146.227 87.8,-3.348 -27.86,-190.134 -348.48,-562.749 -1738.811,-524.671 -2034.0232,15.395 -94.7428,173.326 -93.1698,109.268 65.3209,210.43 z"
     fill="#fffdf5"
     id="path16" />
  <path
     opacity="0.051"
     fill-rule="evenodd"
     clip-rule="evenodd"
     d="m 1440.12,374.837 c -3.38,0 -6.12,2.723 -6.12,6.082 0,3.358 2.74,6.08 6.12,6.08 3.38,0 6.12,-2.722 6.12,-6.08 0,-3.359 -2.74,-6.082 -6.12,-6.082 z m 40.2,0 c -3.38,0 -6.12,2.723 -6.12,6.082 0,3.358 2.74,6.08 6.12,6.08 3.38,0 6.12,-2.722 6.12,-6.08 0,-3.359 -2.74,-6.082 -6.12,-6.082 z m 40.2,0 c -3.37,0 -6.11,2.723 -6.11,6.082 0,3.358 2.74,6.08 6.11,6.08 3.38,0 6.12,-2.722 6.12,-6.08 0,-3.359 -2.74,-6.082 -6.12,-6.082 z m 41.96,0 c -3.38,0 -6.12,2.723 -6.12,6.082 0,3.358 2.74,6.08 6.12,6.08 3.37,0 6.11,-2.722 6.11,-6.08 0,-3.359 -2.74,-6.082 -6.11,-6.082 z m 40.2,0 c -3.38,0 -6.12,2.723 -6.12,6.082 0,3.358 2.74,6.08 6.12,6.08 3.38,0 6.12,-2.722 6.12,-6.08 0,-3.359 -2.74,-6.082 -6.12,-6.082 z m 40.2,0 c -3.38,0 -6.12,2.723 -6.12,6.082 0,3.358 2.74,6.08 6.12,6.08 3.38,0 6.12,-2.722 6.12,-6.08 0,-3.359 -2.74,-6.082 -6.12,-6.082 z m -202.76,-42.568 c -3.38,0 -6.12,2.724 -6.12,6.082 0,3.358 2.74,6.081 6.12,6.081 3.38,0 6.12,-2.723 6.12,-6.081 0,-3.358 -2.74,-6.082 -6.12,-6.082 z m 40.2,0 c -3.38,0 -6.12,2.724 -6.12,6.082 0,3.358 2.74,6.081 6.12,6.081 3.38,0 6.12,-2.723 6.12,-6.081 0,-3.358 -2.74,-6.082 -6.12,-6.082 z m 40.2,0 c -3.37,0 -6.11,2.724 -6.11,6.082 0,3.358 2.74,6.081 6.11,6.081 3.38,0 6.12,-2.723 6.12,-6.081 0,-3.358 -2.74,-6.082 -6.12,-6.082 z m 41.96,0 c -3.38,0 -6.12,2.724 -6.12,6.082 0,3.358 2.74,6.081 6.12,6.081 3.37,0 6.11,-2.723 6.11,-6.081 0,-3.358 -2.74,-6.082 -6.11,-6.082 z m 40.2,0 c -3.38,0 -6.12,2.724 -6.12,6.082 0,3.358 2.74,6.081 6.12,6.081 3.38,0 6.12,-2.723 6.12,-6.081 0,-3.358 -2.74,-6.082 -6.12,-6.082 z m 40.2,0 c -3.38,0 -6.12,2.724 -6.12,6.082 0,3.358 2.74,6.081 6.12,6.081 3.38,0 6.12,-2.723 6.12,-6.081 0,-3.358 -2.74,-6.082 -6.12,-6.082 z m -202.76,-42.567 c -3.38,0 -6.12,2.723 -6.12,6.082 0,3.358 2.74,6.08 6.12,6.08 3.38,0 6.12,-2.722 6.12,-6.08 0,-3.359 -2.74,-6.082 -6.12,-6.082 z m 40.2,0 c -3.38,0 -6.12,2.723 -6.12,6.082 0,3.358 2.74,6.08 6.12,6.08 3.38,0 6.12,-2.722 6.12,-6.08 0,-3.359 -2.74,-6.082 -6.12,-6.082 z m 40.2,0 c -3.37,0 -6.11,2.723 -6.11,6.082 0,3.358 2.74,6.08 6.11,6.08 3.38,0 6.12,-2.722 6.12,-6.08 0,-3.359 -2.74,-6.082 -6.12,-6.082 z m 41.96,0 c -3.38,0 -6.12,2.723 -6.12,6.082 0,3.358 2.74,6.08 6.12,6.08 3.37,0 6.11,-2.722 6.11,-6.08 0,-3.359 -2.74,-6.082 -6.11,-6.082 z m 40.2,0 c -3.38,0 -6.12,2.723 -6.12,6.082 0,3.358 2.74,6.08 6.12,6.08 3.38,0 6.12,-2.722 6.12,-6.08 0,-3.359 -2.74,-6.082 -6.12,-6.082 z m 40.2,0 c -3.38,0 -6.12,2.723 -6.12,6.082 0,3.358 2.74,6.08 6.12,6.08 3.38,0 6.12,-2.722 6.12,-6.08 0,-3.359 -2.74,-6.082 -6.12,-6.082 z m -202.76,-42.568 c -3.38,0 -6.12,2.723 -6.12,6.082 0,3.359 2.74,6.081 6.12,6.081 3.38,0 6.12,-2.722 6.12,-6.081 0,-3.359 -2.74,-6.082 -6.12,-6.082 z m 40.2,0 c -3.38,0 -6.12,2.723 -6.12,6.082 0,3.359 2.74,6.081 6.12,6.081 3.38,0 6.12,-2.722 6.12,-6.081 0,-3.359 -2.74,-6.082 -6.12,-6.082 z m 40.2,0 c -3.37,0 -6.11,2.723 -6.11,6.082 0,3.359 2.74,6.081 6.11,6.081 3.38,0 6.12,-2.722 6.12,-6.081 0,-3.359 -2.74,-6.082 -6.12,-6.082 z m 41.96,0 c -3.38,0 -6.12,2.723 -6.12,6.082 0,3.359 2.74,6.081 6.12,6.081 3.37,0 6.11,-2.722 6.11,-6.081 0,-3.359 -2.74,-6.082 -6.11,-6.082 z m 40.2,0 c -3.38,0 -6.12,2.723 -6.12,6.082 0,3.359 2.74,6.081 6.12,6.081 3.38,0 6.12,-2.722 6.12,-6.081 0,-3.359 -2.74,-6.082 -6.12,-6.082 z m 40.2,0 c -3.38,0 -6.12,2.723 -6.12,6.082 0,3.359 2.74,6.081 6.12,6.081 3.38,0 6.12,-2.722 6.12,-6.081 0,-3.359 -2.74,-6.082 -6.12,-6.082 z m -202.76,-42.566 c -3.38,0 -6.12,2.722 -6.12,6.08 0,3.359 2.74,6.081 6.12,6.081 3.38,0 6.12,-2.722 6.12,-6.081 0,-3.358 -2.74,-6.08 -6.12,-6.08 z m 40.2,0 c -3.38,0 -6.12,2.722 -6.12,6.08 0,3.359 2.74,6.081 6.12,6.081 3.38,0 6.12,-2.722 6.12,-6.081 0,-3.358 -2.74,-6.08 -6.12,-6.08 z m 40.2,0 c -3.37,0 -6.11,2.722 -6.11,6.08 0,3.359 2.74,6.081 6.11,6.081 3.38,0 6.12,-2.722 6.12,-6.081 0,-3.358 -2.74,-6.08 -6.12,-6.08 z m 41.96,0 c -3.38,0 -6.12,2.722 -6.12,6.08 0,3.359 2.74,6.081 6.12,6.081 3.37,0 6.11,-2.722 6.11,-6.081 0,-3.358 -2.74,-6.08 -6.11,-6.08 z m 40.2,0 c -3.38,0 -6.12,2.722 -6.12,6.08 0,3.359 2.74,6.081 6.12,6.081 3.38,0 6.12,-2.722 6.12,-6.081 0,-3.358 -2.74,-6.08 -6.12,-6.08 z m 40.2,0 c -3.38,0 -6.12,2.722 -6.12,6.08 0,3.359 2.74,6.081 6.12,6.081 3.38,0 6.12,-2.722 6.12,-6.081 0,-3.358 -2.74,-6.08 -6.12,-6.08 z m -202.76,-42.569 c -3.38,0 -6.12,2.723 -6.12,6.082 0,3.358 2.74,6.081 6.12,6.081 3.38,0 6.12,-2.723 6.12,-6.081 0,-3.359 -2.74,-6.082 -6.12,-6.082 z m 40.2,0 c -3.38,0 -6.12,2.723 -6.12,6.082 0,3.358 2.74,6.081 6.12,6.081 3.38,0 6.12,-2.723 6.12,-6.081 0,-3.359 -2.74,-6.082 -6.12,-6.082 z m 40.2,0 c -3.37,0 -6.11,2.723 -6.11,6.082 0,3.358 2.74,6.081 6.11,6.081 3.38,0 6.12,-2.723 6.12,-6.081 0,-3.359 -2.74,-6.082 -6.12,-6.082 z m 41.96,0 c -3.38,0 -6.12,2.723 -6.12,6.082 0,3.358 2.74,6.081 6.12,6.081 3.37,0 6.11,-2.723 6.11,-6.081 0,-3.359 -2.74,-6.082 -6.11,-6.082 z m 40.2,0 c -3.38,0 -6.12,2.723 -6.12,6.082 0,3.358 2.74,6.081 6.12,6.081 3.38,0 6.12,-2.723 6.12,-6.081 0,-3.359 -2.74,-6.082 -6.12,-6.082 z m 40.2,0 c -3.38,0 -6.12,2.723 -6.12,6.082 0,3.358 2.74,6.081 6.12,6.081 3.38,0 6.12,-2.723 6.12,-6.081 0,-3.359 -2.74,-6.082 -6.12,-6.082 z"
     fill="#7e713c"
     id="path18" />
</svg>
